<svg xmlns="http://www.w3.org/2000/svg" width="24" height="24"><g fill="none" fill-rule="evenodd"><rect width="24" height="24" fill="#394791" rx="2"/><path fill="#FFF" fill-rule="nonzero" d="M9.12 11.48c-1.632 0-2.704-1.136-2.704-2.624 0-1.504 1.072-2.688 2.704-2.688 1.648 0 2.72 1.184 2.72 2.688 0 1.488-1.072 2.624-2.72 2.624zM9.28 17h-1.2l6.816-10.672h1.216L9.28 17zm5.712.192c-1.632 0-2.704-1.152-2.704-2.64 0-1.504 1.072-2.688 2.704-2.688 1.632 0 2.72 1.184 2.72 2.688 0 1.488-1.088 2.64-2.72 2.64zm-5.872-6.96c.736 0 1.264-.544 1.264-1.376 0-.896-.528-1.424-1.264-1.424-.72 0-1.264.528-1.264 1.424 0 .832.544 1.376 1.264 1.376zm5.872 5.712c.736 0 1.28-.528 1.28-1.392 0-.88-.544-1.424-1.28-1.424s-1.264.544-1.264 1.424c0 .864.528 1.392 1.264 1.392z"/></g></svg>