<svg xmlns="http://www.w3.org/2000/svg" width="544" height="200" viewBox="0 0 544 200">
  <path fill="#EDEDED" fill-rule="evenodd" d="M410.910221,174.353184 C412.458838,174.353184 413.811727,174.751092 414.968888,175.546909 C416.123898,176.340575 417.0079,177.435361 417.620894,178.829117 C418.233888,180.222872 418.541461,181.790846 418.541461,183.53089 C418.541461,185.285989 418.233888,186.860416 417.620894,188.258473 C417.0079,189.65653 416.117445,190.753467 414.951681,191.549284 C413.783766,192.345101 412.407217,192.740858 410.813433,192.740858 C409.256212,192.740858 407.916228,192.34295 406.797783,191.54068 C406.253616,191.151375 405.778277,190.68679 405.361011,190.157679 L405.361011,190.157679 L405.361011,200 L402.97571,200 L402.97571,174.837126 L405.102908,174.837126 L405.102908,177.319215 C405.586851,176.626639 406.13747,176.005042 406.821442,175.531853 C407.954944,174.74464 409.318587,174.353184 410.910221,174.353184 Z M470.241391,174.353184 C471.790008,174.353184 473.142896,174.751092 474.300057,175.546909 C475.455068,176.340575 476.33907,177.435361 476.952064,178.829117 C477.565058,180.222872 477.872631,181.790846 477.872631,183.53089 C477.872631,185.285989 477.565058,186.860416 476.952064,188.258473 C476.33907,189.65653 475.448615,190.753467 474.282851,191.549284 C473.114935,192.345101 471.738387,192.740858 470.144602,192.740858 C468.587382,192.740858 467.247398,192.34295 466.128952,191.54068 C465.584786,191.151375 465.109446,190.68679 464.69218,190.157679 L464.69218,190.157679 L464.69218,200 L462.30688,200 L462.30688,174.837126 L464.434077,174.837126 L464.434077,177.319215 C464.91802,176.626639 465.468639,176.005042 466.152612,175.531853 C467.286113,174.74464 468.649757,174.353184 470.241391,174.353184 Z M504.053935,174.351463 C505.761715,174.351463 507.2286,174.74507 508.448135,175.530132 C509.669822,176.315195 510.59254,177.450848 511.216288,178.932788 C511.840036,180.41903 512.121799,182.17628 512.070178,184.20884 L512.070178,184.20884 L498.379975,184.20884 C498.440199,185.374604 498.623021,186.428524 498.99512,187.291017 C499.442498,188.323429 500.096358,189.110642 500.95455,189.654809 C501.814893,190.196825 502.847304,190.469984 504.053935,190.469984 C505.290678,190.469984 506.37686,190.18392 507.310332,189.611792 C508.248106,189.041815 508.983699,188.209433 509.521413,187.112496 L509.521413,187.112496 L511.732494,187.966386 C511.280814,188.977289 510.676423,189.841934 509.917171,190.558169 C509.160069,191.272253 508.286821,191.81642 507.301729,192.184217 C506.318787,192.556315 505.267018,192.741288 504.148573,192.741288 C502.470904,192.741288 501.00402,192.367039 499.745769,191.622843 C498.487518,190.874345 497.51533,189.811822 496.833509,188.435273 C496.151687,187.060876 495.809701,185.456337 495.809701,183.628108 C495.809701,181.735354 496.149536,180.0921 496.824905,178.700495 C497.504576,177.30674 498.459556,176.233463 499.696299,175.482814 C500.933042,174.727863 502.38487,174.351463 504.053935,174.351463 Z M7.75814046,174.351893 C9.36052877,174.351893 10.7220211,174.655164 11.8340141,175.255253 C12.9481579,175.857493 13.7289189,176.719986 14.1805988,177.836281 C14.3849302,178.30947 14.5225851,178.847184 14.5914125,179.449424 C14.6623908,180.053814 14.6968045,180.714127 14.6968045,181.434664 L14.6968045,181.434664 L14.6968045,192.257776 L12.5846631,192.257776 L12.5846631,189.336912 C12.2878449,189.823006 11.9587638,190.274686 11.5673078,190.66184 C10.8790337,191.350114 10.0595572,191.868471 9.11533109,192.21906 C8.1689541,192.567499 7.11288342,192.741719 5.95142075,192.741719 C4.68241524,192.741719 3.60053427,192.511577 2.70362699,192.049143 C1.80456885,191.586709 1.12919982,190.96296 0.67751989,190.177897 C0.225839963,189.392835 6.17284002e-13,188.526039 6.17284002e-13,187.581813 C6.17284002e-13,186.216019 0.391455936,185.116931 1.17866952,184.288851 C1.96373225,183.462922 3.04991493,182.869286 4.43506671,182.514395 C5.33842656,182.290706 6.3170664,182.099279 7.37098623,181.944418 C8.42705692,181.785254 9.8616784,181.589526 11.6813032,181.352932 C11.9178975,181.318518 12.1372849,181.292708 12.3523706,181.269049 C12.3373146,180.286107 12.2190174,179.438669 11.9544621,178.789111 C11.6533421,178.047065 11.158645,177.496446 10.4703709,177.135102 C9.7820967,176.775909 8.86798256,176.595237 7.7258776,176.595237 C6.49988923,176.595237 5.48253397,176.868396 4.67166096,177.416864 C3.85863709,177.967483 3.29081089,178.810619 2.97033323,179.950573 L2.97033323,179.950573 L0.660313036,179.273053 C1.07112668,177.702928 1.87984884,176.489845 3.08863036,175.635955 C4.29956273,174.779914 5.85463219,174.351893 7.75814046,174.351893 Z M451.189746,174.351893 C452.792135,174.351893 454.151476,174.655164 455.263469,175.255253 C456.377613,175.857493 457.158374,176.719986 457.610054,177.836281 C457.814385,178.30947 457.95204,178.847184 458.020868,179.449424 C458.091846,180.053814 458.12626,180.714127 458.12626,181.434664 L458.12626,181.434664 L458.12626,192.257776 L456.014118,192.257776 L456.014118,189.336912 C455.7173,189.823006 455.388219,190.274686 454.996763,190.66184 C454.308489,191.350114 453.491163,191.868471 452.544786,192.21906 C451.598409,192.567499 450.544489,192.741719 449.383027,192.741719 C448.114021,192.741719 447.029989,192.511577 446.133082,192.049143 C445.234024,191.586709 444.560806,190.96296 444.109126,190.177897 C443.657446,189.392835 443.429455,188.526039 443.429455,187.581813 C443.429455,186.216019 443.823062,185.116931 444.608125,184.288851 C445.393187,183.462922 446.47937,182.869286 447.866673,182.514395 C448.770033,182.290706 449.748672,182.099279 450.802592,181.944418 C451.856512,181.785254 453.291134,181.589526 455.110758,181.352932 C455.347353,181.318518 455.56674,181.292708 455.781826,181.269049 C455.76677,180.286107 455.648473,179.438669 455.383917,178.789111 C455.082797,178.047065 454.5881,177.496446 453.899826,177.135102 C453.211552,176.775909 452.297438,176.595237 451.157484,176.595237 C449.931495,176.595237 448.911989,176.868396 448.101116,177.416864 C447.288092,177.967483 446.720266,178.810619 446.399788,179.950573 L446.399788,179.950573 L444.091919,179.273053 C444.500582,177.702928 445.309304,176.489845 446.520236,175.635955 C447.729018,174.779914 449.286238,174.351893 451.189746,174.351893 Z M94.1761251,174.352108 C95.8860562,174.352108 97.361544,174.741413 98.6047392,175.513571 C99.8457836,176.29003 100.794311,177.365459 101.452474,178.748459 C102.106334,180.13146 102.435415,181.725245 102.435415,183.531965 C102.435415,185.360193 102.104183,186.966883 101.44387,188.354186 C100.781406,189.741489 99.8307276,190.819068 98.5875323,191.589075 C97.346488,192.35693 95.8753019,192.741934 94.1761251,192.741934 C92.4769482,192.741934 91.0057621,192.35478 89.7625669,191.580471 C88.5215225,190.806163 87.5729947,189.724282 86.9169834,188.330526 C86.2609721,186.938922 85.931891,185.338685 85.931891,183.531965 C85.931891,181.714491 86.2652738,180.112103 86.9341902,178.722649 C87.598805,177.337497 88.5580871,176.262069 89.8055841,175.496364 C91.0509301,174.734961 92.509211,174.352108 94.1761251,174.352108 Z M214.078003,174.352108 C215.787934,174.352108 217.263422,174.741413 218.506617,175.513571 C219.747661,176.29003 220.696189,177.365459 221.354352,178.748459 C222.008212,180.13146 222.337293,181.725245 222.337293,183.531965 C222.337293,185.360193 222.006061,186.966883 221.345748,188.354186 C220.683284,189.741489 219.732605,190.819068 218.48941,191.589075 C217.248366,192.35693 215.77718,192.741934 214.078003,192.741934 C212.378826,192.741934 210.90764,192.35478 209.664445,191.580471 C208.4234,190.806163 207.474873,189.724282 206.818861,188.330526 C206.16285,186.938922 205.833769,185.338685 205.833769,183.531965 C205.833769,181.714491 206.167152,180.112103 206.836068,178.722649 C207.500683,177.337497 208.459965,176.262069 209.707462,175.496364 C210.952808,174.734961 212.411089,174.352108 214.078003,174.352108 Z M60.4134807,174.352108 C62.1234119,174.352108 63.5988996,174.741413 64.8420948,175.513571 C66.0831392,176.29003 67.0316671,177.365459 67.6898292,178.748459 C68.3436897,180.13146 68.6727708,181.725245 68.6727708,183.531965 C68.6727708,185.360193 68.3415389,186.966883 67.6812258,188.354186 C67.0187619,189.741489 66.0680832,190.819068 64.824888,191.589075 C63.5838436,192.35693 62.1126576,192.741934 60.4134807,192.741934 C58.7143038,192.741934 57.2431178,192.35478 55.9999226,191.580471 C54.7588782,190.806163 53.8103504,189.724282 53.154339,188.330526 C52.4983277,186.938922 52.1692466,185.338685 52.1692466,183.531965 C52.1692466,181.714491 52.5026294,180.112103 53.1715459,178.722649 C53.8361606,177.337497 54.7954428,176.262069 56.0429397,175.496364 C57.2882858,174.734961 58.7465667,174.352108 60.4134807,174.352108 Z M391.409048,174.351463 C393.116828,174.351463 394.583712,174.74507 395.803248,175.530132 C397.024935,176.315195 397.947652,177.450848 398.571401,178.932788 C399.195149,180.41903 399.476912,182.17628 399.425291,184.20884 L399.425291,184.20884 L385.735088,184.20884 C385.795312,185.374604 385.975984,186.428524 386.350233,187.291017 C386.797611,188.323429 387.451471,189.110642 388.309663,189.654809 C389.170006,190.196825 390.202417,190.469984 391.409048,190.469984 C392.64579,190.469984 393.731973,190.18392 394.665445,189.611792 C395.603219,189.041815 396.338812,188.209433 396.876526,187.112496 L396.876526,187.112496 L399.087607,187.966386 C398.635927,188.977289 398.031536,189.841934 397.272283,190.558169 C396.515182,191.272253 395.641934,191.81642 394.656842,192.184217 C393.6739,192.556315 392.622131,192.741288 391.503685,192.741288 C389.826017,192.741288 388.359133,192.367039 387.100882,191.622843 C385.84263,190.874345 384.870443,189.811822 384.188622,188.435273 C383.5068,187.060876 383.164814,185.456337 383.164814,183.628108 C383.164814,181.735354 383.504649,180.0921 384.180018,178.700495 C384.859689,177.30674 385.814669,176.233463 387.051412,175.482814 C388.288155,174.727863 389.739983,174.351463 391.409048,174.351463 Z M270.311939,174.351893 C271.914327,174.351893 273.273669,174.655164 274.385662,175.255253 C275.499805,175.857493 276.280566,176.719986 276.732246,177.836281 C276.936578,178.30947 277.074233,178.847184 277.14306,179.449424 C277.214038,180.053814 277.248452,180.714127 277.248452,181.434664 L277.248452,181.434664 L277.248452,192.257776 L275.136311,192.257776 L275.136311,189.336912 C274.839492,189.823006 274.510411,190.274686 274.118955,190.66184 C273.430681,191.350114 272.613356,191.868471 271.666979,192.21906 C270.720602,192.567499 269.666682,192.741719 268.505219,192.741719 C267.236214,192.741719 266.152182,192.511577 265.255274,192.049143 C264.356216,191.586709 263.682998,190.96296 263.231318,190.177897 C262.779638,189.392835 262.551647,188.526039 262.551647,187.581813 C262.551647,186.216019 262.945254,185.116931 263.730317,184.288851 C264.51538,183.462922 265.601562,182.869286 266.988865,182.514395 C267.892225,182.290706 268.870865,182.099279 269.924785,181.944418 C270.978704,181.785254 272.413326,181.589526 274.232951,181.352932 C274.469545,181.318518 274.688932,181.292708 274.904018,181.269049 C274.888962,180.286107 274.770665,179.438669 274.50611,178.789111 C274.20499,178.047065 273.710292,177.496446 273.022018,177.135102 C272.333744,176.775909 271.41963,176.595237 270.279676,176.595237 C269.053688,176.595237 268.034181,176.868396 267.223308,177.416864 C266.410285,177.967483 265.842458,178.810619 265.521981,179.950573 L265.521981,179.950573 L263.214111,179.273053 C263.622774,177.702928 264.431496,176.489845 265.642429,175.635955 C266.85121,174.779914 268.40843,174.351893 270.311939,174.351893 Z M259.002734,174.837772 L259.002734,192.257561 L256.647546,192.257561 L256.647546,177.109076 L249.356141,177.109076 L249.308822,177.868329 C248.932422,183.075553 248.530212,186.747066 248.09789,188.887168 C247.893558,189.908825 247.631154,190.691737 247.306374,191.233753 C246.985897,191.77792 246.514859,192.137113 245.895412,192.315634 C245.278117,192.492004 244.424226,192.472646 243.340195,192.257561 L243.340195,192.257561 L243.340195,190.177682 C243.963943,190.295979 244.443584,190.27232 244.783419,190.104553 C245.123255,189.936786 245.372754,189.657175 245.534068,189.265719 C245.693232,188.874263 245.841641,188.317191 245.968542,187.596654 C246.21589,186.112563 246.430976,184.366067 246.613799,182.352865 C246.796621,180.341814 246.979444,177.836066 247.162267,174.837772 L247.162267,174.837772 L259.002734,174.837772 Z M32.9401567,174.837772 L32.9401567,192.257561 L30.5849685,192.257561 L30.5849685,177.109076 L23.293564,177.109076 L23.2462451,177.868329 C22.8698452,183.075553 22.467635,186.747066 22.0353128,188.887168 C21.8309814,189.908825 21.5685768,190.691737 21.2437975,191.233753 C20.9233198,191.77792 20.4522822,192.137113 19.8328354,192.315634 C19.2155395,192.492004 18.3616494,192.472646 17.2776175,192.257561 L17.2776175,192.257561 L17.2776175,190.177682 C17.901366,190.295979 18.3810071,190.27232 18.7208424,190.104553 C19.0606778,189.936786 19.3101772,189.657175 19.4714915,189.265719 C19.6306549,188.874263 19.779064,188.317191 19.9059645,187.596654 C20.1533131,186.112563 20.3683988,184.366067 20.5512216,182.352865 C20.7340444,180.341814 20.9168672,177.836066 21.0996901,174.837772 L21.0996901,174.837772 L32.9401567,174.837772 Z M120.03308,174.837772 L120.03308,192.257561 L117.677892,192.257561 L117.677892,177.109076 L110.386487,177.109076 L110.339169,177.868329 C109.962769,183.075553 109.560558,186.747066 109.128236,188.887168 C108.923905,189.908825 108.6615,190.691737 108.336721,191.233753 C108.016243,191.77792 107.545206,192.137113 106.925759,192.315634 C106.308463,192.492004 105.454573,192.472646 104.370541,192.257561 L104.370541,192.257561 L104.370541,190.177682 C104.994289,190.295979 105.473931,190.27232 105.813766,190.104553 C106.153601,189.936786 106.403101,189.657175 106.564415,189.265719 C106.723578,188.874263 106.871987,188.317191 106.998888,187.596654 C107.246237,186.112563 107.461322,184.366067 107.644145,182.352865 C107.826968,180.341814 108.009791,177.836066 108.192614,174.837772 L108.192614,174.837772 L120.03308,174.837772 Z M528.912462,174.837557 L528.912462,177.03143 L522.733051,177.03143 L522.733051,192.259497 L520.360656,192.259497 L520.360656,177.03143 L514.183395,177.03143 L514.183395,174.837557 L528.912462,174.837557 Z M39.8456975,174.837557 L39.8456975,183.223747 L47.6210448,174.837557 L50.7828043,174.837557 L42.6203028,183.548527 L51.8474784,192.259497 L48.3953533,192.259497 L39.8456975,183.869004 L39.8456975,192.259497 L37.4431905,192.259497 L37.4582465,174.837557 L39.8456975,174.837557 Z M184.285195,174.837341 L184.285195,188.290951 L193.850055,174.837341 L195.835296,174.837341 L195.835296,192.259281 L193.527427,192.259281 L193.527427,178.691677 L183.977622,192.259281 L181.979477,192.259281 L181.979477,174.837341 L184.285195,174.837341 Z M483.808565,174.837557 L483.808565,183.223747 L491.583912,174.837557 L494.745672,174.837557 L486.58317,183.548527 L495.810346,192.259497 L492.358221,192.259497 L483.808565,183.869004 L483.808565,192.259497 L481.406058,192.259497 L481.421114,174.837557 L483.808565,174.837557 Z M424.188105,174.837341 L430.97836,189.097522 L437.785822,174.837341 L439.882907,174.837341 L439.882907,192.259281 L437.592245,192.259281 L437.592245,179.902609 L431.737613,192.259281 L430.236315,192.259281 L424.381682,179.902609 L424.381682,192.259281 L422.073813,192.259281 L422.073813,174.837341 L424.188105,174.837341 Z M349.709957,174.837341 L349.709957,188.290951 L359.274817,174.837341 L361.260058,174.837341 L361.260058,192.259281 L358.952189,192.259281 L358.952189,178.691677 L349.402384,192.259281 L347.404238,192.259281 L347.404238,174.837341 L349.709957,174.837341 Z M283.732855,174.837341 L283.732855,188.290951 L293.297715,174.837341 L295.282956,174.837341 L295.282956,192.259281 L292.975087,192.259281 L292.975087,178.691677 L283.425282,192.259281 L281.427136,192.259281 L281.427136,174.837341 L283.732855,174.837341 Z M143.665404,174.836696 L143.665404,182.40341 L153.490518,182.40341 L153.490518,174.836696 L155.862913,174.836696 L155.862913,192.258636 L153.490518,192.258636 L153.490518,184.676866 L143.665404,184.676866 L143.665404,192.258636 L141.29516,192.258636 L141.29516,174.836696 L143.665404,174.836696 Z M302.154513,174.836696 L302.154513,182.40341 L311.979627,182.40341 L311.979627,174.836696 L314.352022,174.836696 L314.352022,192.258636 L311.979627,192.258636 L311.979627,184.676866 L302.154513,184.676866 L302.154513,192.258636 L299.784269,192.258636 L299.784269,174.836696 L302.154513,174.836696 Z M228.24204,174.836696 L228.24204,182.40341 L238.067154,182.40341 L238.067154,174.836696 L240.439549,174.836696 L240.439549,192.258636 L238.067154,192.258636 L238.067154,184.676866 L228.24204,184.676866 L228.24204,192.258636 L225.871796,192.258636 L225.871796,174.836696 L228.24204,174.836696 Z M379.615255,174.836696 L379.615255,192.258636 L377.245011,192.258636 L377.245011,177.110152 L368.129679,177.110152 L368.129679,192.258636 L365.759435,192.258636 L365.759435,174.836696 L379.615255,174.836696 Z M84.157219,174.836696 L84.157219,177.110152 L74.5923589,177.110152 L74.5923589,192.258636 L72.2199638,192.258636 L72.2199638,174.836696 L84.157219,174.836696 Z M177.477303,174.836911 L177.477303,192.258851 L175.104908,192.258851 L175.104908,174.836911 L177.477303,174.836911 Z M344.352173,174.836696 L344.352173,177.110152 L334.787313,177.110152 L334.787313,192.258636 L332.414917,192.258636 L332.414917,174.836696 L344.352173,174.836696 Z M162.746945,174.838202 L162.746945,181.400466 L165.779653,181.400466 C167.007793,181.400466 167.934812,181.456388 168.571465,181.563931 C171.539648,182.144662 173.021588,183.897611 173.021588,186.822776 C173.021588,187.790661 172.84952,188.635948 172.507533,189.356485 C172.163396,190.077022 171.683755,190.655603 171.070761,191.096528 C170.457767,191.537454 169.747984,191.849328 168.941413,192.032151 C168.543504,192.120336 168.100428,192.178409 167.612183,192.210672 C167.121788,192.240784 166.579772,192.257991 165.990437,192.257991 L165.990437,192.257991 L160.391757,192.257991 L160.361645,174.838202 L162.746945,174.838202 Z M126.922274,174.838202 L126.922274,181.400466 L131.00245,181.400466 C132.241343,181.400466 133.170513,181.456388 133.794262,181.563931 C135.181565,181.822034 136.272049,182.376955 137.061413,183.224392 C137.850778,184.076132 138.248686,185.274159 138.248686,186.822776 C138.248686,187.790661 138.074467,188.635948 137.73033,189.356485 C137.386193,190.077022 136.908703,190.655603 136.302161,191.096528 C135.695619,191.537454 134.987987,191.849328 134.181416,192.032151 C133.772753,192.120336 133.323224,192.178409 132.83498,192.210672 C132.344584,192.240784 131.804719,192.257991 131.213234,192.257991 L131.213234,192.257991 L124.567086,192.257991 L124.536974,174.838202 L126.922274,174.838202 Z M274.891113,183.346776 L274.714743,183.370436 C273.157522,183.542504 271.8455,183.703818 270.778675,183.854378 C269.714001,184.004938 268.769774,184.192063 267.941695,184.420054 C267.059843,184.665251 266.335005,185.0395 265.77148,185.538499 C265.207956,186.039649 264.924042,186.71932 264.924042,187.581813 C264.924042,188.119527 265.055245,188.622828 265.3198,189.098167 C265.582205,189.569205 266.005923,189.954208 266.584504,190.251026 C267.167386,190.547845 267.898677,190.694103 268.780529,190.694103 C269.855957,190.694103 270.808787,190.498375 271.643319,190.104768 C272.475701,189.713312 273.148919,189.173447 273.658672,188.485173 C274.170576,187.794748 274.50611,187.005384 274.667424,186.112778 C274.764212,185.682607 274.826587,185.228776 274.852397,184.749135 C274.876057,184.351226 274.886811,183.871585 274.891113,183.346776 L274.891113,183.346776 Z M12.3394654,183.346776 L12.1630952,183.370436 C10.6058749,183.542504 9.29170135,183.703818 8.22702724,183.854378 C7.16235312,184.004938 6.21597613,184.192063 5.39004713,184.420054 C4.50604498,184.665251 3.78120624,185.0395 3.21983262,185.538499 C2.65415728,186.039649 2.37024419,186.71932 2.37024419,187.581813 C2.37024419,188.119527 2.50359731,188.622828 2.76815269,189.098167 C3.03055722,189.569205 3.45212515,189.954208 4.03285649,190.251026 C4.61358782,190.547845 5.34487913,190.694103 6.22673042,190.694103 C7.30215881,190.694103 8.25713923,190.498375 9.08952081,190.104768 C9.92405325,189.713312 10.5972714,189.173447 11.1070245,188.485173 C11.6189284,187.794748 11.9544621,187.005384 12.1157763,186.112778 C12.2125649,185.682607 12.2749397,185.228776 12.30075,184.749135 C12.3244094,184.351226 12.3351637,183.871585 12.3394654,183.346776 L12.3394654,183.346776 Z M455.768921,183.346776 L455.59255,183.370436 C454.03533,183.542504 452.723307,183.703818 451.656482,183.854378 C450.591808,184.004938 449.647582,184.192063 448.819502,184.420054 C447.937651,184.665251 447.212812,185.0395 446.649288,185.538499 C446.085763,186.039649 445.80185,186.71932 445.80185,187.581813 C445.80185,188.119527 445.933052,188.622828 446.197608,189.098167 C446.460012,189.569205 446.883731,189.954208 447.462312,190.251026 C448.045194,190.547845 448.776485,190.694103 449.658336,190.694103 C450.733765,190.694103 451.686594,190.498375 452.521127,190.104768 C453.353508,189.713312 454.026727,189.173447 454.53648,188.485173 C455.048384,187.794748 455.383917,187.005384 455.545231,186.112778 C455.64202,185.682607 455.704395,185.228776 455.730205,184.749135 C455.753865,184.351226 455.764619,183.871585 455.768921,183.346776 L455.768921,183.346776 Z M410.525218,176.562114 C409.340096,176.562114 408.344249,176.856781 407.531225,177.441814 C406.718201,178.028998 406.11166,178.844173 405.707299,179.885187 C405.305088,180.928353 405.102908,182.145738 405.102908,183.53089 C405.102908,184.909589 405.307239,186.122672 405.715902,187.178743 C406.126716,188.232662 406.737559,189.05429 407.557035,189.645775 C408.374361,190.23511 409.37666,190.531928 410.572537,190.531928 C411.755508,190.531928 412.755656,190.230808 413.572982,189.628569 C414.388157,189.026329 415.003302,188.196098 415.411964,187.137876 C415.818476,186.077504 416.024959,184.875175 416.024959,183.53089 C416.024959,182.186604 415.822778,180.988577 415.420568,179.932506 C415.016207,178.880737 414.398911,178.054808 413.572982,177.459021 C412.744902,176.861083 411.727547,176.562114 410.525218,176.562114 Z M469.856387,176.562114 C468.671265,176.562114 467.675419,176.856781 466.862395,177.441814 C466.049371,178.028998 465.442829,178.844173 465.038468,179.885187 C464.636258,180.928353 464.434077,182.145738 464.434077,183.53089 C464.434077,184.909589 464.638409,186.122672 465.047072,187.178743 C465.457885,188.232662 466.068728,189.05429 466.888205,189.645775 C467.70553,190.23511 468.70783,190.531928 469.903706,190.531928 C471.086677,190.531928 472.086826,190.230808 472.904151,189.628569 C473.719326,189.026329 474.334471,188.196098 474.743134,187.137876 C475.149646,186.077504 475.356128,184.875175 475.356128,183.53089 C475.356128,182.186604 475.153948,180.988577 474.751737,179.932506 C474.347376,178.880737 473.73008,178.054808 472.904151,177.459021 C472.076072,176.861083 471.058716,176.562114 469.856387,176.562114 Z M94.1761251,176.627715 C92.9071196,176.627715 91.8445963,176.915929 90.9907061,177.490208 C90.1346651,178.066638 89.4980115,178.871058 89.0785945,179.901319 C88.6591774,180.935881 88.4483934,182.144662 88.4483934,183.531965 C88.4483934,184.940776 88.66563,186.166765 89.1044047,187.20993 C89.5388778,188.253096 90.1841349,189.057516 91.038025,189.621041 C91.8919151,190.184565 92.9393824,190.468478 94.1761251,190.468478 C95.4343763,190.468478 96.4925978,190.180263 97.3550914,189.605985 C98.2132833,189.029555 98.8563894,188.218682 99.2822591,187.177667 C99.7059779,186.134502 99.9189127,184.919268 99.9189127,183.531965 C99.9189127,181.381108 99.4285173,179.692686 98.4498775,178.466697 C97.4712377,177.240709 96.0473705,176.627715 94.1761251,176.627715 Z M60.4134807,176.627715 C59.1444752,176.627715 58.0819519,176.915929 57.2280618,177.490208 C56.3720208,178.066638 55.7353672,178.871058 55.3159501,179.901319 C54.896533,180.935881 54.6857491,182.144662 54.6857491,183.531965 C54.6857491,184.940776 54.9029856,186.166765 55.3417604,187.20993 C55.7762335,188.253096 56.4214905,189.057516 57.2753806,189.621041 C58.1292708,190.184565 59.1767381,190.468478 60.4134807,190.468478 C61.6717319,190.468478 62.7299535,190.180263 63.5924471,189.605985 C64.4506389,189.029555 65.0937451,188.218682 65.5196147,187.177667 C65.9433335,186.134502 66.1562683,184.919268 66.1562683,183.531965 C66.1562683,181.381108 65.665873,179.692686 64.6872332,178.466697 C63.7085933,177.240709 62.2847261,176.627715 60.4134807,176.627715 Z M214.078003,176.627715 C212.808997,176.627715 211.746474,176.915929 210.892584,177.490208 C210.036543,178.066638 209.399889,178.871058 208.980472,179.901319 C208.561055,180.935881 208.350271,182.144662 208.350271,183.531965 C208.350271,184.940776 208.567508,186.166765 209.006283,187.20993 C209.440756,188.253096 210.086013,189.057516 210.939903,189.621041 C211.793793,190.184565 212.84126,190.468478 214.078003,190.468478 C215.336254,190.468478 216.394476,190.180263 217.256969,189.605985 C218.115161,189.029555 218.758267,188.218682 219.184137,187.177667 C219.607856,186.134502 219.820791,184.919268 219.820791,183.531965 C219.820791,181.381108 219.330395,179.692686 218.351755,178.466697 C217.373116,177.240709 215.949248,176.627715 214.078003,176.627715 Z M131.116445,183.435176 L126.922274,183.435176 L126.922274,190.225431 L131.116445,190.225431 C131.621897,190.225431 132.073577,190.212526 132.471485,190.184565 C132.869394,190.158755 133.224285,190.102832 133.536159,190.014647 C134.19217,189.831825 134.732036,189.483386 135.157905,188.96718 C135.581624,188.453125 135.794559,187.73689 135.794559,186.822776 C135.794559,185.885002 135.579473,185.160164 135.149302,184.643958 C134.71913,184.127752 134.106136,183.783615 133.310319,183.613698 C132.761851,183.49325 132.030559,183.435176 131.116445,183.435176 L131.116445,183.435176 Z M165.893649,183.435176 L162.746945,183.435176 L162.746945,190.225431 L165.893649,190.225431 C166.396949,190.225431 166.846478,190.212526 167.240085,190.184565 C167.633692,190.158755 167.986432,190.102832 168.296156,190.014647 C168.952167,189.831825 169.496334,189.483386 169.926505,188.96718 C170.354526,188.453125 170.571762,187.73689 170.571762,186.822776 C170.571762,185.885002 170.352375,185.160164 169.917902,184.643958 C169.483429,184.127752 168.872585,183.783615 168.087523,183.613698 C167.5283,183.49325 166.797009,183.435176 165.893649,183.435176 L165.893649,183.435176 Z M328.222252,181.080849 L328.222252,183.111257 L318.543397,183.111257 L318.543397,181.080849 L328.222252,181.080849 Z M391.473573,176.530281 C390.236831,176.530281 389.182911,176.801289 388.318267,177.345456 C387.453622,177.887471 386.797611,178.683288 386.350233,179.730756 C386.046962,180.446991 385.883497,181.305183 385.786708,182.22575 L385.786708,182.22575 L396.898034,182.22575 C396.796944,181.236356 396.631328,180.328694 396.328057,179.595252 C395.90864,178.584349 395.289193,177.820795 394.471868,177.304589 C393.654542,176.788384 392.656545,176.530281 391.473573,176.530281 Z M504.118461,176.530281 C502.881718,176.530281 501.827798,176.801289 500.963154,177.345456 C500.098509,177.887471 499.442498,178.683288 498.99512,179.730756 C498.691849,180.446991 498.528384,181.305183 498.431595,182.22575 L498.431595,182.22575 L509.542921,182.22575 C509.441831,181.236356 509.276215,180.328694 508.972944,179.595252 C508.553527,178.584349 507.934081,177.820795 507.116755,177.304589 C506.299429,176.788384 505.301432,176.530281 504.118461,176.530281 Z M187.025817,168.609321 C187.025817,169.00938 187.126907,169.375026 187.324786,169.706257 C187.524816,170.03964 187.791522,170.306347 188.124905,170.506376 C188.456137,170.704255 188.821782,170.805345 189.221842,170.805345 C189.617599,170.805345 189.987547,170.704255 190.325231,170.506376 C190.665066,170.306347 190.931773,170.03964 191.123199,169.706257 C191.316776,169.375026 191.413565,169.00938 191.413565,168.609321 L191.413565,168.609321 L193.381599,168.609321 C193.381599,169.364271 193.196625,170.058998 192.824527,170.699953 C192.45673,171.338758 191.949128,171.844209 191.308173,172.216307 C190.671519,172.586255 189.972491,172.773379 189.221842,172.773379 C188.466891,172.773379 187.772164,172.586255 187.131209,172.216307 C186.492404,171.844209 185.986953,171.338758 185.614855,170.699953 C185.244907,170.058998 185.057783,169.364271 185.057783,168.609321 L185.057783,168.609321 Z M286.473477,168.609321 C286.473477,169.00938 286.574567,169.375026 286.772446,169.706257 C286.972475,170.03964 287.239182,170.306347 287.572565,170.506376 C287.903796,170.704255 288.269442,170.805345 288.669501,170.805345 C289.065259,170.805345 289.435207,170.704255 289.772891,170.506376 C290.112726,170.306347 290.379433,170.03964 290.570859,169.706257 C290.764436,169.375026 290.861225,169.00938 290.861225,168.609321 L290.861225,168.609321 L292.829259,168.609321 C292.829259,169.364271 292.644285,170.058998 292.272187,170.699953 C291.90439,171.338758 291.396788,171.844209 290.755833,172.216307 C290.119179,172.586255 289.420151,172.773379 288.669501,172.773379 C287.914551,172.773379 287.219824,172.586255 286.578869,172.216307 C285.940064,171.844209 285.434613,171.338758 285.062515,170.699953 C284.692567,170.058998 284.505443,169.364271 284.505443,168.609321 L284.505443,168.609321 Z M241.32097,-5.68434189e-14 L298.056271,21.6698822 L283.445501,44.727067 L348.018523,154.861689 L210.363688,154.861689 L271.207125,50.824746 L241.32097,-5.68434189e-14 Z M275.242133,57.6365095 L214.957918,152.562423 L326.761605,145.780772 L275.242133,57.6365095 Z M516.391249,75.7744698 C531.281631,75.7744698 543.350089,87.8450781 543.350089,102.73546 C543.350089,117.62369 531.281631,129.694299 516.391249,129.694299 C501.500868,129.694299 489.43241,117.62369 489.43241,102.73546 C489.43241,87.8450781 501.500868,75.7744698 516.391249,75.7744698 Z M328.127615,43.6602421 L394.333138,108.646229 L394.795572,108.646229 L394.795572,45.0776567 L400.297463,45.0776567 L400.297463,129.694514 L399.682318,129.694514 L333.51336,64.6719621 L333.050926,64.6719621 L333.050926,112.595202 L327.551185,103.202411 L327.551185,43.6602421 L328.127615,43.6602421 Z M174.042385,45.0776567 L174.042385,91.8910548 L218.782357,45.0776567 L224.746683,45.0776567 L194.432507,77.2845863 L223.475526,117.08189 L217.973635,126.513397 L187.506748,84.6448183 L174.042385,99.0211451 L174.042385,128.274948 L163.195614,128.274948 L163.195614,45.0776567 L174.042385,45.0776567 Z M491.760498,45.073355 L491.760498,51.6098088 L459.803068,51.6098088 L459.803068,128.270647 L448.949844,128.270647 L448.949844,51.6098088 L416.990263,51.6098088 L416.990263,45.073355 L491.760498,45.073355 Z M145.309089,45.073355 L145.309089,51.6098088 L102.257539,51.6098088 L102.257539,81.4443434 L139.224315,81.4443434 L139.224315,86.9118213 L102.257539,86.9118213 L102.257539,121.734193 L145.309089,121.734193 L145.309089,128.270647 L91.4043159,128.270647 L91.4043159,45.073355 L145.309089,45.073355 Z M28.7950255,45.073355 C35.3938541,45.073355 41.4356109,46.1272748 46.9224466,48.2243602 C52.4071314,50.3257473 57.1175078,53.2143479 61.0535757,56.8987656 C64.9874928,60.5853342 68.048162,64.9623277 70.2377342,70.0340481 C72.4208538,75.1036175 73.51564,80.5710955 73.51564,86.4343311 C73.51564,92.5384627 72.3842893,98.1414446 70.1172862,103.25188 C67.8502832,108.364467 64.7508985,112.782327 60.8148306,116.50546 C56.8809135,120.230744 52.2888343,123.119345 47.0407437,125.179865 C41.794804,127.240386 36.1896712,128.270647 30.2274961,128.270647 L1.36514881,128.270647 L1.36514881,45.073355 L28.7950255,45.073355 Z M272.957493,80.6956301 L296.621219,121.026346 L245.226496,124.203161 L272.957493,80.6956301 Z M25.3063358,50.3042387 L12.2183722,50.3042387 L12.2183722,123.041914 L25.3063358,123.041914 C31.8105267,123.041914 37.3382287,121.951429 41.9001959,119.774762 C46.4621632,117.593793 50.2089557,114.763266 53.1448753,111.276727 C56.0786439,107.790188 58.2165956,103.888534 59.5673336,99.5674627 C60.9159209,95.2485423 61.589139,90.9511304 61.589139,86.6730762 C61.589139,81.9196827 60.7954729,77.3405086 59.2102914,72.9441573 C57.62511,68.5456552 55.3021846,64.6676604 52.2522697,61.2972678 C49.198053,57.9311769 45.4103942,55.2576619 40.8914441,53.2745719 C36.3703431,51.2957837 31.1738731,50.3042387 25.3063358,50.3042387 Z M518.781282,93.7960687 L515.748573,93.7960687 L515.748573,105.393488 C515.748573,105.819358 515.78944,106.408693 515.871172,107.157191 C515.957207,107.90784 516.200253,108.643433 516.604614,109.370423 C517.008976,110.095261 517.645629,110.725462 518.512424,111.261026 C519.381371,111.796589 520.600906,112.063295 522.171032,112.063295 C522.859306,112.086955 523.614257,111.9493 524.435884,111.654633 C525.175349,111.38556 525.918298,110.900456 526.666299,110.200888 L526.915822,109.959757 L527.48795,109.38763 L527.629906,109.38763 L527.629906,111.635275 L530.660464,111.635275 L530.660464,93.7960687 L527.629906,93.7960687 L527.629906,104.857925 C527.629906,105.782794 527.498704,106.580761 527.23845,107.247527 C526.976046,107.912142 526.629758,108.464912 526.201737,108.905838 C525.773717,109.344612 525.274718,109.673694 524.704741,109.886628 C524.132613,110.101714 523.538977,110.207106 522.91953,110.207106 C521.921532,110.207106 521.142922,110.011378 520.5837,109.617771 C520.024477,109.228466 519.607211,108.768183 519.334052,108.245525 C519.060893,107.722866 518.899579,107.20451 518.85226,106.692606 C518.811701,106.255675 518.788524,105.918298 518.78273,105.680474 L518.781282,105.569859 L518.781282,93.7960687 Z M509.504636,93.4024619 C508.506639,93.4024619 507.672106,93.6756207 507.007491,94.2240892 C506.407402,94.715775 505.904876,95.4200086 505.498345,96.3367898 L505.366388,96.6502556 L505.151302,96.6502556 L505.151302,93.7960687 L502.118594,93.7960687 L502.118594,111.635275 L505.151302,111.635275 L505.151302,100.859482 C505.151302,99.8851442 505.265297,99.0570644 505.491137,98.3816953 C505.716977,97.7020246 506.007343,97.1514053 506.364385,96.7212339 C506.721427,96.2932134 507.112883,95.9856409 507.540904,95.7942146 C507.971075,95.6049392 508.386191,95.5081507 508.790552,95.5081507 C509.336869,95.5081507 509.844472,95.6866718 510.306906,96.043714 C510.705122,96.3497502 511.011684,96.638404 511.22524,96.9096753 L511.324261,97.0438624 L512.539495,94.8284799 C512.324409,94.5467177 512.068457,94.3079726 511.769488,94.1165463 C511.470519,93.9272709 511.175852,93.776711 510.876883,93.6691681 C510.580065,93.5637761 510.306906,93.490647 510.057406,93.4583841 C509.807907,93.4196687 509.622933,93.4024619 509.504636,93.4024619 Z"/>
</svg>
