<?xml version="1.0" encoding="utf-8"?>
<svg width="114px" height="64px" viewBox="0 0 114 64" version="1.1" xmlns:xlink="http://www.w3.org/1999/xlink" xmlns="http://www.w3.org/2000/svg">
  <desc>Created with Lunacy</desc>
  <defs>
    <path d="M0 63.813L113.461 63.813L113.461 0L0 0L0 63.813Z" id="path_1" />
    <clipPath id="mask_1">
      <use xlink:href="#path_1" />
    </clipPath>
  </defs>
  <g id="Group-52">
    <path d="M1.20992 0C0.843799 0 0.516648 0.105117 0.228827 0.307844L0.366123 0.78838C0.641073 0.623196 0.909229 0.540603 1.17739 0.540603C1.72013 0.540603 1.84456 0.885989 1.84456 1.60644C1.66793 1.46413 1.42588 1.38905 1.11196 1.38905C0.458011 1.38905 0 1.79415 0 2.46239C0 3.1006 0.359687 3.5057 0.902436 3.5057C1.30145 3.5057 1.61573 3.34087 1.84456 3.01801L1.84456 3.4535L2.3419 3.4535L2.3419 1.38154C2.3419 0.458011 2.02118 0 1.20992 0ZM1.84456 2.10199L1.84456 2.52997C1.6286 2.82279 1.38011 2.96545 1.08585 2.96545C0.752268 2.96545 0.555978 2.76273 0.555978 2.43236C0.555978 2.07196 0.837363 1.87674 1.18382 1.87674C1.43911 1.87674 1.6615 1.95182 1.84456 2.10199Z" transform="translate(13.73608 58.85829)" id="Fill-1" fill="#440415" fill-rule="evenodd" stroke="none" />
    <path d="M2.28934 3.37806L2.28934 0.600313L1.25569 0.600313L1.22315 1.17095C1.08585 3.09274 0.653944 3.42311 0.0393296 3.42311L0 2.83745C0.215955 2.85998 0.641073 2.6122 0.712939 1.05082L0.76514 0L2.81278 0L2.81278 3.37806L2.28934 3.37806Z" transform="translate(16.67896 58.93356)" id="Fill-3" fill="#440415" stroke="none" />
    <path d="M0.523084 3.37806L0 3.37806L0 0L0.523084 0L0.523084 3.37806ZM1.28858 1.61394L2.57716 0L1.89032 0L0.647508 1.65149L1.97542 3.37806L2.70159 3.37806L1.28858 1.61394Z" transform="translate(20.43311 58.93346)" id="Fill-5" fill="#440415" fill-rule="evenodd" stroke="none" />
    <path d="M0.431911 0.503061C0.144089 0.83343 0 1.2539 0 1.76411C0 2.27468 0.144089 2.69515 0.431911 3.03303Q0.873296 3.52858 1.56997 3.52858C2.03441 3.52858 2.41377 3.3634 2.70159 3.03303C2.99584 2.69515 3.13993 2.27468 3.13993 1.76411C3.13993 1.2539 2.99584 0.83343 2.70159 0.503061C2.41377 0.165184 2.03441 0 1.56997 0C1.10552 0 0.726168 0.165184 0.431911 0.503061ZM1.56997 2.96545C1.27571 2.96545 1.02686 2.85283 0.837363 2.62758C0.647508 2.40232 0.555978 2.11701 0.555978 1.76411C0.555978 1.41158 0.654302 1.11875 0.843799 0.901006Q1.12858 0.563128 1.56997 0.563128Q2.01135 0.563128 2.29613 0.901006C2.48563 1.12626 2.58396 1.41158 2.58396 1.76411C2.58396 2.47741 2.16527 2.96545 1.56997 2.96545Z" transform="translate(23.33716 58.85826)" id="Fill-7" fill="#440415" fill-rule="evenodd" stroke="none" />
    <path d="M0 3.37806L0 0L1.86422 0L1.86422 0.562771L0.523084 0.562771L0.523084 3.37806L0 3.37806Z" transform="translate(27.22827 58.93356)" id="Fill-9" fill="#440415" stroke="none" />
    <path d="M0.431911 0.503061C0.144089 0.83343 0 1.2539 0 1.76411C0 2.27468 0.144089 2.69515 0.431911 3.03303Q0.873296 3.52858 1.56997 3.52858C2.03441 3.52858 2.41377 3.3634 2.70159 3.03303C2.99584 2.69515 3.13993 2.27468 3.13993 1.76411C3.13993 1.2539 2.99584 0.83343 2.70159 0.503061C2.41377 0.165184 2.03441 0 1.56997 0C1.10552 0 0.726168 0.165184 0.431911 0.503061ZM1.56997 2.96545C1.27571 2.96545 1.02686 2.85283 0.837363 2.62758C0.647508 2.40232 0.555978 2.11701 0.555978 1.76411C0.555978 1.41158 0.654302 1.11875 0.843799 0.901006Q1.12858 0.563128 1.56997 0.563128Q2.01135 0.563128 2.29613 0.901006C2.48563 1.12626 2.58396 1.41158 2.58396 1.76411C2.58396 2.47741 2.16527 2.96545 1.56997 2.96545Z" transform="translate(29.30151 58.85826)" id="Fill-11" fill="#440415" fill-rule="evenodd" stroke="none" />
    <path d="M2.28934 3.37806L2.28934 0.600313L1.25569 0.600313L1.22315 1.17095C1.08585 3.09274 0.653944 3.42311 0.0393296 3.42311L0 2.83745C0.215955 2.85998 0.641073 2.6122 0.712939 1.05082L0.76514 0L2.81278 0L2.81278 3.37806L2.28934 3.37806Z" transform="translate(32.80078 58.93356)" id="Fill-13" fill="#440415" stroke="none" />
    <path d="M0 0L0 3.37806L0.993966 3.37806C1.41908 3.37806 1.73336 3.26543 1.92965 3.03267C2.12559 2.79991 2.22391 2.51495 2.22391 2.17707C2.22391 1.49381 1.89676 1.01327 1.0594 1.01327L0.523084 1.01327L0.523084 0L0 0ZM0.523084 2.81493L0.523084 1.5764L0.96143 1.5764C1.43231 1.5764 1.66793 1.78664 1.66793 2.1996C1.66793 2.6122 1.43231 2.81493 0.954994 2.81493L0.523084 2.81493Z" transform="translate(36.55493 58.93353)" id="Fill-15" fill="#440415" fill-rule="evenodd" stroke="none" />
    <path d="M2.15848 3.37806L2.15848 1.95182L0.523084 1.95182L0.523084 3.37806L0 3.37806L0 0L0.523084 0L0.523084 1.38869L2.15848 1.38869L2.15848 0L2.68192 0L2.68192 3.37806L2.15848 3.37806Z" transform="translate(39.47827 58.93356)" id="Fill-17" fill="#440415" stroke="none" />
    <path d="M0 63.813L113.461 63.813L113.461 0L0 0L0 63.813Z" id="Clip-20" fill="none" stroke="none" />
    <g clip-path="url(#mask_1)">
      <path d="M0 0L0 3.37806L0.948559 3.37806C1.37368 3.37806 1.6876 3.26543 1.8771 3.03267C2.07339 2.79991 2.17171 2.51459 2.17171 2.17672C2.17171 1.49381 1.84456 1.01327 1.0072 1.01327L0.523084 1.01327L0.523084 0L0 0ZM3.25721 3.37806L2.73412 3.37806L2.73412 0L3.25721 0L3.25721 3.37806ZM0.523084 1.5764L0.523084 2.81493L0.902436 2.81493C1.40621 2.81493 1.61573 2.6122 1.61573 2.19924C1.61573 1.78664 1.38011 1.5764 0.909229 1.5764L0.523084 1.5764Z" transform="translate(43.10815 58.93363)" id="Fill-19" fill="#440415" fill-rule="evenodd" stroke="none" />
      <path d="M1.41301 0.593162C1.10552 0.593162 0.93533 0.397944 0.909229 0L0.418682 0C0.418682 0.623196 0.784804 1.05082 1.41301 1.05082C1.98865 1.05082 2.38087 0.60067 2.38087 0L1.89032 0C1.86422 0.397944 1.70726 0.593162 1.41301 0.593162ZM0 5.10463L0.523441 5.10463L2.22427 2.59003L2.22427 5.10463L2.74735 5.10463L2.74735 1.72657L2.22427 1.72657L0.523441 4.24152L0.523441 1.72657L0 1.72657L0 5.10463Z" transform="translate(47.30688 57.20685)" id="Fill-21" fill="#440415" fill-rule="evenodd" stroke="none" />
      <path d="M0.431553 0.503061C0.144089 0.83343 0 1.2539 0 1.76411C0 2.27468 0.144089 2.69515 0.431553 3.03303C0.72581 3.3634 1.10552 3.52858 1.56997 3.52858C2.03441 3.52858 2.41377 3.3634 2.70159 3.03303C2.99584 2.69515 3.13958 2.27468 3.13958 1.76411C3.13958 1.2539 2.99584 0.83343 2.70159 0.503061C2.41377 0.165184 2.03441 0 1.56997 0C1.10552 0 0.72581 0.165184 0.431553 0.503061ZM1.56997 2.96545C1.27571 2.96545 1.02686 2.85283 0.837363 2.62758C0.647866 2.40232 0.555978 2.11701 0.555978 1.76411C0.555978 1.41158 0.653944 1.11875 0.844156 0.901006C1.03365 0.675754 1.27571 0.563128 1.56997 0.563128Q2.01135 0.563128 2.29613 0.901006C2.48563 1.12626 2.58396 1.41158 2.58396 1.76411C2.58396 2.47741 2.16527 2.96545 1.56997 2.96545Z" transform="translate(52.2771 58.85826)" id="Fill-22" fill="#440415" fill-rule="evenodd" stroke="none" />
      <path d="M2.15848 3.37806L2.15848 1.95182L0.523442 1.95182L0.523442 3.37806L0 3.37806L0 0L0.523442 0L0.523442 1.38869L2.15848 1.38869L2.15848 0L2.68192 0L2.68192 3.37806L2.15848 3.37806Z" transform="translate(56.1687 58.93356)" id="Fill-23" fill="#440415" stroke="none" />
      <path d="M2.28934 3.37806L2.28934 0.600313L1.25569 0.600313L1.22315 1.17095C1.08585 3.09274 0.653944 3.42311 0.0389721 3.42311L0 2.83745C0.215598 2.85998 0.641073 2.6122 0.712939 1.05082L0.76514 0L2.81278 0L2.81278 3.37806L2.28934 3.37806Z" transform="translate(59.52393 58.93356)" id="Fill-24" fill="#440415" stroke="none" />
      <path d="M1.21028 0C0.843799 0 0.516648 0.105117 0.228827 0.307844L0.36648 0.78838C0.641073 0.623196 0.909229 0.540603 1.17774 0.540603C1.72049 0.540603 1.84456 0.885989 1.84456 1.60644C1.66829 1.46413 1.42588 1.38905 1.11196 1.38905C0.458011 1.38905 0 1.79415 0 2.46239C0 3.1006 0.360045 3.5057 0.902793 3.5057C1.30181 3.5057 1.61573 3.34087 1.84456 3.01801L1.84456 3.4535L2.3419 3.4535L2.3419 1.38154C2.3419 0.458011 2.02118 0 1.21028 0ZM1.84456 2.10199L1.84456 2.52997C1.6286 2.82279 1.38011 2.96545 1.08585 2.96545C0.752268 2.96545 0.555978 2.76273 0.555978 2.43236C0.555978 2.07196 0.837363 1.87674 1.18382 1.87674C1.43911 1.87674 1.6615 1.95182 1.84456 2.10199Z" transform="translate(63.0686 58.85829)" id="Fill-25" fill="#440415" fill-rule="evenodd" stroke="none" />
      <path d="M1.41265 0.593162C1.10552 0.593162 0.93533 0.397944 0.909229 0L0.418682 0C0.418682 0.623196 0.784804 1.05082 1.41265 1.05082C1.98865 1.05082 2.38087 0.60067 2.38087 0L1.89032 0C1.86422 0.397944 1.70726 0.593162 1.41265 0.593162ZM0 5.10463L0.523441 5.10463L2.22427 2.59003L2.22427 5.10463L2.74735 5.10463L2.74735 1.72657L2.22427 1.72657L0.523441 4.24152L0.523441 1.72657L0 1.72657L0 5.10463Z" transform="translate(66.28638 57.20685)" id="Fill-26" fill="#440415" fill-rule="evenodd" stroke="none" />
      <path d="M2.15848 3.37806L2.15848 1.95182L0.523442 1.95182L0.523442 3.37806L0 3.37806L0 0L0.523442 0L0.523442 1.38869L2.15848 1.38869L2.15848 0L2.68192 0L2.68192 3.37806L2.15848 3.37806Z" transform="translate(69.98145 58.93356)" id="Fill-27" fill="#440415" stroke="none" />
      <path d="M0 3.37806L0 0L1.86423 0L1.86423 0.562771L0.523442 0.562771L0.523442 3.37806L0 3.37806Z" transform="translate(75.08276 58.93356)" id="Fill-28" fill="#440415" stroke="none" />
      <path d="M0.523441 3.37806L0 3.37806L0 0L0.523441 0L0.523441 2.51459L2.22427 0L2.74735 0L2.74735 3.37806L2.22427 3.37806L2.22427 0.863106L0.523441 3.37806Z" transform="translate(77.45044 58.93356)" id="Fill-29" fill="#440415" stroke="none" />
      <path d="M2.12594 3.37806L2.12594 0.562771L0.523441 0.562771L0.523441 3.37806L0 3.37806L0 0L2.64902 0L2.64902 3.37806L2.12594 3.37806Z" transform="translate(81.14575 58.93356)" id="Fill-30" fill="#440415" stroke="none" />
      <path d="M1.5764 3.52822C2.02762 3.52822 2.40054 3.37806 2.68192 3.08523L2.51853 2.6122C2.30257 2.84496 2.00188 2.9651 1.61573 2.9651C1.03365 2.9651 0.634637 2.58217 0.588871 1.95182L2.85211 1.95182C2.87178 1.8392 2.88501 1.70404 2.88501 1.54637C2.88501 1.08836 2.75379 0.720447 2.49242 0.435486C2.2307 0.142659 1.90391 0 1.51741 0C1.04653 0 0.673609 0.165184 0.405452 0.502704C0.137296 0.833073 0 1.25354 0 1.76411C0 2.29721 0.144089 2.72483 0.431553 3.04769C0.719732 3.37055 1.09908 3.52822 1.5764 3.52822ZM2.3419 1.46378L0.555978 1.46378C0.614972 0.930682 0.968223 0.562771 1.49131 0.562771C1.99508 0.562771 2.3158 0.900648 2.3419 1.46378Z" transform="translate(84.54639 58.85847)" id="Fill-31" fill="#440415" fill-rule="evenodd" stroke="none" />
      <path d="M0 0.0747263L0 4.95446L0.523441 4.95446L0.523441 3.29546C0.72581 3.45314 1.00755 3.52822 1.35401 3.52822C1.80559 3.52822 2.17815 3.35553 2.45953 3.01015C2.74092 2.66476 2.88465 2.22927 2.88465 1.71155C2.88465 1.20849 2.76058 0.795531 2.51209 0.480179C2.27003 0.157318 1.93609 0 1.5242 0C1.12518 0 0.732603 0.19486 0.523441 0.47267L0.523441 0.0747263L0 0.0747263ZM0.523441 2.7023L0.523441 1.02829C0.739397 0.720447 1.02686 0.562771 1.37368 0.562771C1.96898 0.562771 2.32867 1.0358 2.32867 1.73408C2.32867 2.45453 1.93001 2.9651 1.30825 2.9651C1.01399 2.9651 0.752268 2.87499 0.523441 2.7023Z" transform="translate(88.14355 58.85855)" id="Fill-32" fill="#440415" fill-rule="evenodd" stroke="none" />
      <path d="M0 3.37806L0 0L0.477319 0L1.6093 1.67401L2.68192 0L3.14637 0L3.14637 3.37806L2.62293 3.37806L2.62293 0.915665L1.6025 2.48456L1.5832 2.48456L0.523442 0.915665L0.523442 3.37806L0 3.37806Z" transform="translate(91.77979 58.93356)" id="Fill-33" fill="#440415" stroke="none" />
      <path d="M1.21028 0C0.843799 0 0.516648 0.105117 0.228827 0.307844L0.366123 0.78838C0.641073 0.623196 0.909229 0.540603 1.17774 0.540603C1.72049 0.540603 1.84456 0.885989 1.84456 1.60644C1.66829 1.46413 1.42588 1.38905 1.11196 1.38905C0.458011 1.38905 0 1.79415 0 2.46239C0 3.1006 0.360045 3.5057 0.902793 3.5057C1.30181 3.5057 1.61573 3.34087 1.84456 3.01801L1.84456 3.4535L2.3419 3.4535L2.3419 1.38154C2.3419 0.458011 2.02118 0 1.21028 0ZM1.84456 2.10199L1.84456 2.52997C1.6286 2.82279 1.38011 2.96545 1.08585 2.96545C0.752268 2.96545 0.555978 2.76273 0.555978 2.43236C0.555978 2.07196 0.837363 1.87674 1.18382 1.87674C1.43911 1.87674 1.6615 1.95182 1.84456 2.10199Z" transform="translate(95.66455 58.85829)" id="Fill-34" fill="#440415" fill-rule="evenodd" stroke="none" />
      <path d="M0 0.0747263L0 4.95446L0.523441 4.95446L0.523441 3.29546C0.72581 3.45314 1.00755 3.52822 1.35401 3.52822C1.80559 3.52822 2.17815 3.35553 2.45953 3.01015C2.74092 2.66476 2.88465 2.22927 2.88465 1.71155C2.88465 1.20849 2.76058 0.795531 2.51209 0.480179C2.27003 0.157318 1.93609 0 1.5242 0C1.12518 0 0.732603 0.19486 0.523441 0.47267L0.523441 0.0747263L0 0.0747263ZM0.523441 2.7023L0.523441 1.02829C0.739397 0.720447 1.02686 0.562771 1.37368 0.562771C1.96898 0.562771 2.32867 1.0358 2.32867 1.73408C2.32867 2.45453 1.93001 2.9651 1.30825 2.9651C1.01399 2.9651 0.752268 2.87499 0.523441 2.7023Z" transform="translate(98.88232 58.85855)" id="Fill-35" fill="#440415" fill-rule="evenodd" stroke="none" />
      <path d="M0.523441 3.37806L0 3.37806L0 0L0.523441 0L0.523441 3.37806ZM1.28858 1.61394L2.57716 0L1.89032 0L0.647866 1.65149L1.97542 3.37806L2.70159 3.37806L1.28858 1.61394Z" transform="translate(102.5188 58.93346)" id="Fill-36" fill="#440415" fill-rule="evenodd" stroke="none" />
      <path d="M1.5764 3.52822C2.02798 3.52822 2.40054 3.37806 2.68192 3.08523L2.51853 2.6122C2.30257 2.84496 2.00188 2.9651 1.61573 2.9651C1.03365 2.9651 0.634637 2.58217 0.588871 1.95182L2.85211 1.95182C2.87178 1.8392 2.88501 1.70404 2.88501 1.54637C2.88501 1.08836 2.75379 0.720447 2.49242 0.435486C2.2307 0.142659 1.90391 0 1.51741 0C1.04653 0 0.673609 0.165184 0.405452 0.502704C0.137296 0.833073 0 1.25354 0 1.76411C0 2.29721 0.144089 2.72483 0.431553 3.04769C0.719732 3.37055 1.09908 3.52822 1.5764 3.52822ZM2.3419 1.46378L0.555978 1.46378C0.614972 0.930682 0.968223 0.562771 1.49131 0.562771C1.99508 0.562771 2.3158 0.900648 2.3419 1.46378Z" transform="translate(105.4224 58.85847)" id="Fill-37" fill="#440415" fill-rule="evenodd" stroke="none" />
      <path d="M0 0.600671L0 0L2.68192 0L2.68192 0.600671L1.6025 0.600671L1.6025 3.37841L1.07942 3.37841L1.07942 0.600671L0 0.600671Z" transform="translate(108.5879 58.93335)" id="Fill-38" fill="#440415" stroke="none" />
      <path d="M19.5089 1.21028L1.16201 18.8303L0 17.62L18.3469 0L19.5089 1.21028Z" transform="translate(61.66357 -0.0001068115)" id="Fill-39" fill="#440415" stroke="none" />
      <path d="M1.73122 3.15245L3.43026 0L0 0L1.73122 3.15245Z" transform="translate(52.65625 32.57275)" id="Fill-40" fill="#FF0000" stroke="none" />
      <path d="M1.84277 3.35517L5.73032 3.35517L7.5377 0L0 0L1.84277 3.35517Z" transform="translate(50.58252 28.7981)" id="Fill-41" fill="#FF7F00" stroke="none" />
      <path d="M1.84277 3.35517L9.76089 3.35517L11.5686 0L0 0L1.84277 3.35517Z" transform="translate(48.54785 25.09347)" id="Fill-42" fill="#00A33D" stroke="none" />
      <path d="M1.84277 3.35517L13.8683 3.35517L15.6761 0L0 0L1.84277 3.35517Z" transform="translate(46.47461 21.3194)" id="Fill-43" fill="#00A0C6" stroke="none" />
      <path d="M19.8597 0L0 0L1.84313 3.35446L18.0516 3.35446L19.8597 0Z" transform="translate(44.3623 17.47554)" id="Fill-44" fill="#5D10D2" stroke="none" />
      <path d="M19.5904 22.2109C19.5904 22.2109 17.7995 25.8607 17.7995 27.958C17.7995 35.3205 19.5904 35.4671 19.5904 35.4671L12.2047 35.4671C12.2047 35.4671 14.1651 35.3205 14.1651 27.958C14.1651 25.3022 12.2047 22.1133 12.2047 22.1133L0 0.085095L3.82069 0L15.9961 22.164L27.8643 0.140156L31.4079 0.085095L19.5904 22.2109Z" transform="translate(38.26563 15.9375)" id="Fill-45" fill="#000000" stroke="none" />
      <path d="M0 0.817699L18.3541 0.817699L18.3541 0L0 0L0 0.817699Z" transform="translate(44.7522 51.40488)" id="Fill-46" fill="#000000" stroke="none" />
      <path d="M15.5688 13.1214C17.0937 13.1214 18.3294 14.3571 18.3294 15.8813L18.2232 17.0873C17.57 19.4617 15.311 22.065 9.99187 22.065C4.47392 22.065 0 17.0719 0 10.9125C0 4.75423 4.47392 0 9.99187 0C9.99187 0 13.8994 0.0243129 16.0114 1.78342C18.4438 4.21649 18.333 7.85019 16.7769 9.40621C14.4375 11.7456 11.2454 10.4602 7.95924 13.0428C6.89412 13.8794 6.02923 15.4783 6.02923 15.4783C6.48581 18.8535 7.48979 20.9645 9.92465 21.3331C13.9102 21.9366 15.9281 20.4135 17.2775 18.2046C17.3533 18.0807 17.3317 18.0936 17.2184 18.1617C16.9507 18.3226 16.1707 18.7912 14.9535 18.4874C13.2212 18.0548 12.8082 17.0848 12.8082 15.8813C12.8082 14.3571 14.0439 13.1214 15.5688 13.1214ZM9.66114 0.327508C7.21591 0.327508 5.49613 4.34342 5.49613 10.9268C5.49613 12.4085 5.61448 14.0696 5.82936 15.2549C5.82936 15.2549 6.01493 13.6459 9.99258 11.3241C11.3788 10.5149 12.3109 9.42552 12.4718 8.8202C13.4339 5.19902 13.0378 0.327508 9.66114 0.327508Z" transform="translate(24.08423 30.27357)" id="Fill-47" fill="#000000" fill-rule="evenodd" stroke="none" />
      <path d="M7.54986 3.38199C9.2303 1.3011 11.5397 0 13.8887 0C18.4181 0 22.09 4.82753 22.09 10.782C22.09 16.7376 18.4181 21.5644 13.8887 21.5644C11.5397 21.5644 9.2303 20.264 7.54986 18.1828L7.54986 26.8239L9.29573 26.8242L9.29573 27.6398L7.54986 27.6351L2.30615 27.6351L0.178413 27.6323L0.145162 26.8464L2.30615 26.8282L2.30615 1.51705L0.0110838 1.52813L0 0.632134L2.30615 0.640715L7.54986 0.640715L7.54986 3.38199ZM7.54985 17.2185C8.7133 19.1085 10.2736 20.293 11.6766 20.293C14.3424 20.293 16.5034 16.0211 16.5034 10.7513C16.5034 5.48112 14.3424 1.20921 11.6766 1.20921C10.2736 1.20921 8.7133 2.39374 7.54985 4.28371L7.54985 17.2185Z" transform="translate(0 30.64935)" id="Fill-48" fill="#000000" fill-rule="evenodd" stroke="none" />
      <path d="M7.50481 5.31189C9.36724 -0.453471 13.4936 0.00883056 13.4936 0.00883056C18.5886 0.00883056 18.1714 5.09665 18.1714 5.09665C18.1714 6.54219 17 7.7135 15.5545 7.7135C14.1093 7.7135 12.9377 6.54219 12.9377 5.09665C12.9377 3.65147 14.1093 2.48016 15.5545 2.48016C16.0372 2.48016 16.4895 2.61066 16.8778 2.83877C16.8778 2.83877 17.4581 2.98751 17.241 2.4748C16.1319 -0.034432 13.2255 0.336339 13.2255 0.336339C7.71361 0.604495 7.50481 7.9341 7.50481 7.9341L7.50481 8.13862L7.50481 20.816L9.43017 20.816L9.43017 21.6934L7.50481 21.6995L2.2611 21.6995L0.312849 21.6991L0.312849 20.816L2.2611 20.816L2.2611 1.34067L0 1.34067L0 0.522618L2.2611 0.485076L7.50481 0.485076L7.50481 5.0398L7.50481 5.31189Z" transform="translate(69.7207 30.38885)" id="Fill-49" fill="#000000" stroke="none" />
      <path d="M0.407598 3.97551C0.407598 3.97551 0.174123 2.34547 2.03763 2.34547C3.90078 2.34547 3.90078 3.39379 3.90078 4.32518L3.90078 16.0851C3.90078 16.0851 3.84215 21.7242 9.4888 21.7242C13.9134 21.7242 15.9521 17.8896 15.9521 17.8896C15.9521 17.8896 16.4823 22.1805 20.0274 21.9652C24.3357 21.7042 24.394 18.1806 24.394 18.1806C24.394 18.1806 24.2628 18.152 23.9936 18.152C23.9936 18.7996 23.3171 19.6948 22.6474 19.6948C21.3088 19.6948 20.9008 18.9383 20.9008 18.2396L20.9008 0L15.6028 0L13.5912 0L13.5912 0.817698L15.6028 0.817698L15.6028 17.3665C15.6028 17.3665 14.4965 20.3356 11.7606 20.3356C9.08228 20.3356 8.5002 18.4134 8.5002 16.0851L8.5002 4.32518C8.5002 4.32518 8.44228 0.0461229 4.22114 0.0461229C0 0.0461229 0 3.97551 0 3.97551L0.407598 3.97551Z" transform="translate(89.06689 30.71896)" id="Fill-50" fill="#000000" stroke="none" />
      <path d="M5.55334 2.77667C5.55334 4.31053 4.30981 5.5537 2.77631 5.5537C1.24282 5.5537 0 4.31053 0 2.77667C0 1.24317 1.24282 0 2.77631 0C4.30981 0 5.55334 1.24317 5.55334 2.77667" transform="translate(63.62988 46.96878)" id="Fill-51" fill="#000000" stroke="none" />
    </g>
  </g>
</svg>