<?xml version="1.0" encoding="utf-8"?>
<svg width="426px" height="240px" viewBox="0 0 426 240" version="1.1" xmlns:xlink="http://www.w3.org/1999/xlink" xmlns="http://www.w3.org/2000/svg">
  <desc>Created with Lunacy</desc>
  <g id="Group-52">
    <path d="M304.396 4.53855L240.776 65.6387L234.052 78.1129L173.27 78.1129L166.359 65.5337L231.802 65.5337L300.039 0L304.396 4.53855ZM210.244 164.608C210.244 156.743 216.96 143.057 216.96 143.057L261.276 60.0851L247.987 60.2916L203.481 142.881L157.824 59.766L143.496 60.0851L189.264 142.691C189.264 142.691 196.615 154.649 196.615 164.608C196.615 192.218 189.264 192.768 189.264 192.768L216.96 192.768C216.96 192.768 210.244 192.218 210.244 164.608ZM226.286 92.5301L181.19 92.5301L174.28 79.9482L233.065 79.9482L226.286 92.5301ZM188.965 106.683L218.658 106.683L225.437 94.1009L182.054 94.1009L188.965 106.683ZM211.173 120.575L196.595 120.575L189.684 107.993L217.951 107.993L211.173 120.575ZM159.051 173.081C159.051 167.365 154.417 162.732 148.698 162.732C142.98 162.732 138.346 167.365 138.346 173.081C138.346 177.594 139.895 181.232 146.391 182.854C150.956 183.993 153.88 182.236 154.885 181.633C155.309 181.377 155.39 181.329 155.106 181.794C150.046 190.077 142.479 195.789 127.533 193.525C118.402 192.143 114.637 184.227 112.925 171.57C112.925 171.57 116.168 165.574 120.163 162.437C132.486 152.752 144.456 157.572 153.229 148.8C159.064 142.965 159.48 129.338 150.358 120.214C142.438 113.617 127.785 113.526 127.785 113.526C107.093 113.526 90.3154 131.355 90.3154 154.448C90.3154 177.546 107.093 196.27 127.785 196.27C147.732 196.27 156.203 186.508 158.652 177.604L159.051 173.081ZM312.053 113.992C312.053 113.992 296.58 112.258 289.595 133.878L289.595 115.778L269.931 115.778L261.452 115.918L261.452 118.986L269.931 118.986L269.931 192.019L262.626 192.019L262.626 195.33L269.931 195.332L289.595 195.332L296.816 195.309L296.816 192.019L289.595 192.019L289.595 143.711C289.595 143.711 290.378 116.225 311.048 115.22C311.048 115.22 321.947 113.829 326.106 123.239C326.92 125.162 324.744 124.604 324.744 124.604C323.288 123.749 321.592 123.259 319.782 123.259C314.362 123.259 309.969 127.652 309.969 133.071C309.969 138.492 314.362 142.884 319.782 142.884C325.203 142.884 329.595 138.492 329.595 133.071C329.595 133.071 331.16 113.992 312.053 113.992ZM110.926 154.502C110.926 129.814 117.375 114.754 126.545 114.754C139.207 114.754 140.693 133.023 137.085 146.602C136.481 148.872 132.986 152.957 127.788 155.992C112.871 164.699 112.176 170.732 112.176 170.732C111.37 166.287 110.926 160.058 110.926 154.502ZM28.312 127.618C34.6136 119.815 43.2737 114.935 52.0827 114.935C69.0677 114.935 82.8375 133.039 82.8375 155.368C82.8375 177.701 69.0677 195.802 52.0827 195.802C43.2737 195.802 34.6136 190.926 28.312 183.121L28.312 215.525L34.859 215.526L34.859 218.585L28.312 218.567L8.64804 218.567L0.66905 218.556L0.544358 215.609L8.64804 215.541L8.64804 120.624L0.0415642 120.666L0 117.306L8.64804 117.338L28.312 117.338L28.312 127.618ZM335.529 130.105C335.529 130.105 334.654 123.992 341.642 123.992C348.629 123.992 348.629 127.923 348.629 131.416L348.629 175.516C348.629 175.516 348.409 196.662 369.584 196.662C386.176 196.662 393.821 182.283 393.821 182.283C393.821 182.283 395.809 198.373 409.103 197.566C425.26 196.587 425.478 183.374 425.478 183.374C425.478 183.374 424.986 183.267 423.977 183.267C423.977 185.695 421.44 189.052 418.929 189.052C413.909 189.052 412.379 186.215 412.379 183.595L412.379 115.197L384.968 115.197L384.968 118.263L392.511 118.263L392.511 180.321C392.511 180.321 388.363 191.455 378.103 191.455C368.059 191.455 365.876 184.247 365.876 175.516L365.876 131.416C365.876 131.416 365.659 115.369 349.83 115.369C334.001 115.369 334.001 130.105 334.001 130.105L335.529 130.105ZM28.312 179.505C32.6749 186.592 38.526 191.034 43.7873 191.034C53.7841 191.034 61.8878 175.015 61.8878 155.253C61.8878 135.49 53.7841 119.47 43.7873 119.47C38.526 119.47 32.6749 123.912 28.312 130.999L28.312 179.505ZM203.953 133.97L210.324 122.148L197.461 122.148L203.953 133.97ZM249.023 196.96C254.774 196.96 259.437 192.298 259.437 186.546C259.437 180.795 254.774 176.133 249.023 176.133C243.273 176.133 238.612 180.795 238.612 186.546C238.612 192.298 243.273 196.96 249.023 196.96ZM167.82 195.835L236.648 195.835L236.648 192.769L167.82 192.769L167.82 195.835ZM180.81 214.526C180.908 216.018 181.546 216.75 182.699 216.75C183.803 216.75 184.391 216.018 184.489 214.526L186.329 214.526C186.329 216.779 184.858 218.467 182.699 218.467C180.344 218.467 178.971 216.863 178.971 214.526L180.81 214.526ZM253.871 216.75C252.719 216.75 252.081 216.018 251.983 214.526L250.144 214.526C250.144 216.863 251.517 218.467 253.871 218.467C256.031 218.467 257.502 216.779 257.502 214.526L255.662 214.526C255.564 216.018 254.976 216.75 253.871 216.75ZM89.1333 222.605C88.054 223.844 87.5137 225.421 87.5137 227.334C87.5137 229.249 88.054 230.826 89.1333 232.093Q90.7885 233.951 93.401 233.951C95.1427 233.951 96.5653 233.332 97.6446 232.093C98.7481 230.826 99.2884 229.249 99.2884 227.334C99.2884 225.421 98.7481 223.844 97.6446 222.605C96.5653 221.338 95.1427 220.719 93.401 220.719C91.6594 220.719 90.2368 221.338 89.1333 222.605ZM111.5 222.605C110.421 223.844 109.881 225.421 109.881 227.334C109.881 229.249 110.421 230.826 111.5 232.093Q113.155 233.951 115.768 233.951C117.51 233.951 118.932 233.332 120.012 232.093C121.115 230.826 121.655 229.249 121.655 227.334C121.655 225.421 121.115 223.844 120.012 222.605C118.932 221.338 117.51 220.719 115.768 220.719C114.026 220.719 112.604 221.338 111.5 222.605ZM197.657 222.605C196.579 223.844 196.039 225.421 196.039 227.334C196.039 229.249 196.579 230.826 197.657 232.093C198.761 233.332 200.185 233.951 201.926 233.951C203.668 233.951 205.091 233.332 206.17 232.093C207.273 230.826 207.812 229.249 207.812 227.334C207.812 225.421 207.273 223.844 206.17 222.605C205.091 221.338 203.668 220.719 201.926 220.719C200.185 220.719 198.761 221.338 197.657 222.605ZM52.3681 221.873C53.4474 221.113 54.6743 220.719 56.0472 220.719C59.0895 220.719 60.2921 222.437 60.2921 225.9L60.2921 233.67L58.4271 233.67L58.4271 232.037C57.569 233.247 56.3905 233.865 54.8941 233.865C52.8588 233.865 51.51 232.346 51.51 229.953C51.51 227.447 53.2276 225.928 55.6798 225.928C56.857 225.928 57.7648 226.21 58.4271 226.743C58.4271 224.041 57.9605 222.746 55.9252 222.746C54.9196 222.746 53.914 223.056 52.883 223.675L52.3681 221.873ZM237.365 221.873C238.444 221.113 239.671 220.719 241.045 220.719C244.086 220.719 245.289 222.437 245.289 225.9L245.289 233.67L243.424 233.67L243.424 232.037C242.566 233.247 241.388 233.865 239.892 233.865C237.857 233.865 236.507 232.346 236.507 229.953C236.507 227.447 238.224 225.928 240.676 225.928C241.854 225.928 242.763 226.21 243.424 226.743C243.424 224.041 242.958 222.746 240.923 222.746C239.916 222.746 238.911 223.056 237.881 223.675L237.365 221.873ZM363.28 220.719C361.906 220.719 360.679 221.113 359.6 221.873L360.115 223.675C361.146 223.056 362.151 222.746 363.158 222.746C365.194 222.746 365.659 224.041 365.659 226.743C364.998 226.21 364.089 225.928 362.912 225.928C360.459 225.928 358.742 227.447 358.742 229.953C358.742 232.346 360.092 233.865 362.127 233.865C363.623 233.865 364.801 233.247 365.659 232.037L365.659 233.67L367.524 233.67L367.524 225.9C367.524 222.437 366.321 220.719 363.28 220.719ZM327.106 232.289C326.051 233.387 324.652 233.951 322.96 233.951C321.17 233.951 319.748 233.359 318.667 232.149C317.589 230.938 317.049 229.334 317.049 227.335C317.049 225.42 317.563 223.844 318.569 222.605C319.575 221.339 320.973 220.72 322.739 220.72C324.188 220.72 325.414 221.255 326.395 222.353C327.375 223.421 327.867 224.801 327.867 226.519C327.867 227.11 327.818 227.617 327.744 228.039L319.257 228.039C319.428 230.403 320.925 231.839 323.108 231.839C324.556 231.839 325.683 231.388 326.493 230.515L327.106 232.289ZM405.391 232.289C404.336 233.387 402.939 233.951 401.245 233.951C399.455 233.951 398.033 233.359 396.952 232.149C395.874 230.938 395.334 229.334 395.334 227.335C395.334 225.42 395.849 223.844 396.854 222.605C397.86 221.339 399.258 220.72 401.024 220.72C402.473 220.72 403.699 221.255 404.68 222.353C405.66 223.421 406.153 224.801 406.153 226.519C406.153 227.11 406.103 227.617 406.029 228.039L397.542 228.039C397.714 230.403 399.21 231.839 401.393 231.839C402.841 231.839 403.968 231.388 404.778 230.515L405.391 232.289ZM330.538 221L330.538 239.299L332.5 239.299L332.5 233.078C333.259 233.669 334.316 233.951 335.615 233.951C337.309 233.951 338.706 233.303 339.761 232.008C340.816 230.713 341.355 229.08 341.355 227.138C341.355 225.252 340.89 223.703 339.958 222.521C339.05 221.31 337.798 220.72 336.253 220.72C334.757 220.72 333.285 221.451 332.5 222.492L332.5 221L330.538 221ZM370.808 239.299L370.808 221L372.771 221L372.771 222.492C373.556 221.451 375.028 220.72 376.524 220.72C378.069 220.72 379.321 221.31 380.229 222.521C381.161 223.703 381.626 225.252 381.626 227.138C381.626 229.08 381.087 230.713 380.032 232.008C378.976 233.303 377.579 233.951 375.886 233.951C374.587 233.951 373.53 233.669 372.771 233.078L372.771 239.299L370.808 239.299ZM407.205 223.253L407.205 221L417.262 221L417.262 223.253L413.214 223.253L413.214 233.67L411.252 233.67L411.252 223.253L407.205 223.253ZM179.364 233.668L177.401 233.668L177.401 221.001L179.364 221.001L179.364 230.432L185.742 221.001L187.703 221.001L187.703 233.668L185.742 233.668L185.742 224.239L179.364 233.668ZM248.573 233.668L250.536 233.668L256.914 224.239L256.914 233.668L258.876 233.668L258.876 221.001L256.914 221.001L250.536 230.432L250.536 221.001L248.573 221.001L248.573 233.668ZM76.624 233.669L78.5856 233.669L78.5856 221.001L76.624 221.001L76.624 233.669ZM86.2884 221.001L81.4562 227.053L86.755 233.669L84.0318 233.669L79.0522 227.194L83.7127 221.001L86.2884 221.001ZM386.408 233.669L384.445 233.669L384.445 221.001L386.408 221.001L386.408 233.669ZM389.277 227.053L394.11 221.001L391.534 221.001L386.875 227.194L391.853 233.669L394.576 233.669L389.277 227.053ZM137.081 221.001L137.081 233.669L140.808 233.669C142.402 233.669 143.581 233.246 144.317 232.374C145.052 231.501 145.42 230.432 145.42 229.165C145.42 226.603 144.194 224.801 141.054 224.801L139.042 224.801L139.042 221.001L137.081 221.001ZM71.1312 233.669L71.1312 223.252L67.255 223.252L67.133 225.392C66.6181 232.599 64.9984 233.838 62.6936 233.838L62.5461 231.642C63.356 231.726 64.9502 230.797 65.2197 224.942L65.4154 221.001L73.0941 221.001L73.0941 233.669L71.1312 233.669ZM102.106 221.001L102.106 233.669L104.068 233.669L104.068 223.112L109.097 223.112L109.097 221.001L102.106 221.001ZM131.587 223.252L131.587 233.669L133.55 233.669L133.55 221.001L125.872 221.001L125.676 224.942C125.406 230.797 123.812 231.726 123.002 231.642L123.15 233.838C125.455 233.838 127.074 232.599 127.589 225.392L127.711 223.252L131.587 223.252ZM156.137 228.321L156.137 233.669L158.1 233.669L158.1 221.001L156.137 221.001L156.137 226.209L150.005 226.209L150.005 221.001L148.043 221.001L148.043 233.669L150.005 233.669L150.005 228.321L156.137 228.321ZM218.727 228.321L218.727 233.669L220.69 233.669L220.69 221.001L218.727 221.001L218.727 226.209L212.595 226.209L212.595 221.001L210.632 221.001L210.632 233.669L212.595 233.669L212.595 228.321L218.727 228.321ZM231.799 233.669L231.799 223.252L227.923 223.252L227.801 225.392C227.286 232.599 225.666 233.838 223.36 233.838L223.214 231.642C224.023 231.726 225.618 230.797 225.888 224.942L226.083 221.001L233.762 221.001L233.762 233.669L231.799 233.669ZM270.525 228.321L270.525 233.669L272.488 233.669L272.488 221.001L270.525 221.001L270.525 226.209L264.393 226.209L264.393 221.001L262.43 221.001L262.43 233.669L264.393 233.669L264.393 228.321L270.525 228.321ZM281.56 233.669L281.56 221.001L288.551 221.001L288.551 223.112L283.523 223.112L283.523 233.669L281.56 233.669ZM290.439 233.669L292.402 233.669L298.78 224.238L298.78 233.669L300.741 233.669L300.741 221.001L298.78 221.001L292.402 230.431L292.402 221.001L290.439 221.001L290.439 233.669ZM312.268 233.669L312.268 223.112L306.259 223.112L306.259 233.669L304.296 233.669L304.296 221.001L314.23 221.001L314.23 233.669L312.268 233.669ZM345.964 221.001L344.174 221.001L344.174 233.669L346.137 233.669L346.137 224.435L350.111 230.318L350.183 230.318L354.01 224.435L354.01 233.669L355.972 233.669L355.972 221.001L354.231 221.001L350.208 227.279L345.964 221.001ZM161.655 221.002L161.655 233.669L165.212 233.669C166.806 233.669 167.984 233.247 168.694 232.374C169.43 231.501 169.799 230.431 169.799 229.164C169.799 226.603 168.572 224.801 165.432 224.801L163.617 224.801L163.617 221.002L161.655 221.002ZM173.87 233.669L171.908 233.669L171.908 221.002L173.87 221.002L173.87 233.669ZM319.134 226.209L325.831 226.209C325.733 224.097 324.53 222.83 322.641 222.83C320.679 222.83 319.355 224.21 319.134 226.209ZM397.419 226.209L404.116 226.209C404.018 224.097 402.815 222.83 400.926 222.83C398.965 222.83 397.64 224.21 397.419 226.209ZM332.5 230.854L332.5 224.576C333.31 223.422 334.388 222.83 335.689 222.83C337.921 222.83 339.27 224.604 339.27 227.223C339.27 229.924 337.775 231.839 335.444 231.839C334.34 231.839 333.359 231.501 332.5 230.854ZM372.771 224.576L372.771 230.854C373.629 231.501 374.611 231.839 375.714 231.839C378.046 231.839 379.541 229.924 379.541 227.223C379.541 224.604 378.192 222.83 375.96 222.83C374.659 222.83 373.581 223.422 372.771 224.576ZM93.401 231.839C92.2976 231.839 91.3644 231.417 90.6538 230.572C89.9418 229.728 89.5986 228.658 89.5986 227.334C89.5986 226.012 89.9673 224.914 90.6779 224.098Q91.7458 222.831 93.401 222.831Q95.0562 222.831 96.1242 224.098C96.8348 224.942 97.2035 226.012 97.2035 227.334C97.2035 230.009 95.6334 231.839 93.401 231.839ZM115.768 231.839C114.665 231.839 113.731 231.417 113.021 230.572C112.309 229.728 111.966 228.658 111.966 227.334C111.966 226.012 112.334 224.914 113.045 224.098Q114.113 222.831 115.768 222.831Q117.423 222.831 118.491 224.098C119.202 224.942 119.57 226.012 119.57 227.334C119.57 230.009 118 231.839 115.768 231.839ZM201.926 231.839C200.823 231.839 199.89 231.417 199.179 230.572C198.469 229.728 198.124 228.658 198.124 227.334C198.124 226.012 198.491 224.914 199.205 224.098C199.915 223.253 200.823 222.831 201.926 222.831Q203.582 222.831 204.65 224.098C205.36 224.942 205.729 226.012 205.729 227.334C205.729 230.009 204.159 231.839 201.926 231.839ZM139.042 231.557L139.042 226.913L140.686 226.913C142.452 226.913 143.336 227.701 143.336 229.25C143.336 230.797 142.452 231.557 140.662 231.557L139.042 231.557ZM163.617 226.913L163.617 231.558L165.039 231.558C166.928 231.558 167.714 230.797 167.714 229.249C167.714 227.701 166.83 226.913 165.065 226.913L163.617 226.913ZM58.4271 230.206L58.4271 228.601C57.7406 228.038 56.9067 227.757 55.9493 227.757C54.6501 227.757 53.5949 228.489 53.5949 229.84C53.5949 231.079 54.331 231.839 55.582 231.839C56.6854 231.839 57.6173 231.305 58.4271 230.206ZM243.424 230.206L243.424 228.601C242.737 228.038 241.903 227.757 240.946 227.757C239.647 227.757 238.592 228.489 238.592 229.84C238.592 231.079 239.328 231.839 240.579 231.839C241.682 231.839 242.614 231.305 243.424 230.206ZM365.659 228.601L365.659 230.206C364.849 231.305 363.917 231.839 362.814 231.839C361.563 231.839 360.827 231.079 360.827 229.84C360.827 228.489 361.882 227.757 363.181 227.757C364.138 227.757 364.972 228.038 365.659 228.601Z" id="Combined-Shape" fill="#EDEDED" fill-rule="evenodd" stroke="none" />
  </g>
</svg>