<svg xmlns="http://www.w3.org/2000/svg" xmlns:xlink="http://www.w3.org/1999/xlink" width="151" height="56" viewBox="0 0 151 56">
  <defs>
    <polygon id="dekant-header-logo-a" points=".48 .008 38.607 .008 38.607 42.901 .48 42.901"/>
    <polygon id="dekant-header-logo-c" points="0 55.992 150.498 55.992 150.498 .596 0 .596"/>
  </defs>
  <g fill="none" fill-rule="evenodd">
    <path fill="#242424" d="M124.350383,36.1241106 L124.350383,14.8905787 L115.498213,14.8905787 L115.498213,13.0801106 L136.208085,13.0801106 L136.208085,14.8905787 L127.356511,14.8905787 L127.356511,36.1241106 L124.350383,36.1241106 Z M109.350723,13.0813021 L109.350723,30.6885362 L109.222638,30.6885362 L90.8850213,12.6887064 L90.7253617,12.6887064 L90.7253617,29.1807064 L92.2486809,31.7823234 L92.2486809,18.5085362 L92.376766,18.5085362 L110.704255,36.5184936 L110.874638,36.5184936 L110.874638,13.0813021 L109.350723,13.0813021 Z M62.2505532,13.0813021 L60.5985532,13.0813021 L48.2064681,26.0476851 L48.2064681,13.0813021 L45.2021277,13.0813021 L45.2021277,36.1253021 L48.2064681,36.1253021 L48.2064681,28.0225787 L51.9358298,24.0406213 L60.3745532,35.6373872 L61.8984681,33.0250468 L53.8541277,22.001983 L62.2505532,13.0813021 Z M40.2479149,13.0801106 L40.2479149,14.8905787 L28.3234894,14.8905787 L28.3234894,23.1541532 L38.5625532,23.1541532 L38.5625532,24.6685362 L28.3234894,24.6685362 L28.3234894,34.3136426 L40.2479149,34.3136426 L40.2479149,36.1241106 L25.3173617,36.1241106 L25.3173617,13.0801106 L40.2479149,13.0801106 Z M3.38442553,34.6758553 L7.00953191,34.6758553 C8.81106383,34.6758553 10.3421277,34.3738128 11.6057021,33.7709191 C12.8692766,33.166834 13.9070638,32.382834 14.7202553,31.4171319 C15.5328511,30.4514298 16.1250213,29.3707489 16.4991489,28.1738979 C16.8726809,26.9776426 17.0591489,25.7873447 17.0591489,24.6024085 C17.0591489,23.2858128 16.8393191,22.0174723 16.4002553,20.7997702 C15.9611915,19.5814723 15.3177872,18.5073447 14.4730213,17.5738128 C13.6270638,16.6414723 12.5779574,15.9009617 11.3262979,15.3516851 C10.0740426,14.8036 8.6347234,14.5289617 7.00953191,14.5289617 L3.38442553,14.5289617 L3.38442553,34.6758553 Z M0.378297872,36.1241106 L0.378297872,13.0801106 L7.97582979,13.0801106 C9.80357447,13.0801106 11.4770213,13.3720255 12.996766,13.9528766 C14.5159149,14.5349191 15.8205957,15.3350043 16.9108085,16.3555149 C18.0004255,17.3766213 18.8481702,18.5889617 19.4546383,19.9937277 C20.0593191,21.3978979 20.3625532,22.9122809 20.3625532,24.5362809 C20.3625532,26.2270043 20.0491915,27.7789191 19.4212766,29.1944085 C18.7933617,30.6104936 17.9348936,31.8341532 16.8446809,32.8653872 C15.7550638,33.897217 14.4831489,34.6973021 13.0295319,35.2680255 C11.5765106,35.8387489 10.024,36.1241106 8.37259574,36.1241106 L0.378297872,36.1241106 Z"/>
    <path fill="#B11739" d="M150.497379,29.0513702 C150.497379,33.1751149 147.154655,36.518434 143.030315,36.518434 C138.905974,36.518434 135.563251,33.1751149 135.563251,29.0513702 C135.563251,24.9270298 138.905974,21.5837106 143.030315,21.5837106 C147.154655,21.5837106 150.497379,24.9270298 150.497379,29.0513702"/>
    <path fill="#FEFEFE" d="M139.917072 26.5753362L139.917072 27.3658894 139.976647 27.3658894C140.0952 27.0692085 140.246519 26.8452085 140.4312 26.6938894 140.615285 26.5419745 140.846434 26.4663149 141.12286 26.4663149 141.155626 26.4663149 141.20686 26.4710809 141.275966 26.4818043 141.345072 26.4907404 141.420732 26.5109957 141.502945 26.5401872 141.585753 26.5699745 141.66737 26.6116766 141.750179 26.6641021 141.832987 26.7171234 141.903881 26.7832511 141.963455 26.8612936L141.62686 27.4749106C141.567881 27.3891234 141.473753 27.296783 141.345072 27.1978894 141.216987 27.0989957 141.076391 27.0495489 140.925072 27.0495489 140.813072 27.0495489 140.698094 27.0763574 140.578945 27.128783 140.460391 27.1818043 140.351966 27.2669957 140.253072 27.3855489 140.154179 27.5046979 140.073753 27.6572085 140.0112 27.8454638 139.948647 28.0325277 139.917072 28.2618894 139.917072 28.5317617L139.917072 31.5164426 139.077072 31.5164426 139.077072 26.5753362 139.917072 26.5753362zM143.692306 26.5753362L143.692306 29.8364426C143.692306 29.9025702 143.69886 30.0062298 143.711966 30.1474213 143.725072 30.2892085 143.769753 30.432783 143.845413 30.5775489 143.921072 30.7223149 144.036647 30.8498043 144.19154 30.957634 144.346434 31.0666553 144.562094 31.1208681 144.838519 31.1208681 145.010094 31.1208681 145.174519 31.0916766 145.332987 31.0321021 145.49086 30.9731234 145.629072 30.8819745 145.747626 30.7604426 145.866179 30.6383149 145.962094 30.4852085 146.034774 30.3011234 146.10686 30.1164426 146.1432 29.8954213 146.1432 29.6392511L146.1432 26.5753362 146.982604 26.5753362 146.982604 31.5164426 146.1432 31.5164426 146.1432 30.8938894 146.103881 30.8938894 145.945413 31.0523574C145.71486 31.2823149 145.486094 31.4389957 145.258519 31.5218043 145.030945 31.6034213 144.821838 31.6415489 144.6312 31.6349957 144.196306 31.6349957 143.858519 31.5611234 143.617838 31.412783 143.377753 31.2644426 143.201413 31.0898894 143.089413 30.8891234 142.977413 30.6877617 142.910094 30.484017 142.886264 30.2761021 142.863626 30.068783 142.852306 29.9055489 142.852306 29.7875915L142.852306 26.5753362 143.692306 26.5753362z"/>
    <g transform="translate(57.787 .588)">
      <mask id="dekant-header-logo-b" fill="#fff">
        <use xlink:href="#dekant-header-logo-a"/>
      </mask>
      <path fill="#B11739" d="M1.75202553,42.2644511 L18.4495574,15.9718553 L32.7194298,40.3860681 L1.75202553,42.2644511 Z M20.7217277,12.3961957 L24.7686213,6.00981277 L9.05406809,0.00768510638 L17.3319404,14.0851319 L0.479514894,42.9013021 L34.1831745,42.9013021 L36.0091319,42.9013021 L38.6071745,42.9013021 L20.7217277,12.3961957 Z" mask="url(#dekant-header-logo-b)"/>
    </g>
    <polygon fill="#B11739" points="75.604 22.947 67.923 34.997 82.158 34.118"/>
    <path fill="#242424" d="M3.35600851 52.145234C3.31132766 52.3924681 3.21839149 52.6111064 3.07660426 52.8023404 2.93541277 52.9929787 2.74894468 53.1425106 2.51779574 53.2509362 2.28724255 53.3599574 2.02273191 53.4141702 1.72485957 53.4141702 1.48060426 53.4141702 1.27805106 53.3736596 1.1172 53.2914468.956348936 53.209234.839582979 53.1025957.766902128 52.9721277.693625532 52.8404681.656689362 52.7010638.656689362 52.5521277.656689362 52.313234.73532766 52.1249787.892008511 51.9861702 1.04749787 51.8479574 1.24826383 51.7442979 1.49311489 51.676383 1.72188085 51.613234 1.98400851 51.5614043 2.27890213 51.5197021 2.57379574 51.478 2.93779574 51.4333191 3.36911489 51.3856596L3.41796596 51.3791064C3.41677447 51.5244681 3.41379574 51.6573191 3.40724255 51.7675319 3.40009362 51.900383 3.38281702 52.0260851 3.35600851 52.145234M3.9279234 49.8528085C3.80281702 49.543617 3.5865617 49.3047234 3.27796596 49.1379149 2.96996596 48.9717021 2.59285957 48.8877021 2.14902979 48.8877021 1.62179574 48.8877021 1.19107234 49.0062553.855668085 49.2433617.520859574 49.4798723.296859574 49.8158723.18307234 50.250766L.822902128 50.4384255C.911668085 50.1226809 1.06894468 49.8891489 1.29413617 49.7366383 1.51873191 49.5847234 1.80051915 49.5090638 2.14009362 49.5090638 2.45643404 49.5090638 2.70962553 49.5591064 2.90026383 49.6585957 3.09090213 49.7586809 3.2279234 49.9111915 3.31132766 50.1167234 3.38460426 50.2966383 3.41737021 50.5313617 3.42154043 50.803617 3.36196596 50.8101702 3.3012 50.8173191 3.23566809 50.8268511 2.73166809 50.892383 2.33430638 50.9465957 2.04179574 50.9906809 1.74988085 51.0335745 1.47881702 51.0865957 1.22860426 51.1485532.844944681 51.2468511.544093617 51.4112766.326646809 51.6400426.108604255 51.8694043.000178723404 52.1738298.000178723404 52.5521277.000178723404 52.8136596.0627319149 53.0537447.187838298 53.2711915.312944681 53.4886383.500008511 53.6614043.749029787 53.7894894.997455319 53.9175745 1.29711489 53.9813191 1.64860426 53.9813191 1.97030638 53.9813191 2.26281702 53.9330638 2.52494468 53.8365532 2.7864766 53.7394468 3.01345532 53.5958723 3.20409362 53.405234 3.31251915 53.298 3.40366809 53.1728936 3.48588085 53.0382553L3.48588085 53.8472766 4.07090213 53.8472766 4.07090213 50.8494894C4.07090213 50.6499149 4.06137021 50.4670213 4.04171064 50.299617 4.02264681 50.1328085 3.98451915 49.9838723 3.9279234 49.8528085M5.69245957 51.1038128C5.64182128 51.6614298 5.58224681 52.1451745 5.51373617 52.5562383 5.47858723 52.7558128 5.43748085 52.9101106 5.39339574 53.0185362 5.34871489 53.1269617 5.27960851 53.2044085 5.18548085 53.2508766 5.09135319 53.2973447 4.95850213 53.3038979 4.78573617 53.2711319L4.78573617 53.847217C5.08599149 53.9067915 5.32250213 53.9121532 5.49348085 53.8633021 5.66505532 53.8138553 5.7955234 53.714366 5.88428936 53.5636426 5.97424681 53.4135149 6.04692766 53.1966638 6.1035234 52.9136851 6.22326809 52.3209191 6.33467234 51.303983 6.43892766 49.8616851L6.45203404 49.6513872 8.47160851 49.6513872 8.47160851 53.847217 9.12394894 53.847217 9.12394894 49.0222809 5.84437447 49.0222809C5.79373617 49.8527489 5.74309787 50.5467915 5.69245957 51.1038128"/>
    <polygon fill="#242424" points="14.066 49.022 13.19 49.022 11.037 51.345 11.037 49.022 10.375 49.022 10.371 53.848 11.037 53.848 11.037 51.524 13.405 53.848 14.361 53.848 11.805 51.435"/>
    <path fill="#242424" d="M18.1478128,52.4401872 C18.0298553,52.7285277 17.8517277,52.9531234 17.6140255,53.112783 C17.3751319,53.2718468 17.0820255,53.3516766 16.7335149,53.3516766 C16.3909617,53.3516766 16.100834,53.2730383 15.8643234,53.1169532 C15.6278128,52.9608681 15.4490894,52.7380596 15.3287489,52.4491234 C15.207217,52.1601872 15.1470468,51.8206128 15.1470468,51.4304 C15.1470468,51.0461447 15.2054298,50.7113362 15.3216,50.424783 C15.4377702,50.1394213 15.6141106,49.9166128 15.851217,49.7569532 C16.0877277,49.5978894 16.3820255,49.5180596 16.7335149,49.5180596 C17.2518128,49.5180596 17.6461957,49.6878468 17.9172596,50.0274213 C18.1883234,50.3669957 18.3241532,50.8346553 18.3241532,51.4304 C18.3241532,51.8146553 18.2651745,52.1512511 18.1478128,52.4401872 M17.9601532,49.2094638 C17.6158128,48.9955915 17.2071319,48.8877617 16.7335149,48.8877617 C16.2718128,48.8877617 15.8678979,48.9938043 15.5229617,49.2046979 C15.1774298,49.416783 14.9117277,49.7146553 14.7276426,50.0983149 C14.542366,50.483166 14.4500255,50.9269957 14.4500255,51.4304 C14.4500255,51.9308255 14.5411745,52.3740596 14.7228766,52.7595064 C14.9045787,53.1455489 15.1673021,53.4452085 15.5110468,53.6596766 C15.8553872,53.8741447 16.2628766,53.9813787 16.7335149,53.9813787 C17.2041532,53.9813787 17.6116426,53.8747404 17.9553872,53.6620596 C18.2997277,53.448783 18.5630468,53.1503149 18.7465362,52.7660596 C18.9294298,52.3818043 19.0211745,51.936783 19.0211745,51.4304 C19.0211745,50.9299745 18.9300255,50.4885277 18.7489191,50.1054638 C18.5666213,49.7224 18.3038979,49.4245277 17.9601532,49.2094638"/>
    <polygon fill="#242424" points="20.004 53.848 20.661 53.848 20.661 49.652 23.31 49.652 23.31 49.022 20.004 49.022"/>
    <path fill="#242424" d="M27.4993957 52.4401872C27.3814383 52.7285277 27.2033106 52.9531234 26.9656085 53.112783 26.7267149 53.2718468 26.4336085 53.3516766 26.0850979 53.3516766 25.7425447 53.3516766 25.452417 53.2730383 25.2159064 53.1169532 24.9793957 52.9608681 24.8006723 52.7380596 24.6803319 52.4491234 24.5588 52.1601872 24.4986298 51.8206128 24.4986298 51.4304 24.4986298 51.0461447 24.5570128 50.7113362 24.673183 50.424783 24.7893532 50.1394213 24.9656936 49.9166128 25.2028 49.7569532 25.4393106 49.5978894 25.7336085 49.5180596 26.0850979 49.5180596 26.6033957 49.5180596 26.9977787 49.6878468 27.2688426 50.0274213 27.5399064 50.3669957 27.6757362 50.8346553 27.6757362 51.4304 27.6757362 51.8146553 27.6167574 52.1512511 27.4993957 52.4401872M27.3117362 49.2094638C26.9673957 48.9955915 26.5587149 48.8877617 26.0850979 48.8877617 25.6233957 48.8877617 25.2194809 48.9938043 24.8745447 49.2046979 24.5290128 49.416783 24.2633106 49.7146553 24.0792255 50.0983149 23.8939489 50.483166 23.8016085 50.9269957 23.8016085 51.4304 23.8016085 51.9308255 23.8927574 52.3740596 24.0744596 52.7595064 24.2561617 53.1455489 24.5188851 53.4452085 24.8626298 53.6596766 25.2069702 53.8741447 25.6144596 53.9813787 26.0850979 53.9813787 26.5557362 53.9813787 26.9632255 53.8747404 27.3069702 53.6620596 27.6513106 53.448783 27.9146298 53.1503149 28.0981191 52.7660596 28.2810128 52.3818043 28.3727574 51.936783 28.3727574 51.4304 28.3727574 50.9299745 28.2816085 50.4885277 28.1005021 50.1054638 27.9182043 49.7224 27.6554809 49.4245277 27.3117362 49.2094638M29.8154723 51.1038128C29.764834 51.6614298 29.7052596 52.1451745 29.6367489 52.5562383 29.6016 52.7558128 29.5604936 52.9101106 29.5164085 53.0185362 29.4717277 53.1269617 29.4026213 53.2044085 29.3084936 53.2508766 29.214366 53.2973447 29.0815149 53.3038979 28.9087489 53.2711319L28.9087489 53.847217C29.2090043 53.9067915 29.4455149 53.9121532 29.6164936 53.8633021 29.7880681 53.8138553 29.9185362 53.714366 30.0073021 53.5636426 30.0972596 53.4135149 30.1699404 53.1966638 30.2265362 52.9136851 30.3462809 52.3209191 30.4576851 51.303983 30.5619404 49.8616851L30.5750468 49.6513872 32.5946213 49.6513872 32.5946213 53.847217 33.2469617 53.847217 33.2469617 49.0222809 29.9673872 49.0222809C29.9167489 49.8527489 29.8661106 50.5467915 29.8154723 51.1038128M37.4362383 52.9358468C37.3182809 53.0788255 37.1687489 53.1753362 36.9870468 53.2259745 36.9006638 53.2504 36.802366 53.2658894 36.6921532 53.2730383 36.5819404 53.280783 36.456834 53.2843574 36.316834 53.2843574L35.1551319 53.2843574 35.1551319 51.4035915 36.316834 51.4035915C36.5700255 51.4035915 36.7725787 51.4196766 36.9244936 51.4530383 37.1449191 51.5001021 37.3147064 51.5954213 37.4338553 51.7384 37.5530043 51.8813787 37.6125787 52.0821447 37.6125787 52.3418894 37.6125787 52.5950809 37.5536 52.7934638 37.4362383 52.9358468M37.0585362 50.8852936C36.8857702 50.8555064 36.6284085 50.840017 36.2852596 50.840017L35.1551319 50.840017 35.1551319 49.0224 34.4944511 49.0224 34.5027915 53.8473362 36.3436426 53.8473362C36.5074723 53.8473362 36.6570043 53.8425702 36.792834 53.8342298 36.9280681 53.8252936 37.0525787 53.8092085 37.1657702 53.784783 37.3891745 53.7341447 37.5851745 53.6477617 37.7531745 53.525634 37.9211745 53.4035064 38.0534298 53.2432511 38.1487489 53.0436766 38.2440681 52.8441021 38.2923234 52.6099745 38.2923234 52.3418894 38.2923234 51.9129532 38.1821106 51.5811234 37.9634723 51.3452085 37.744834 51.1104851 37.4427915 50.956783 37.0585362 50.8852936"/>
    <polygon fill="#242424" points="42.514 51.118 39.793 51.118 39.793 49.022 39.136 49.022 39.136 53.848 39.793 53.848 39.793 51.748 42.514 51.748 42.514 53.848 43.171 53.848 43.171 49.022 42.514 49.022"/>
    <path fill="#242424" d="M47.0664511,52.9358468 C46.9473021,53.0788255 46.7965787,53.1753362 46.6148766,53.2259745 C46.5290894,53.2504 46.4313872,53.2658894 46.322366,53.2730383 C46.2133447,53.280783 46.088834,53.2843574 45.9494298,53.2843574 L45.0778553,53.2843574 L45.0778553,51.4035915 L45.9494298,51.4035915 C46.1996426,51.4035915 46.4021957,51.4196766 46.5570894,51.4530383 C46.7745362,51.5001021 46.9437277,51.5954213 47.0640681,51.7384 C47.1844085,51.8813787 47.2451745,52.0821447 47.2451745,52.3418894 C47.2451745,52.5950809 47.1850043,52.7934638 47.0664511,52.9358468 M46.6911319,50.8852936 C46.5147915,50.8555064 46.2580255,50.840017 45.9178553,50.840017 L45.0778553,50.840017 L45.0778553,49.0224 L44.4171745,49.0224 L44.4255149,53.8473362 L45.9762383,53.8473362 C46.1394723,53.8473362 46.2896,53.8425702 46.4254298,53.8342298 C46.5606638,53.8252936 46.6833872,53.8092085 46.7936,53.784783 C47.0170043,53.7341447 47.2136,53.6477617 47.3833872,53.525634 C47.5531745,53.4035064 47.6860255,53.2432511 47.7813447,53.0436766 C47.8760681,52.8441021 47.9237277,52.6099745 47.9237277,52.3418894 C47.9237277,51.5316766 47.5132596,51.0461447 46.6911319,50.8852936"/>
    <mask id="dekant-header-logo-d" fill="#fff">
      <use xlink:href="#dekant-header-logo-c"/>
    </mask>
    <polygon fill="#242424" points="48.501 53.848 49.158 53.848 49.158 49.022 48.501 49.022" mask="url(#dekant-header-logo-d)"/>
    <polygon fill="#242424" points="51.044 52.749 51.044 49.022 50.405 49.022 50.405 53.848 50.958 53.848 53.603 50.09 53.603 53.848 54.243 53.848 54.243 49.022 53.693 49.022" mask="url(#dekant-header-logo-d)"/>
    <path fill="#242424" d="M51.8318128 48.2961872C52.0093447 48.3986553 52.2017702 48.4504851 52.4108766 48.4504851 52.6187915 48.4504851 52.8124085 48.3986553 52.9887489 48.2961872 53.1662809 48.1931234 53.3068766 48.0531234 53.4087489 47.8761872 53.5118128 47.6986553 53.5630468 47.5062298 53.5630468 47.2971234L53.0179404 47.2971234C53.0179404 47.4079319 52.9911319 47.5092085 52.9375149 47.6009532 52.8844936 47.6932936 52.8106213 47.767166 52.7164936 47.8225702 52.6229617 47.8773787 52.5204936 47.9053787 52.4108766 47.9053787 52.3000681 47.9053787 52.1987915 47.8773787 52.1070468 47.8225702 52.0147064 47.767166 51.940834 47.6932936 51.8854298 47.6009532 51.8306213 47.5092085 51.8026213 47.4079319 51.8026213 47.2971234L51.2575149 47.2971234C51.2575149 47.5062298 51.3093447 47.6986553 51.4118128 47.8761872 51.5148766 48.0531234 51.6548766 48.1931234 51.8318128 48.2961872M60.7098383 52.4401872C60.5918809 52.7285277 60.4137532 52.9531234 60.1760511 53.112783 59.9371574 53.2718468 59.6440511 53.3516766 59.2955404 53.3516766 58.9529872 53.3516766 58.6628596 53.2730383 58.4263489 53.1169532 58.1898383 52.9608681 58.0111149 52.7380596 57.8907745 52.4491234 57.7692426 52.1601872 57.7090723 51.8206128 57.7090723 51.4304 57.7090723 51.0461447 57.7674553 50.7113362 57.8836255 50.424783 57.9997957 50.1394213 58.1761362 49.9166128 58.4132426 49.7569532 58.6497532 49.5978894 58.9440511 49.5180596 59.2955404 49.5180596 59.8138383 49.5180596 60.2082213 49.6878468 60.4792851 50.0274213 60.7503489 50.3669957 60.8861787 50.8346553 60.8861787 51.4304 60.8861787 51.8146553 60.8272 52.1512511 60.7098383 52.4401872M60.5221787 49.2094638C60.1778383 48.9955915 59.7691574 48.8877617 59.2955404 48.8877617 58.8338383 48.8877617 58.4299234 48.9938043 58.0849872 49.2046979 57.7394553 49.416783 57.4737532 49.7146553 57.2896681 50.0983149 57.1043915 50.483166 57.0120511 50.9269957 57.0120511 51.4304 57.0120511 51.9308255 57.1032 52.3740596 57.2849021 52.7595064 57.4666043 53.1455489 57.7293277 53.4452085 58.0730723 53.6596766 58.4174128 53.8741447 58.8249021 53.9813787 59.2955404 53.9813787 59.7661787 53.9813787 60.1736681 53.8747404 60.5174128 53.6620596 60.8617532 53.448783 61.1250723 53.1503149 61.3085617 52.7660596 61.4914553 52.3818043 61.5832 51.936783 61.5832 51.4304 61.5832 50.9299745 61.4920511 50.4885277 61.3109447 50.1054638 61.1286468 49.7224 60.8659234 49.4245277 60.5221787 49.2094638" mask="url(#dekant-header-logo-d)"/>
    <polygon fill="#242424" points="65.94 51.118 63.219 51.118 63.219 49.022 62.562 49.022 62.562 53.848 63.219 53.848 63.219 51.748 65.94 51.748 65.94 53.848 66.597 53.848 66.597 49.022 65.94 49.022" mask="url(#dekant-header-logo-d)"/>
    <path fill="#242424" d="M68.3073106 51.1038128C68.2566723 51.6614298 68.1970979 52.1451745 68.1285872 52.5562383 68.0934383 52.7558128 68.0523319 52.9101106 68.0082468 53.0185362 67.963566 53.1269617 67.8944596 53.2044085 67.8003319 53.2508766 67.7062043 53.2973447 67.5733532 53.3038979 67.4005872 53.2711319L67.4005872 53.847217C67.7008426 53.9067915 67.9373532 53.9121532 68.1083319 53.8633021 68.2799064 53.8138553 68.4103745 53.714366 68.4991404 53.5636426 68.5890979 53.4135149 68.6617787 53.1966638 68.7183745 52.9136851 68.8381191 52.3209191 68.9495234 51.303983 69.0537787 49.8616851L69.0668851 49.6513872 71.0864596 49.6513872 71.0864596 53.847217 71.7388 53.847217 71.7388 49.0222809 68.4592255 49.0222809C68.4085872 49.8527489 68.3579489 50.5467915 68.3073106 51.1038128M76.0776085 52.145234C76.0329277 52.3924681 75.9399915 52.6111064 75.7982043 52.8023404 75.6570128 52.9929787 75.4705447 53.1425106 75.2399915 53.2509362 75.0088426 53.3599574 74.7449277 53.4141702 74.4470553 53.4141702 74.2028 53.4141702 74.0002468 53.3736596 73.8388 53.2914468 73.6785447 53.209234 73.561183 53.1025957 73.4885021 52.9721277 73.4152255 52.8404681 73.3788851 52.7010638 73.3788851 52.5521277 73.3788851 52.313234 73.4575234 52.1249787 73.6136085 51.9861702 73.7696936 51.8479574 73.9704596 51.7442979 74.2147149 51.676383 74.4440766 51.613234 74.7056085 51.5614043 75.0005021 51.5197021 75.2959915 51.478 75.6593957 51.4333191 76.0907149 51.3856596L76.139566 51.3791064C76.1383745 51.5244681 76.1353957 51.6573191 76.1288426 51.7675319 76.1216936 51.900383 76.104417 52.0260851 76.0776085 52.145234M76.6495234 49.8528085C76.524417 49.543617 76.3081617 49.3047234 75.999566 49.1379149 75.691566 48.9717021 75.3150553 48.8877021 74.8712255 48.8877021 74.3439915 48.8877021 73.9126723 49.0062553 73.5778638 49.2433617 73.2424596 49.4798723 73.0184596 49.8158723 72.9052681 50.250766L73.5445021 50.4384255C73.6332681 50.1226809 73.7905447 49.8891489 74.0157362 49.7366383 74.2403319 49.5847234 74.5227149 49.5090638 74.8622894 49.5090638 75.178034 49.5090638 75.4312255 49.5591064 75.6218638 49.6585957 75.8125021 49.7586809 75.9495234 49.9111915 76.0329277 50.1167234 76.1062043 50.2966383 76.1389702 50.5313617 76.1431404 50.803617 76.083566 50.8101702 76.0228 50.8173191 75.9572681 50.8268511 75.4532681 50.892383 75.0559064 50.9465957 74.7639915 50.9906809 74.4720766 51.0335745 74.2010128 51.0865957 73.9508 51.1485532 73.5665447 51.2468511 73.2656936 51.4112766 73.0482468 51.6400426 72.8308 51.8694043 72.7217787 52.1738298 72.7217787 52.5521277 72.7217787 52.8136596 72.7849277 53.0537447 72.910034 53.2711915 73.0351404 53.4886383 73.2216085 53.6614043 73.4706298 53.7894894 73.7190553 53.9175745 74.0193106 53.9813191 74.3708 53.9813191 74.6925021 53.9813191 74.984417 53.9330638 75.2465447 53.8365532 75.5086723 53.7394468 75.7350553 53.5958723 75.9256936 53.405234 76.0341191 53.298 76.1252681 53.1728936 76.2074809 53.0382553L76.2074809 53.8472766 76.7925021 53.8472766 76.7925021 50.8494894C76.7925021 50.6499149 76.7829702 50.4670213 76.7633106 50.299617 76.7442468 50.1328085 76.7061191 49.9838723 76.6495234 49.8528085M79.3768426 48.2961872C79.5543745 48.3986553 79.7468 48.4504851 79.9559064 48.4504851 80.1638213 48.4504851 80.3574383 48.3986553 80.5337787 48.2961872 80.7113106 48.1931234 80.8519064 48.0531234 80.9537787 47.8761872 81.0568426 47.6986553 81.1080766 47.5062298 81.1080766 47.2971234L80.5629702 47.2971234C80.5629702 47.4079319 80.5361617 47.5092085 80.4825447 47.6009532 80.4295234 47.6932936 80.3556511 47.767166 80.2615234 47.8225702 80.1679915 47.8773787 80.0655234 47.9053787 79.9559064 47.9053787 79.8450979 47.9053787 79.7438213 47.8773787 79.6520766 47.8225702 79.5597362 47.767166 79.4858638 47.6932936 79.4304596 47.6009532 79.3756511 47.5092085 79.3476511 47.4079319 79.3476511 47.2971234L78.8025447 47.2971234C78.8025447 47.5062298 78.8543745 47.6986553 78.9568426 47.8761872 79.0599064 48.0531234 79.1999064 48.1931234 79.3768426 48.2961872" mask="url(#dekant-header-logo-d)"/>
    <polygon fill="#242424" points="78.589 52.749 78.589 49.022 77.95 49.022 77.95 53.848 78.503 53.848 81.148 50.09 81.148 53.848 81.788 53.848 81.788 49.022 81.238 49.022" mask="url(#dekant-header-logo-d)"/>
    <polygon fill="#242424" points="86.412 51.118 83.691 51.118 83.691 49.022 83.034 49.022 83.034 53.848 83.691 53.848 83.691 51.748 86.412 51.748 86.412 53.848 87.069 53.848 87.069 49.022 86.412 49.022" mask="url(#dekant-header-logo-d)"/>
    <polygon fill="#242424" points="88.23 51.314 90.911 51.314 90.911 50.751 88.23 50.751" mask="url(#dekant-header-logo-d)"/>
    <polygon fill="#242424" points="92.073 53.848 92.73 53.848 92.73 49.652 95.379 49.652 95.379 49.022 92.073 49.022" mask="url(#dekant-header-logo-d)"/>
    <polygon fill="#242424" points="96.863 52.749 96.863 49.022 96.224 49.022 96.224 53.848 96.778 53.848 99.423 50.09 99.423 53.848 100.062 53.848 100.062 49.022 99.512 49.022" mask="url(#dekant-header-logo-d)"/>
    <polygon fill="#242424" points="101.308 53.848 101.965 53.848 101.965 49.652 104.49 49.652 104.49 53.848 105.146 53.848 105.146 49.022 101.308 49.022" mask="url(#dekant-header-logo-d)"/>
    <path fill="#242424" d="M107.556638 49.7168596C107.796128 49.5661362 108.088043 49.4910723 108.430596 49.4910723 108.758255 49.4910723 109.034681 49.5625617 109.261064 49.7055404 109.487447 49.8485191 109.659021 50.0600085 109.775191 50.3400085 109.859191 50.5431574 109.905064 50.7945617 109.933064 51.0686043L106.855447 51.0686043C106.882255 50.8136255 106.927532 50.5759234 107.011532 50.3775404 107.135447 50.0874128 107.317149 49.8669872 107.556638 49.7168596L107.556638 49.7168596zM110.279787 51.6178809L110.633064 51.6178809C110.647362 51.0549021 110.569319 50.5681787 110.396553 50.1565191 110.223787 49.7460511 109.968213 49.4314979 109.62983 49.2140511 109.292043 48.9966043 108.885745 48.887583 108.412723 48.887583 107.950426 48.887583 107.548298 48.9918383 107.205745 49.2009447 106.863191 49.4088596 106.598681 49.7061362 106.410426 50.0921787 106.223362 50.4776255 106.129234 50.9327745 106.129234 51.4570298 106.129234 51.9634128 106.223957 52.4078383 106.412809 52.7885191 106.60166 53.1697957 106.870936 53.4640936 107.219447 53.6714128 107.567957 53.8775404 107.974255 53.9812 108.438936 53.9812 108.748723 53.9812 109.040043 53.929966 109.312298 53.8269021 109.585149 53.7250298 109.827021 53.5743064 110.036723 53.3765191 110.247021 53.1781362 110.414426 52.9386468 110.539532 52.6586468L109.927106 52.4221362C109.77817 52.725966 109.574426 52.9565191 109.314681 53.1143915 109.056128 53.2728596 108.755277 53.3520936 108.412723 53.3520936 108.078511 53.3520936 107.792553 53.276434 107.554255 53.1263064 107.316553 52.975583 107.135447 52.7575404 107.011532 52.471583 106.907872 52.2326894 106.85783 51.9407745 106.841149 51.6178809L109.962851 51.6178809 110.279787 51.6178809zM115.061055 52.429166C114.947864 52.7222723 114.777481 52.9522298 114.551694 53.1190383 114.325311 53.2858468 114.048289 53.3692511 113.72063 53.3692511 113.389396 53.3692511 113.111779 53.2870383 112.885396 53.1238043 112.658417 52.9599745 112.489226 52.7324 112.375438 52.4404851 112.262247 52.1479745 112.205651 51.8119745 112.205651 51.4301021 112.205651 51.0464426 112.261651 50.7092511 112.373055 50.4203149 112.485055 50.1319745 112.653055 49.9061872 112.878247 49.7435489 113.103438 49.5815064 113.379268 49.4998894 113.707523 49.4998894 114.040545 49.4998894 114.322332 49.5826979 114.551694 49.7483149 114.78046 49.9133362 114.951438 50.1421021 115.063438 50.4334213 115.174843 50.7259319 115.230843 51.0577617 115.230843 51.4301021 115.230843 51.8024426 115.173651 52.1354638 115.061055 52.429166M114.938332 49.2186979C114.617821 48.9982723 114.243098 48.8880596 113.814162 48.8880596 113.373311 48.8880596 112.995609 48.9964851 112.681651 49.2145277 112.492204 49.3455915 112.339694 49.5177617 112.205651 49.7095915L112.205651 49.0221021 111.61646 49.0221021 111.61646 55.9917191 112.27714 55.9917191 112.27714 53.2655915C112.392715 53.4121447 112.524374 53.5408255 112.675098 53.6486553 112.984885 53.8708681 113.356034 53.9810809 113.787353 53.9810809 114.2288 53.9810809 114.610077 53.8714638 114.933566 53.6510383 115.25646 53.4306128 115.503098 53.126783 115.672885 52.7395489 115.842672 52.3523149 115.927864 51.9162298 115.927864 51.4301021 115.927864 50.9481447 115.842672 50.5138468 115.672885 50.1278043 115.503098 49.7417617 115.258247 49.4385277 114.938332 49.2186979" mask="url(#dekant-header-logo-d)"/>
    <polygon fill="#242424" points="119.373 52.972 117.492 49.022 116.906 49.022 116.906 53.848 117.545 53.848 117.545 50.425 119.167 53.848 119.583 53.848 121.205 50.425 121.205 53.848 121.839 53.848 121.839 49.022 121.258 49.022" mask="url(#dekant-header-logo-d)"/>
    <path fill="#242424" d="M126.177174 52.145234C126.132494 52.3924681 126.039557 52.6111064 125.89777 52.8023404 125.756579 52.9929787 125.570111 53.1425106 125.339557 53.2509362 125.108409 53.3599574 124.844494 53.4141702 124.546621 53.4141702 124.302366 53.4141702 124.099813 53.3736596 123.938366 53.2914468 123.778111 53.209234 123.660749 53.1025957 123.588068 52.9721277 123.514791 52.8404681 123.478451 52.7010638 123.478451 52.5521277 123.478451 52.313234 123.557089 52.1249787 123.713174 51.9861702 123.86926 51.8479574 124.070026 51.7442979 124.314281 51.676383 124.543643 51.613234 124.805174 51.5614043 125.100068 51.5197021 125.395557 51.478 125.758962 51.4333191 126.190281 51.3856596L126.239132 51.3791064C126.23794 51.5244681 126.234962 51.6573191 126.228409 51.7675319 126.22126 51.900383 126.203983 52.0260851 126.177174 52.145234M126.749089 49.8528085C126.623983 49.543617 126.407728 49.3047234 126.099132 49.1379149 125.791132 48.9717021 125.414621 48.8877021 124.970791 48.8877021 124.443557 48.8877021 124.012238 49.0062553 123.67743 49.2433617 123.342026 49.4798723 123.118026 49.8158723 123.004834 50.250766L123.644068 50.4384255C123.732834 50.1226809 123.890111 49.8891489 124.115302 49.7366383 124.339898 49.5847234 124.622281 49.5090638 124.961855 49.5090638 125.2776 49.5090638 125.530791 49.5591064 125.72143 49.6585957 125.912068 49.7586809 126.049089 49.9111915 126.132494 50.1167234 126.20577 50.2966383 126.238536 50.5313617 126.242706 50.803617 126.183132 50.8101702 126.122366 50.8173191 126.056834 50.8268511 125.552834 50.892383 125.155472 50.9465957 124.863557 50.9906809 124.571643 51.0335745 124.300579 51.0865957 124.050366 51.1485532 123.666111 51.2468511 123.36526 51.4112766 123.147813 51.6400426 122.930366 51.8694043 122.821345 52.1738298 122.821345 52.5521277 122.821345 52.8136596 122.884494 53.0537447 123.0096 53.2711915 123.134706 53.4886383 123.321174 53.6614043 123.570196 53.7894894 123.818621 53.9175745 124.118877 53.9813191 124.470366 53.9813191 124.792068 53.9813191 125.083983 53.9330638 125.346111 53.8365532 125.608238 53.7394468 125.834621 53.5958723 126.02526 53.405234 126.133685 53.298 126.224834 53.1728936 126.307047 53.0382553L126.307047 53.8472766 126.892068 53.8472766 126.892068 50.8494894C126.892068 50.6499149 126.882536 50.4670213 126.862877 50.299617 126.843813 50.1328085 126.805685 49.9838723 126.749089 49.8528085M131.494613 52.429166C131.381421 52.7222723 131.211038 52.9522298 130.985251 53.1190383 130.758868 53.2858468 130.481847 53.3692511 130.154187 53.3692511 129.822953 53.3692511 129.545336 53.2870383 129.318953 53.1238043 129.091974 52.9599745 128.922783 52.7324 128.808996 52.4404851 128.695804 52.1479745 128.639209 51.8119745 128.639209 51.4301021 128.639209 51.0464426 128.695209 50.7092511 128.806613 50.4203149 128.918613 50.1319745 129.086613 49.9061872 129.311804 49.7435489 129.536996 49.5815064 129.812826 49.4998894 130.141081 49.4998894 130.474102 49.4998894 130.755889 49.5826979 130.985251 49.7483149 131.214017 49.9133362 131.384996 50.1421021 131.496996 50.4334213 131.6084 50.7259319 131.6644 51.0577617 131.6644 51.4301021 131.6644 51.8024426 131.607209 52.1354638 131.494613 52.429166M131.371889 49.2186979C131.051379 48.9982723 130.676655 48.8880596 130.247719 48.8880596 129.806868 48.8880596 129.429166 48.9964851 129.115209 49.2145277 128.925762 49.3455915 128.773251 49.5177617 128.639209 49.7095915L128.639209 49.0221021 128.050017 49.0221021 128.050017 55.9917191 128.710698 55.9917191 128.710698 53.2655915C128.826272 53.4121447 128.957932 53.5408255 129.108655 53.6486553 129.418443 53.8708681 129.789591 53.9810809 130.220911 53.9810809 130.662357 53.9810809 131.043634 53.8714638 131.367123 53.6510383 131.690017 53.4306128 131.936655 53.126783 132.106443 52.7395489 132.27623 52.3523149 132.361421 51.9162298 132.361421 51.4301021 132.361421 50.9481447 132.27623 50.5138468 132.106443 50.1278043 131.936655 49.7417617 131.691804 49.4385277 131.371889 49.2186979" mask="url(#dekant-header-logo-d)"/>
    <polygon fill="#242424" points="137.035 49.022 136.159 49.022 134.006 51.345 134.006 49.022 133.344 49.022 133.34 53.848 134.006 53.848 134.006 51.524 136.374 53.848 137.33 53.848 134.774 51.435" mask="url(#dekant-header-logo-d)"/>
    <path fill="#242424" d="M138.757038,49.7168596 C138.996528,49.5661362 139.288443,49.4910723 139.630996,49.4910723 C139.958655,49.4910723 140.235081,49.5625617 140.461464,49.7055404 C140.687847,49.8485191 140.859421,50.0600085 140.975591,50.3400085 C141.059591,50.5431574 141.105464,50.7945617 141.133464,51.0686043 L138.055847,51.0686043 C138.082655,50.8136255 138.127932,50.5759234 138.211932,50.3775404 C138.335847,50.0874128 138.517549,49.8669872 138.757038,49.7168596 L138.757038,49.7168596 Z M141.480187,51.6178809 L141.833464,51.6178809 C141.847762,51.0549021 141.769719,50.5681787 141.596953,50.1565191 C141.424187,49.7460511 141.168613,49.4314979 140.83023,49.2140511 C140.492443,48.9966043 140.086145,48.887583 139.613123,48.887583 C139.150826,48.887583 138.748698,48.9918383 138.406145,49.2009447 C138.063591,49.4088596 137.799081,49.7061362 137.610826,50.0921787 C137.423762,50.4776255 137.329634,50.9327745 137.329634,51.4570298 C137.329634,51.9634128 137.424357,52.4078383 137.613209,52.7885191 C137.80206,53.1697957 138.071336,53.4640936 138.419847,53.6714128 C138.768357,53.8775404 139.174655,53.9812 139.639336,53.9812 C139.949123,53.9812 140.240443,53.929966 140.512698,53.8269021 C140.785549,53.7250298 141.027421,53.5743064 141.237123,53.3765191 C141.447421,53.1781362 141.614826,52.9386468 141.739932,52.6586468 L141.127506,52.4221362 C140.97857,52.725966 140.774826,52.9565191 140.515081,53.1143915 C140.256528,53.2728596 139.955677,53.3520936 139.613123,53.3520936 C139.278911,53.3520936 138.992953,53.276434 138.754655,53.1263064 C138.516953,52.975583 138.335847,52.7575404 138.211932,52.471583 C138.108868,52.2326894 138.05823,51.9407745 138.041549,51.6178809 L141.163251,51.6178809 L141.480187,51.6178809 Z" mask="url(#dekant-header-logo-d)"/>
    <polygon fill="#242424" points="142.419 49.022 142.419 49.63 144.13 49.63 144.13 53.848 144.787 53.848 144.787 49.63 146.498 49.63 146.498 49.022" mask="url(#dekant-header-logo-d)"/>
  </g>
</svg>
