<svg xmlns="http://www.w3.org/2000/svg" width="14" height="14"><path fill="#394791" d="M0 2a2 2 0 012-2h10a2 2 0 012 2v10a2 2 0 01-2 2H2a2 2 0 01-2-2z"/><path fill="#fff" d="M7.837 11V9.482H6.224V11zM7.79 8.088c.082-.162.292-.376.63-.642.654-.515 1.08-.922 1.28-1.221.2-.299.3-.616.3-.95 0-.606-.272-1.136-.816-1.592C8.641 3.228 7.91 3 6.99 3c-.875 0-1.581.225-2.12.675-.537.45-.827.998-.869 1.642l1.471.173c.103-.45.291-.785.565-1.005.274-.22.614-.329 1.021-.329.422 0 .758.105 1.007.316.249.21.373.464.373.759 0 .212-.07.407-.21.583-.092.112-.371.348-.84.708-.467.36-.779.684-.935.972-.155.288-.233.656-.233 1.102l.005.362H7.68c-.008-.418.03-.707.11-.87z"/></svg>