<svg xmlns="http://www.w3.org/2000/svg" width="544" height="200"><path fill="#EDEDED" fill-rule="evenodd" d="M410.91 174.353c1.549 0 2.902.398 4.059 1.194 1.155.794 2.039 1.888 2.652 3.282.613 1.394.92 2.962.92 4.702 0 1.755-.307 3.33-.92 4.727-.613 1.399-1.504 2.495-2.67 3.291-1.167.796-2.544 1.192-4.138 1.192-1.557 0-2.897-.398-4.015-1.2a7.06 7.06 0 01-1.437-1.383V200h-2.385v-25.163h2.127v2.482c.484-.692 1.034-1.314 1.718-1.787 1.134-.787 2.498-1.179 4.09-1.179zm59.331 0c1.549 0 2.902.398 4.06 1.194 1.154.794 2.038 1.888 2.651 3.282.613 1.394.92 2.962.92 4.702 0 1.755-.307 3.33-.92 4.727-.613 1.399-1.503 2.495-2.67 3.291-1.167.796-2.544 1.192-4.137 1.192-1.558 0-2.898-.398-4.016-1.2a7.06 7.06 0 01-1.437-1.383V200h-2.385v-25.163h2.127v2.482c.484-.692 1.035-1.314 1.719-1.787 1.133-.787 2.497-1.179 4.088-1.179zm33.813-.002c1.708 0 3.175.394 4.394 1.18 1.222.784 2.145 1.92 2.768 3.402.624 1.486.906 3.243.854 5.276h-13.69c.06 1.166.243 2.22.615 3.082.447 1.032 1.101 1.82 1.96 2.364.86.542 1.892.815 3.099.815 1.237 0 2.323-.286 3.256-.858.938-.57 1.674-1.403 2.211-2.5l2.211.854a8.005 8.005 0 01-1.815 2.592 7.706 7.706 0 01-2.615 1.626 8.834 8.834 0 01-3.153.557c-1.678 0-3.145-.374-4.403-1.118-1.258-.749-2.23-1.811-2.912-3.188-.682-1.374-1.024-2.979-1.024-4.807 0-1.893.34-3.536 1.015-4.928.68-1.393 1.635-2.467 2.871-3.217 1.237-.755 2.689-1.132 4.358-1.132zm-496.296 0c1.603 0 2.964.304 4.076.904 1.114.602 1.895 1.465 2.347 2.581.204.473.342 1.011.41 1.613.071.605.106 1.265.106 1.986v10.823h-2.112v-2.921a6.899 6.899 0 01-1.018 1.325 6.739 6.739 0 01-2.452 1.557c-.946.348-2.002.523-3.164.523-1.269 0-2.35-.23-3.247-.693-.9-.462-1.575-1.086-2.026-1.871A5.117 5.117 0 010 187.582c0-1.366.391-2.465 1.179-3.293.785-.826 1.87-1.42 3.256-1.775a30.956 30.956 0 012.936-.57 228.8 228.8 0 014.981-.675c-.015-.983-.133-1.83-.398-2.48a3.136 3.136 0 00-1.484-1.654c-.688-.36-1.602-.54-2.744-.54-1.226 0-2.243.273-3.054.822-.813.55-1.381 1.394-1.702 2.534l-2.31-.678c.411-1.57 1.22-2.783 2.429-3.637 1.21-.856 2.766-1.284 4.67-1.284zm443.432 0c1.602 0 2.961.304 4.073.904 1.115.602 1.895 1.465 2.347 2.581.204.473.342 1.011.41 1.613.072.605.106 1.265.106 1.986v10.823h-2.112v-2.921a6.899 6.899 0 01-1.017 1.325 6.72 6.72 0 01-2.452 1.557c-.947.348-2 .523-3.162.523-1.269 0-2.353-.23-3.25-.693-.899-.462-1.572-1.086-2.024-1.871a5.119 5.119 0 01-.68-2.596c0-1.366.394-2.465 1.18-3.293.784-.826 1.87-1.42 3.258-1.775a30.956 30.956 0 012.936-.57 225.684 225.684 0 014.979-.675c-.015-.983-.134-1.83-.398-2.48a3.136 3.136 0 00-1.484-1.654c-.688-.36-1.603-.54-2.743-.54-1.226 0-2.245.273-3.056.822-.813.55-1.38 1.394-1.701 2.534l-2.308-.678c.409-1.57 1.217-2.783 2.428-3.637 1.209-.856 2.766-1.284 4.67-1.284zm-357.014.001c1.71 0 3.186.39 4.429 1.162 1.24.776 2.19 1.851 2.847 3.234.654 1.383.983 2.977.983 4.784 0 1.828-.33 3.435-.991 4.822-.663 1.387-1.613 2.465-2.856 3.235-1.242.768-2.713 1.153-4.412 1.153-1.7 0-3.17-.387-4.413-1.162-1.241-.774-2.19-1.856-2.846-3.25-.656-1.391-.985-2.991-.985-4.798 0-1.818.333-3.42 1.002-4.81.665-1.385 1.624-2.46 2.872-3.226 1.245-.761 2.703-1.144 4.37-1.144zm119.902 0c1.71 0 3.185.39 4.429 1.162 1.24.776 2.19 1.851 2.847 3.234.654 1.383.983 2.977.983 4.784 0 1.828-.33 3.435-.991 4.822-.663 1.387-1.613 2.465-2.857 3.235-1.24.768-2.712 1.153-4.411 1.153-1.7 0-3.17-.387-4.414-1.162-1.24-.774-2.19-1.856-2.845-3.25-.656-1.391-.985-2.991-.985-4.798 0-1.818.333-3.42 1.002-4.81.665-1.385 1.624-2.46 2.871-3.226 1.246-.761 2.704-1.144 4.371-1.144zm-153.665 0c1.71 0 3.186.39 4.43 1.162 1.24.776 2.189 1.851 2.847 3.234.654 1.383.983 2.977.983 4.784 0 1.828-.331 3.435-.992 4.822-.662 1.387-1.613 2.465-2.856 3.235-1.241.768-2.712 1.153-4.412 1.153-1.699 0-3.17-.387-4.413-1.162-1.241-.774-2.19-1.856-2.846-3.25-.656-1.391-.985-2.991-.985-4.798 0-1.818.334-3.42 1.003-4.81.664-1.385 1.623-2.46 2.87-3.226 1.246-.761 2.705-1.144 4.371-1.144zm330.996 0c1.708 0 3.175.393 4.394 1.178 1.222.785 2.145 1.92 2.768 3.403.624 1.486.906 3.243.854 5.276h-13.69c.06 1.166.241 2.22.615 3.082.448 1.032 1.101 1.82 1.96 2.364.86.542 1.892.815 3.099.815 1.237 0 2.323-.286 3.256-.858.938-.57 1.674-1.403 2.212-2.5l2.21.854a8.005 8.005 0 01-1.815 2.592 7.706 7.706 0 01-2.615 1.626 8.834 8.834 0 01-3.153.557c-1.678 0-3.145-.374-4.403-1.118-1.258-.749-2.23-1.811-2.912-3.188-.682-1.374-1.024-2.979-1.024-4.807 0-1.893.34-3.536 1.015-4.928.68-1.393 1.635-2.467 2.871-3.217 1.237-.755 2.689-1.132 4.358-1.132zm-121.097 0c1.602 0 2.962.303 4.074.903 1.114.602 1.895 1.465 2.346 2.581.205.473.342 1.011.411 1.613a17.1 17.1 0 01.105 1.986v10.823h-2.112v-2.921a6.899 6.899 0 01-1.017 1.325 6.72 6.72 0 01-2.452 1.557c-.946.348-2 .523-3.162.523-1.269 0-2.353-.23-3.25-.693-.899-.462-1.572-1.086-2.024-1.871a5.119 5.119 0 01-.68-2.596c0-1.366.394-2.465 1.18-3.293.784-.826 1.87-1.42 3.258-1.775a30.956 30.956 0 012.936-.57 225.682 225.682 0 014.979-.675c-.015-.983-.133-1.83-.398-2.48a3.136 3.136 0 00-1.484-1.654c-.688-.36-1.602-.54-2.742-.54-1.226 0-2.246.273-3.057.822-.813.55-1.38 1.394-1.701 2.534l-2.308-.678c.409-1.57 1.217-2.783 2.428-3.637 1.21-.856 2.766-1.284 4.67-1.284zm-11.31.486v17.42h-2.354v-15.149h-7.292l-.047.76c-.377 5.207-.779 8.878-1.211 11.018-.204 1.022-.467 1.805-.792 2.347a2.32 2.32 0 01-1.41 1.082c-.618.176-1.472.157-2.556-.058v-2.08c.624.118 1.104.094 1.443-.073.34-.168.59-.448.751-.84.16-.39.308-.948.435-1.668.247-1.484.462-3.23.645-5.244.183-2.011.365-4.517.548-7.515h11.84zm-226.062 0v17.42h-2.355v-15.149h-7.291l-.048.76c-.376 5.207-.778 8.878-1.21 11.018-.205 1.022-.467 1.805-.792 2.347a2.32 2.32 0 01-1.411 1.082c-.617.176-1.471.157-2.555-.058v-2.08c.623.118 1.103.094 1.443-.073.34-.168.59-.448.75-.84.16-.39.308-.948.435-1.668.247-1.484.462-3.23.645-5.244.183-2.011.366-4.517.549-7.515h11.84zm87.093 0v17.42h-2.355v-15.149h-7.292l-.047.76c-.376 5.207-.778 8.878-1.21 11.018-.205 1.022-.468 1.805-.792 2.347a2.32 2.32 0 01-1.411 1.082c-.618.176-1.471.157-2.555-.058v-2.08c.623.118 1.103.094 1.443-.073.34-.168.59-.448.75-.84.16-.39.308-.948.435-1.668.247-1.484.462-3.23.645-5.244.183-2.011.366-4.517.549-7.515h11.84zm408.88 0v2.193h-6.18v15.228h-2.372v-15.228h-6.178v-2.193h14.73zm-489.067 0v8.386l7.775-8.386h3.162l-8.163 8.71 9.227 8.711h-3.452l-8.55-8.39v8.39h-2.402l.015-17.421h2.388zm144.44 0v13.453l9.564-13.454h1.985v17.422h-2.308v-13.567l-9.55 13.567h-1.998v-17.422h2.306zm299.523 0v8.386l7.775-8.386h3.162l-8.163 8.71 9.227 8.711h-3.452l-8.55-8.39v8.39h-2.402l.015-17.421h2.388zm-59.62 0l6.79 14.26 6.807-14.26h2.097v17.421h-2.29v-12.356l-5.855 12.356h-1.502l-5.854-12.356v12.356h-2.308v-17.422h2.114zm-74.479 0v13.453l9.565-13.454h1.985v17.422h-2.308v-13.567l-9.55 13.567h-1.998v-17.422h2.306zm-65.977 0v13.453l9.565-13.454h1.985v17.422h-2.308v-13.567l-9.55 13.567h-1.998v-17.422h2.306zm-140.068-.001v7.566h9.826v-7.566h2.372v17.422h-2.372v-7.582h-9.826v7.582h-2.37v-17.422h2.37zm158.49 0v7.566h9.825v-7.566h2.372v17.422h-2.372v-7.582h-9.825v7.582h-2.37v-17.422h2.37zm-73.913 0v7.566h9.825v-7.566h2.373v17.422h-2.373v-7.582h-9.825v7.582h-2.37v-17.422h2.37zm151.373 0v17.422h-2.37V177.11h-9.115v15.149h-2.37v-17.422h13.855zm-295.458 0v2.273h-9.565v15.149H72.22v-17.422h11.937zm93.32 0v17.422h-2.372v-17.422h2.372zm166.875 0v2.273h-9.565v15.149h-2.372v-17.422h11.937zm-181.605.001v6.562h3.033c1.228 0 2.155.056 2.791.164 2.969.58 4.45 2.334 4.45 5.259 0 .968-.171 1.813-.513 2.533a4.474 4.474 0 01-1.437 1.74 5.795 5.795 0 01-2.13.936 8.883 8.883 0 01-1.329.179c-.49.03-1.032.047-1.622.047h-5.598l-.03-17.42h2.385zm-35.825 0v6.562h4.08c1.24 0 2.169.056 2.792.164 1.388.258 2.478.813 3.267 1.66.79.852 1.188 2.05 1.188 3.599 0 .968-.175 1.813-.519 2.533a4.497 4.497 0 01-1.428 1.74c-.606.441-1.314.753-2.12.936a9.33 9.33 0 01-1.347.179 26.5 26.5 0 01-1.622.047h-6.646l-.03-17.42h2.385zm147.97 8.509l-.177.023c-1.557.173-2.87.334-3.936.484a22.62 22.62 0 00-2.837.566c-.882.245-1.607.62-2.17 1.118-.564.502-.848 1.181-.848 2.044 0 .538.131 1.04.396 1.516.262.471.686.856 1.265 1.153.582.297 1.314.443 2.196.443 1.075 0 2.028-.196 2.862-.59.833-.39 1.506-.93 2.016-1.619.512-.69.847-1.48 1.008-2.372.097-.43.16-.884.185-1.364.024-.398.035-.877.04-1.402zm-262.553 0l-.176.023c-1.557.173-2.871.334-3.936.484-1.065.15-2.011.338-2.837.566-.884.245-1.609.62-2.17 1.118-.566.502-.85 1.181-.85 2.044 0 .538.134 1.04.398 1.516.263.471.684.856 1.265 1.153.58.297 1.312.443 2.194.443 1.075 0 2.03-.196 2.863-.59.834-.39 1.507-.93 2.017-1.619.512-.69.847-1.48 1.009-2.372.097-.43.159-.884.185-1.364.023-.398.034-.877.038-1.402zm443.43 0l-.176.023c-1.558.173-2.87.334-3.937.484-1.064.15-2.008.338-2.836.566-.882.245-1.607.62-2.17 1.118-.564.502-.848 1.181-.848 2.044 0 .538.131 1.04.396 1.516.262.471.686.856 1.264 1.153.583.297 1.314.443 2.196.443 1.076 0 2.029-.196 2.863-.59.833-.39 1.506-.93 2.015-1.619.512-.69.848-1.48 1.01-2.372.096-.43.158-.884.184-1.364.024-.398.035-.877.039-1.402zm-45.244-6.785c-1.185 0-2.18.295-2.994.88-.813.587-1.42 1.402-1.824 2.443-.402 1.043-.604 2.26-.604 3.646 0 1.379.204 2.592.613 3.648.41 1.054 1.022 1.875 1.841 2.467.817.59 1.82.886 3.016.886 1.183 0 2.183-.301 3-.903.815-.603 1.43-1.433 1.839-2.491.406-1.06.613-2.263.613-3.607 0-1.344-.202-2.542-.604-3.598-.405-1.052-1.022-1.878-1.848-2.474-.828-.598-1.845-.897-3.048-.897zm59.331 0c-1.185 0-2.18.295-2.994.88-.813.587-1.42 1.402-1.824 2.443-.402 1.043-.604 2.26-.604 3.646 0 1.379.204 2.592.613 3.648.41 1.054 1.022 1.875 1.841 2.467.818.59 1.82.886 3.016.886 1.183 0 2.183-.301 3-.903.815-.603 1.43-1.433 1.84-2.491.406-1.06.612-2.263.612-3.607 0-1.344-.202-2.542-.604-3.598-.405-1.052-1.022-1.878-1.848-2.474-.828-.598-1.845-.897-3.048-.897zm-375.68.066c-1.269 0-2.331.288-3.185.862-.856.577-1.493 1.381-1.912 2.411-.42 1.035-.63 2.244-.63 3.631 0 1.409.217 2.635.655 3.678.435 1.043 1.08 1.848 1.934 2.411.854.564 1.901.847 3.138.847 1.258 0 2.317-.288 3.18-.862.857-.576 1.5-1.387 1.926-2.428.424-1.043.637-2.259.637-3.646 0-2.15-.49-3.84-1.47-5.065-.978-1.226-2.402-1.84-4.273-1.84zm-33.763 0c-1.269 0-2.331.288-3.185.862-.856.577-1.493 1.381-1.912 2.411-.42 1.035-.63 2.244-.63 3.631 0 1.409.217 2.635.656 3.678.434 1.043 1.08 1.848 1.933 2.411.854.564 1.902.847 3.138.847 1.259 0 2.317-.288 3.18-.862.858-.576 1.5-1.387 1.927-2.428.423-1.043.636-2.259.636-3.646 0-2.15-.49-3.84-1.469-5.065-.978-1.226-2.402-1.84-4.274-1.84zm153.665 0c-1.269 0-2.332.288-3.185.862-.856.577-1.493 1.381-1.913 2.411-.419 1.035-.63 2.244-.63 3.631 0 1.409.218 2.635.656 3.678.435 1.043 1.08 1.848 1.934 2.411.854.564 1.901.847 3.138.847 1.258 0 2.316-.288 3.179-.862.858-.576 1.501-1.387 1.927-2.428.424-1.043.637-2.259.637-3.646 0-2.15-.49-3.84-1.47-5.065-.978-1.226-2.402-1.84-4.273-1.84zm-82.962 6.807h-4.194v6.79h4.194c.506 0 .958-.012 1.355-.04a5.156 5.156 0 001.065-.17 3.144 3.144 0 001.622-1.048c.424-.514.637-1.23.637-2.144 0-.938-.216-1.663-.646-2.179-.43-.516-1.043-.86-1.839-1.03-.548-.12-1.28-.179-2.194-.179zm34.778 0h-3.147v6.79h3.147c.503 0 .952-.012 1.346-.04a5.092 5.092 0 001.056-.17 3.185 3.185 0 001.63-1.048c.429-.514.646-1.23.646-2.144 0-.938-.22-1.663-.654-2.179-.435-.516-1.045-.86-1.83-1.03-.56-.12-1.291-.179-2.194-.179zm162.328-2.354v2.03h-9.679v-2.03h9.68zm63.252-4.55c-1.237 0-2.291.27-3.156.814-.864.542-1.52 1.338-1.968 2.386-.303.716-.467 1.574-.563 2.495h11.111c-.101-.99-.267-1.897-.57-2.63-.42-1.012-1.039-1.775-1.856-2.291-.817-.517-1.815-.775-2.998-.775zm112.644 0c-1.236 0-2.29.27-3.155.814-.864.542-1.52 1.338-1.968 2.386-.303.716-.467 1.574-.563 2.495h11.11c-.1-.99-.266-1.897-.57-2.63-.418-1.012-1.038-1.775-1.855-2.291-.818-.517-1.816-.775-2.999-.775zm-317.092-7.922c0 .4.1.766.299 1.097.2.334.467.6.8.8a2.1 2.1 0 001.097.3c.396 0 .766-.102 1.103-.3a2.174 2.174 0 001.089-1.897h1.968c0 .755-.185 1.45-.557 2.091a4.087 4.087 0 01-1.517 1.516 4.09 4.09 0 01-2.086.557 4.1 4.1 0 01-2.09-.557 4.135 4.135 0 01-1.517-1.516 4.106 4.106 0 01-.557-2.09zm99.447 0c0 .4.102.766.3 1.097.2.334.466.6.8.8a2.1 2.1 0 001.097.3c.395 0 .765-.102 1.103-.3a2.174 2.174 0 001.088-1.897h1.968c0 .755-.185 1.45-.557 2.091a4.087 4.087 0 01-1.516 1.516 4.09 4.09 0 01-2.086.557c-.755 0-1.45-.187-2.091-.557a4.135 4.135 0 01-1.516-1.516 4.106 4.106 0 01-.558-2.09zM241.321 0l56.735 21.67-14.61 23.057 64.573 110.135H210.364l60.843-104.037L241.321 0zm33.921 57.637l-60.284 94.925 111.804-6.781-51.52-88.144zm241.15 18.137c14.89 0 26.958 12.071 26.958 26.961 0 14.889-12.068 26.96-26.959 26.96-14.89 0-26.959-12.071-26.959-26.96 0-14.89 12.069-26.96 26.96-26.96zM328.127 43.66l66.205 64.986h.463V45.078h5.501v84.617h-.615l-66.169-65.023h-.462v47.923l-5.5-9.393V43.66h.577zm-154.086 1.418V91.89l44.74-46.813h5.965l-30.314 32.207 29.043 39.797-5.502 9.431-30.467-41.868-13.465 14.376v29.254h-10.846V45.078h10.846zm317.718-.005v6.537h-31.957v76.66H448.95V51.61h-31.96v-6.537h74.77zm-346.45 0v6.537h-43.052v29.834h36.966v5.468h-36.966v34.822h43.051v6.537H91.404V45.073h53.905zm-116.515 0c6.599 0 12.64 1.054 18.127 3.151 5.485 2.102 10.196 4.99 14.132 8.675 3.933 3.686 6.994 8.063 9.184 13.135 2.183 5.07 3.278 10.537 3.278 16.4 0 6.104-1.132 11.707-3.399 16.818-2.267 5.112-5.366 9.53-9.302 13.253-3.934 3.726-8.526 6.614-13.774 8.675-5.246 2.06-10.851 3.09-16.814 3.09H1.365V45.074h27.43zm244.162 35.623l23.664 40.33-51.395 3.177 27.731-43.507zM25.307 50.304h-13.09v72.738h13.088c6.505 0 12.032-1.09 16.594-3.267 4.562-2.181 8.309-5.012 11.245-8.498a33.562 33.562 0 006.422-11.71c1.349-4.318 2.022-8.616 2.022-12.894 0-4.753-.794-9.332-2.379-13.729-1.585-4.398-3.908-8.276-6.958-11.647-3.054-3.366-6.842-6.04-11.36-8.022-4.522-1.98-9.718-2.97-15.586-2.97zM518.78 93.796h-3.032v11.597c0 .426.04 1.016.122 1.764.086.75.33 1.486.734 2.213.404.725 1.04 1.355 1.907 1.891.87.536 2.089.802 3.659.802.688.024 1.443-.114 2.265-.408.74-.27 1.482-.755 2.23-1.454l.25-.241.572-.572h.142v2.247h3.03V93.796h-3.03v11.062c0 .925-.131 1.723-.392 2.39-.262.664-.608 1.217-1.036 1.658a4.053 4.053 0 01-1.497.98 5.024 5.024 0 01-1.785.321c-.998 0-1.777-.196-2.336-.59-.56-.389-.977-.849-1.25-1.371a4.181 4.181 0 01-.482-1.553c-.04-.437-.063-.775-.07-1.013V93.796zm-9.276-.394c-.998 0-1.833.274-2.498.822-.6.492-1.102 1.196-1.509 2.113l-.132.313h-.215v-2.854h-3.032v17.84h3.032v-10.777c0-.974.114-1.802.34-2.477.226-.68.516-1.23.873-1.66.357-.429.749-.736 1.177-.928a3.08 3.08 0 011.25-.286c.546 0 1.053.179 1.516.536.398.306.705.594.918.866l.1.134 1.214-2.216a2.997 2.997 0 00-.77-.711 4.558 4.558 0 00-.892-.448 4.04 4.04 0 00-.82-.21 3.936 3.936 0 00-.552-.057z"/></svg>