<svg xmlns="http://www.w3.org/2000/svg" xmlns:xlink="http://www.w3.org/1999/xlink" width="151" height="56"><defs><path id="a" d="M.48.008h38.127v42.893H.48z"/><path id="c" d="M0 55.992h150.498V.596H0z"/></defs><g fill="none" fill-rule="evenodd"><path fill="#242424" d="M124.35 36.124V14.891h-8.852v-1.81h20.71v1.81h-8.851v21.233h-3.007zm-15-23.043V30.69h-.127l-18.338-18h-.16v16.49l1.524 2.601V18.51h.128l18.327 18.01h.17V13.08h-1.523zm-47.1 0H60.6L48.206 26.048V13.08h-3.004v23.044h3.004v-8.102l3.73-3.982 8.439 11.596 1.523-2.612-8.044-11.023 8.397-8.92zm-22.002 0v1.81H28.323v8.263h10.24v1.515h-10.24v9.645h11.925v1.81h-14.93V13.08h14.93zM3.384 34.675H7.01c1.801 0 3.332-.302 4.596-.905 1.263-.604 2.301-1.388 3.114-2.354a9.296 9.296 0 001.78-3.243c.373-1.196.56-2.387.56-3.572 0-1.316-.22-2.585-.66-3.802a9.614 9.614 0 00-1.927-3.226c-.846-.933-1.895-1.673-3.147-2.222-1.252-.548-2.691-.823-4.316-.823H3.384v20.147zM.378 36.124V13.08h7.598c1.828 0 3.501.292 5.02.873 1.52.582 2.825 1.382 3.915 2.403a10.783 10.783 0 012.544 3.638c.604 1.404.908 2.918.908 4.542 0 1.691-.314 3.243-.942 4.658a11.296 11.296 0 01-2.576 3.671 11.708 11.708 0 01-3.815 2.403c-1.453.57-3.006.856-4.657.856H.378z"/><path fill="#B11739" d="M150.497 29.051a7.467 7.467 0 11-14.934 0 7.467 7.467 0 1114.934 0"/><path fill="#FEFEFE" d="M139.917 26.575v.79h.06c.118-.296.27-.52.454-.671a1.051 1.051 0 01.845-.212c.07.009.145.029.227.058.083.03.164.072.247.124a.83.83 0 01.213.197l-.336.614a1.308 1.308 0 00-.282-.277.674.674 0 00-.42-.148.857.857 0 00-.346.079.912.912 0 00-.326.257c-.099.119-.18.271-.242.46a2.184 2.184 0 00-.094.686v2.984h-.84v-4.94h.84zm3.775 0v3.261c0 .067.007.17.02.311.013.142.058.286.133.43.076.145.192.273.347.38.154.11.37.164.647.164.171 0 .336-.03.494-.089.158-.059.296-.15.415-.272.118-.122.214-.275.287-.459.072-.185.108-.406.108-.662v-3.064h.84v4.941h-.84v-.622h-.04l-.158.158c-.23.23-.459.387-.686.47-.228.081-.437.12-.628.113-.435 0-.772-.074-1.013-.222a1.468 1.468 0 01-.529-.524 1.636 1.636 0 01-.203-.613 4.787 4.787 0 01-.034-.488v-3.213h.84z"/><g transform="translate(57.787 .588)"><mask id="b" fill="#fff"><use xlink:href="#a"/></mask><path fill="#B11739" d="M1.752 42.264L18.45 15.972l14.27 24.414-30.968 1.878zm18.97-29.868l4.047-6.386L9.054.008l8.278 14.077L.48 42.901h38.127L20.722 12.396z" mask="url(#b)"/></g><path fill="#B11739" d="M75.604 22.947l-7.681 12.05 14.235-.879z"/><path fill="#242424" d="M3.356 52.145a1.548 1.548 0 01-.28.657c-.14.191-.327.34-.558.449-.23.109-.495.163-.793.163a1.33 1.33 0 01-.608-.123.804.804 0 01-.46-.739c0-.239.078-.427.235-.566a1.49 1.49 0 01.601-.31c.229-.063.491-.115.786-.156.295-.042.659-.087 1.09-.134l.049-.007a7.916 7.916 0 01-.01.389 2.274 2.274 0 01-.052.377m.572-2.292a1.387 1.387 0 00-.65-.715c-.308-.166-.685-.25-1.129-.25-.527 0-.958.118-1.293.355-.335.237-.56.573-.673 1.008l.64.187c.089-.315.246-.549.471-.701.225-.152.507-.228.846-.228.316 0 .57.05.76.15.19.1.328.252.411.458.074.18.106.414.11.687a63.374 63.374 0 00-1.38.187 8.574 8.574 0 00-.812.158c-.384.098-.685.262-.902.491-.218.23-.327.534-.327.912 0 .262.063.502.188.72.125.217.312.39.561.517.248.129.548.192.9.192.321 0 .614-.048.876-.144.261-.098.488-.241.68-.432.108-.107.199-.232.28-.367v.81h.586v-2.999c0-.2-.01-.382-.03-.55a1.574 1.574 0 00-.113-.446m1.764 1.25a19.93 19.93 0 01-.178 1.453c-.035.2-.077.354-.12.463a.429.429 0 01-.209.232c-.094.046-.226.053-.4.02v.576c.301.06.538.065.708.016a.643.643 0 00.391-.3c.09-.15.163-.366.22-.65.12-.592.23-1.609.335-3.051l.013-.21h2.02v4.195h.652v-4.825h-3.28c-.05.83-.1 1.525-.152 2.082m8.374-2.082h-.876l-2.153 2.323v-2.323h-.662l-.004 4.826h.666v-2.324l2.368 2.324h.956l-2.556-2.413zm4.082 3.418a1.446 1.446 0 01-.534.673c-.239.159-.532.239-.88.239-.343 0-.633-.079-.87-.235a1.438 1.438 0 01-.535-.668 2.615 2.615 0 01-.182-1.019c0-.384.058-.719.175-1.005.116-.286.292-.508.53-.668.236-.16.53-.239.882-.239.518 0 .912.17 1.183.51.271.339.407.807.407 1.402 0 .385-.059.721-.176 1.01m-.188-3.23c-.344-.214-.753-.322-1.226-.322-.462 0-.866.106-1.211.317-.346.212-.611.51-.795.893-.186.385-.278.829-.278 1.332 0 .5.091.944.273 1.33.182.386.444.685.788.9.344.214.752.321 1.223.321.47 0 .878-.106 1.221-.319a2.08 2.08 0 00.792-.896c.182-.384.274-.83.274-1.336 0-.5-.091-.941-.272-1.325a2.089 2.089 0 00-.789-.896m2.044 4.639h.657v-4.196h2.649v-.63h-3.306zM27.5 52.44a1.446 1.446 0 01-.534.673c-.24.159-.532.239-.88.239-.343 0-.634-.079-.87-.235a1.438 1.438 0 01-.536-.668 2.615 2.615 0 01-.181-1.019c0-.384.058-.719.174-1.005.116-.286.293-.508.53-.668.236-.16.53-.239.882-.239.518 0 .913.17 1.184.51.27.339.407.807.407 1.402 0 .385-.06.721-.177 1.01m-.187-3.23c-.345-.214-.753-.322-1.227-.322-.462 0-.866.106-1.21.317-.346.212-.612.51-.796.893-.185.385-.277.829-.277 1.332 0 .5.09.944.272 1.33.182.386.445.685.789.9.344.214.751.321 1.222.321.47 0 .878-.106 1.222-.319a2.08 2.08 0 00.791-.896c.183-.384.275-.83.275-1.336 0-.5-.091-.941-.272-1.325a2.089 2.089 0 00-.79-.896m2.504 1.895a19.93 19.93 0 01-.178 1.452c-.035.2-.077.354-.12.463a.429.429 0 01-.209.232c-.094.046-.226.053-.4.02v.576c.301.06.538.065.708.016a.643.643 0 00.391-.3c.09-.15.163-.366.22-.65.12-.592.23-1.609.335-3.051l.013-.21h2.02v4.195h.652v-4.825h-3.28c-.05.83-.1 1.525-.152 2.082m7.621 1.832a.87.87 0 01-.449.29c-.086.024-.185.04-.295.047-.11.008-.235.011-.375.011h-1.162v-1.88h1.162c.253 0 .456.016.607.049a.88.88 0 01.51.285c.119.143.179.344.179.604 0 .253-.06.451-.177.594m-.377-2.05a4.912 4.912 0 00-.774-.046h-1.13v-1.818h-.66l.008 4.825h1.84c.164 0 .314-.004.45-.013.135-.009.26-.025.373-.05.223-.05.42-.136.587-.258.168-.122.3-.283.396-.482.095-.2.143-.434.143-.702 0-.429-.11-.76-.329-.997-.218-.235-.52-.388-.904-.46m5.455.233h-2.721v-2.096h-.657v4.826h.657v-2.1h2.721v2.1h.657v-4.826h-.657zm4.552 1.818a.882.882 0 01-.451.29 1.41 1.41 0 01-.293.047 5.339 5.339 0 01-.373.011h-.871v-1.88h.871c.25 0 .453.016.608.049a.883.883 0 01.507.285c.12.143.181.344.181.604 0 .253-.06.451-.179.594m-.375-2.05a4.97 4.97 0 00-.773-.046h-.84v-1.818h-.66l.008 4.825h1.55c.163 0 .314-.004.45-.013a2.46 2.46 0 00.368-.05 1.6 1.6 0 00.59-.258 1.24 1.24 0 00.397-.482c.095-.2.143-.434.143-.702 0-.81-.41-1.296-1.233-1.457"/><mask id="d" fill="#fff"><use xlink:href="#c"/></mask><path fill="#242424" mask="url(#d)" d="M48.501 53.848h.657v-4.826h-.657zm2.543-1.099v-3.727h-.639v4.826h.553l2.645-3.758v3.758h.64v-4.826h-.55zm.788-4.453c.177.103.37.154.579.154.208 0 .401-.051.578-.154.177-.103.318-.243.42-.42a1.13 1.13 0 00.154-.579h-.545a.602.602 0 01-.607.608.582.582 0 01-.304-.082.637.637 0 01-.222-.222.582.582 0 01-.082-.304h-.545a1.145 1.145 0 00.574 1m8.878 4.143a1.446 1.446 0 01-.534.673c-.239.159-.532.239-.88.239-.343 0-.633-.079-.87-.235a1.438 1.438 0 01-.535-.668 2.615 2.615 0 01-.182-1.019c0-.384.058-.719.175-1.005.116-.286.292-.508.53-.668.236-.16.53-.239.882-.239.518 0 .912.17 1.183.51.271.339.407.807.407 1.402 0 .385-.059.721-.176 1.01m-.188-3.23c-.344-.214-.753-.322-1.226-.322-.462 0-.866.106-1.211.317-.346.212-.611.51-.795.893-.186.385-.278.829-.278 1.332 0 .5.091.944.273 1.33.182.386.444.685.788.9.344.214.752.321 1.223.321.47 0 .878-.106 1.221-.319a2.08 2.08 0 00.792-.896c.182-.384.274-.83.274-1.336 0-.5-.09-.941-.272-1.325a2.089 2.089 0 00-.789-.896m5.418 1.909h-2.721v-2.096h-.657v4.826h.657v-2.1h2.721v2.1h.657v-4.826h-.657zm2.367-.014a19.93 19.93 0 01-.178 1.452c-.036.2-.077.354-.12.463a.429.429 0 01-.209.232c-.094.046-.227.053-.4.02v.576c.3.06.537.065.708.016a.643.643 0 00.391-.3c.09-.15.163-.366.22-.65.12-.592.23-1.609.335-3.051l.013-.21h2.02v4.195h.652v-4.825h-3.28c-.05.83-.101 1.525-.152 2.082m7.77 1.041a1.548 1.548 0 01-.279.657c-.141.191-.327.34-.558.449a1.837 1.837 0 01-.793.163c-.244 0-.447-.04-.608-.123a.807.807 0 01-.35-.319.849.849 0 01-.11-.42.72.72 0 01.235-.566c.156-.138.356-.242.6-.31.23-.063.492-.115.787-.156.295-.042.658-.087 1.09-.134l.049-.007a7.916 7.916 0 01-.011.389 2.274 2.274 0 01-.051.377m.572-2.292a1.387 1.387 0 00-.65-.715c-.308-.166-.685-.25-1.129-.25-.527 0-.958.118-1.293.355-.336.237-.56.573-.673 1.008l.64.187c.088-.315.246-.549.47-.701.225-.152.508-.228.847-.228.316 0 .57.05.76.15.19.1.328.252.41.458.074.18.107.414.111.687a62.51 62.51 0 00-1.38.187 8.574 8.574 0 00-.812.158c-.384.098-.685.262-.903.491-.217.23-.326.534-.326.912 0 .262.063.502.188.72.125.217.312.39.56.517.25.129.55.192.9.192.323 0 .614-.048.877-.144.262-.098.488-.241.679-.432.108-.107.2-.232.281-.367v.81h.586v-2.999c0-.2-.01-.382-.03-.55a1.574 1.574 0 00-.113-.446m2.727-1.557c.177.103.37.154.579.154.208 0 .401-.051.578-.154.177-.103.318-.243.42-.42a1.13 1.13 0 00.154-.579h-.545a.602.602 0 01-.607.608.582.582 0 01-.304-.082.637.637 0 01-.222-.222.582.582 0 01-.082-.304h-.545a1.145 1.145 0 00.574 1m-.788 4.452v-3.727h-.639v4.826h.553l2.645-3.758v3.758h.64v-4.826h-.55zm7.823-1.631h-2.721v-2.096h-.657v4.826h.657v-2.1h2.721v2.1h.657v-4.826h-.657zm1.818.196h2.681v-.563H88.23zm3.843 2.534h.657v-4.196h2.649v-.63h-3.306zm4.79-1.099v-3.727h-.639v4.826h.554l2.645-3.758v3.758h.639v-4.826h-.55zm4.445 1.099h.657v-4.196h2.525v4.196h.656v-4.826h-3.838zm6.249-4.131c.24-.15.531-.226.874-.226.327 0 .604.072.83.215.226.143.398.354.514.634.084.203.13.455.158.729h-3.078a2.46 2.46 0 01.157-.691c.123-.29.305-.511.545-.661zm2.723 1.9h.353c.014-.562-.064-1.049-.236-1.46a2.011 2.011 0 00-.767-.943c-.338-.217-.744-.326-1.217-.326-.463 0-.865.104-1.207.313a2.078 2.078 0 00-.796.891c-.187.386-.28.84-.28 1.365 0 .506.094.95.283 1.332.189.38.458.675.806.882.349.207.755.31 1.22.31.31 0 .601-.051.873-.154a2.151 2.151 0 001.228-1.168l-.613-.237a1.617 1.617 0 01-.612.692 1.69 1.69 0 01-.902.238c-.334 0-.62-.076-.859-.226a1.418 1.418 0 01-.542-.654c-.104-.24-.154-.531-.17-.854h3.438zm4.781.812a1.51 1.51 0 01-.51.69c-.226.167-.503.25-.83.25-.332 0-.61-.082-.836-.245a1.478 1.478 0 01-.51-.684 2.784 2.784 0 01-.17-1.01c0-.384.057-.72.168-1.01a1.46 1.46 0 01.505-.676c.225-.162.501-.244.83-.244.333 0 .614.083.844.248.228.165.4.394.511.685.112.293.168.625.168.997s-.057.705-.17 1m-.123-3.211c-.32-.22-.695-.33-1.124-.33-.44 0-.818.107-1.132.326-.19.13-.342.303-.476.495v-.688h-.59v6.97h.661v-2.726c.116.146.247.275.398.383.31.222.681.332 1.112.332.442 0 .823-.11 1.147-.33.322-.22.57-.524.739-.911a3.23 3.23 0 00.255-1.31c0-.482-.085-.916-.255-1.302a2.099 2.099 0 00-.735-.91m4.435 3.754l-1.881-3.95h-.586v4.826h.639v-3.423l1.622 3.423h.416l1.622-3.423v3.423h.634v-4.826h-.581zm6.804-.827a1.548 1.548 0 01-.28.657 1.44 1.44 0 01-.557.449 1.837 1.837 0 01-.793.163c-.245 0-.447-.04-.609-.123a.807.807 0 01-.35-.319.849.849 0 01-.11-.42c0-.239.08-.427.235-.566.156-.138.357-.242.601-.31a6.24 6.24 0 01.786-.156c.296-.042.659-.087 1.09-.134l.05-.007a7.917 7.917 0 01-.012.389 2.274 2.274 0 01-.05.377m.571-2.292a1.387 1.387 0 00-.65-.715c-.308-.166-.684-.25-1.128-.25-.527 0-.959.118-1.294.355-.335.237-.559.573-.672 1.008l.64.187c.088-.315.245-.549.47-.701.225-.152.507-.228.847-.228.316 0 .569.05.76.15.19.1.327.252.41.458.074.18.107.414.11.687a62.511 62.511 0 00-1.38.187 8.574 8.574 0 00-.812.158c-.384.098-.685.262-.902.491-.218.23-.327.534-.327.912 0 .262.063.502.189.72.125.217.311.39.56.517.249.129.549.192.9.192.322 0 .614-.048.876-.144.262-.098.489-.241.68-.432.108-.107.199-.232.281-.367v.81h.585v-2.999c0-.2-.01-.382-.03-.55a1.574 1.574 0 00-.113-.446m4.746 2.576a1.51 1.51 0 01-.51.69c-.226.167-.503.25-.83.25-.332 0-.61-.082-.836-.245a1.478 1.478 0 01-.51-.684 2.784 2.784 0 01-.17-1.01c0-.384.056-.72.168-1.01a1.46 1.46 0 01.505-.676c.225-.162.5-.244.83-.244.332 0 .614.083.843.248.229.165.4.394.512.685.111.293.167.625.167.997s-.057.705-.17 1m-.122-3.211c-.32-.22-.695-.33-1.124-.33-.441 0-.819.107-1.133.326-.19.13-.342.303-.476.495v-.688h-.589v6.97h.66v-2.726c.116.146.248.275.399.383.31.222.68.332 1.112.332.441 0 .823-.11 1.146-.33.323-.22.57-.524.74-.911a3.23 3.23 0 00.254-1.31c0-.482-.085-.916-.255-1.302a2.099 2.099 0 00-.734-.91m5.663-.196h-.876l-2.153 2.323v-2.323h-.662l-.004 4.826h.666v-2.324l2.368 2.324h.956l-2.556-2.413zm1.722.695c.24-.15.531-.226.874-.226.328 0 .604.072.83.215.227.143.398.354.515.634.084.203.13.455.157.729h-3.077a2.46 2.46 0 01.156-.691c.124-.29.306-.511.545-.661zm2.723 1.9h.353c.015-.562-.063-1.049-.236-1.46a2.011 2.011 0 00-.767-.943c-.338-.217-.744-.326-1.217-.326-.462 0-.864.104-1.207.313a2.078 2.078 0 00-.795.891c-.187.386-.281.84-.281 1.365 0 .506.094.95.283 1.332.19.38.458.675.807.882.348.207.755.31 1.22.31.31 0 .6-.051.873-.154a2.147 2.147 0 001.227-1.168l-.612-.237a1.617 1.617 0 01-.613.692c-.258.159-.56.238-.902.238-.334 0-.62-.076-.858-.226a1.418 1.418 0 01-.543-.654c-.103-.24-.154-.531-.17-.854h3.438zm.939-2.595v.608h1.711v4.218h.657V49.63h1.711v-.608z"/></g></svg>