<svg width="114" height="64" xmlns:xlink="http://www.w3.org/1999/xlink" xmlns="http://www.w3.org/2000/svg"><defs><clipPath id="b"><use xlink:href="#a"/></clipPath><path d="M0 63.813h113.461V0H0v63.813z" id="a"/></defs><path d="M14.946 58.858c-.366 0-.693.105-.981.308l.137.48c.275-.165.543-.247.811-.247.543 0 .668.345.668 1.066-.177-.143-.419-.218-.733-.218-.654 0-1.112.405-1.112 1.074 0 .638.36 1.043.903 1.043.399 0 .713-.165.942-.488v.436h.497V60.24c0-.924-.32-1.382-1.132-1.382zm.635 2.102v.428c-.216.293-.465.436-.76.436-.333 0-.529-.203-.529-.533 0-.36.281-.556.628-.556.255 0 .478.075.66.225z" fill="#440415" fill-rule="evenodd"/><path d="M18.968 62.312v-2.778h-1.033l-.033.57c-.137 1.922-.57 2.253-1.184 2.253l-.039-.586c.216.023.641-.225.713-1.787l.052-1.05h2.048v3.378h-.524z" fill="#440415"/><path d="M20.956 62.312h-.523v-3.379h.523v3.379zm.766-1.765l1.288-1.614h-.687l-1.242 1.652 1.328 1.727h.726l-1.413-1.765zm2.048-1.186c-.289.33-.433.751-.433 1.261 0 .51.144.931.432 1.27q.441.495 1.138.495c.465 0 .844-.165 1.132-.496.294-.338.438-.758.438-1.269 0-.51-.144-.93-.438-1.26-.288-.339-.667-.504-1.132-.504-.464 0-.844.165-1.138.503zm1.137 2.463a.92.92 0 01-.732-.338c-.19-.225-.282-.51-.282-.864 0-.352.098-.645.288-.863q.285-.338.726-.338.442 0 .726.338c.19.226.288.51.288.863 0 .714-.419 1.202-1.014 1.202z" fill="#440415" fill-rule="evenodd"/><path d="M27.228 62.312v-3.378h1.864v.562h-1.34v2.816h-.524z" fill="#440415"/><path d="M29.733 59.361c-.287.33-.431.751-.431 1.261 0 .51.144.931.431 1.27q.442.495 1.138.495c.465 0 .844-.165 1.132-.496.294-.338.438-.758.438-1.269 0-.51-.144-.93-.438-1.26-.288-.339-.667-.504-1.132-.504-.464 0-.843.165-1.138.503zm1.138 2.463a.92.92 0 01-.732-.338c-.19-.225-.282-.51-.282-.864 0-.352.099-.645.288-.863q.285-.338.726-.338.442 0 .727.338c.19.226.287.51.287.863 0 .714-.418 1.202-1.014 1.202z" fill="#440415" fill-rule="evenodd"/><path d="M35.09 62.312v-2.778h-1.034l-.032.57c-.137 1.922-.57 2.253-1.184 2.253l-.04-.586c.217.023.642-.225.714-1.787l.052-1.05h2.048v3.378h-.524z" fill="#440415"/><path d="M36.555 58.934v3.378h.994c.425 0 .74-.113.936-.346.196-.233.294-.518.294-.855 0-.684-.327-1.164-1.165-1.164h-.536v-1.013h-.523zm.523 2.814V60.51h.438c.471 0 .707.21.707.623 0 .413-.236.615-.713.615h-.432z" fill="#440415" fill-rule="evenodd"/><path d="M41.637 62.312v-1.427H40v1.427h-.523v-3.378H40v1.388h1.636v-1.388h.523v3.378h-.523z" fill="#440415"/><path d="M0 63.813h113.461V0H0v63.813z" fill="none"/><g clip-path="url(#b)"><path d="M43.108 58.934v3.378h.949c.425 0 .739-.113.928-.346.197-.232.295-.518.295-.856 0-.683-.327-1.163-1.165-1.163h-.484v-1.013h-.523zm3.257 3.378h-.523v-3.378h.523v3.378zm-2.734-1.802v1.239h.38c.503 0 .713-.203.713-.616s-.236-.623-.707-.623h-.386zm5.089-2.71c-.308 0-.478-.195-.504-.593h-.49c0 .623.366 1.05.994 1.05.576 0 .968-.45.968-1.05h-.49c-.027.398-.184.593-.478.593zm-1.413 4.511h.523l1.701-2.514v2.514h.523v-3.378h-.523l-1.7 2.515v-2.515h-.524v3.378zm5.402-2.95c-.288.33-.432.751-.432 1.261 0 .51.144.931.432 1.27.294.33.674.495 1.138.495.465 0 .844-.165 1.132-.496.294-.338.438-.758.438-1.269 0-.51-.144-.93-.438-1.26-.288-.339-.667-.504-1.132-.504-.464 0-.844.165-1.138.503zm1.138 2.463a.92.92 0 01-.733-.338c-.189-.225-.28-.51-.28-.864 0-.352.097-.645.287-.863a.907.907 0 01.726-.338q.441 0 .726.338c.19.226.288.51.288.863 0 .714-.419 1.202-1.014 1.202z" fill="#440415" fill-rule="evenodd"/><path d="M58.327 62.312v-1.427h-1.635v1.427h-.523v-3.378h.523v1.388h1.635v-1.388h.524v3.378h-.524zm3.486 0v-2.778H60.78l-.033.57c-.137 1.922-.57 2.253-1.184 2.253l-.04-.586c.217.023.642-.225.714-1.787l.052-1.05h2.048v3.378h-.524z" fill="#440415"/><path d="M64.279 58.858c-.367 0-.694.105-.982.308l.138.48c.275-.165.543-.247.811-.247.543 0 .667.345.667 1.066-.176-.143-.419-.218-.732-.218-.654 0-1.112.405-1.112 1.074 0 .638.36 1.043.902 1.043.4 0 .713-.165.942-.488v.436h.498V60.24c0-.924-.321-1.382-1.132-1.382zm.634 2.102v.428c-.216.293-.464.436-.759.436-.333 0-.53-.203-.53-.533 0-.36.282-.556.628-.556.256 0 .478.075.661.225zm2.786-3.16c-.307 0-.477-.195-.503-.593h-.49c0 .623.365 1.05.993 1.05.576 0 .968-.45.968-1.05h-.49c-.026.398-.183.593-.478.593zm-1.413 4.511h.524l1.7-2.514v2.514h.524v-3.378h-.523l-1.701 2.515v-2.515h-.524v3.378z" fill="#440415" fill-rule="evenodd"/><path d="M72.14 62.312v-1.427h-1.635v1.427h-.524v-3.378h.524v1.388h1.635v-1.388h.523v3.378h-.523zm2.943 0v-3.378h1.864v.562h-1.34v2.816h-.524zm2.891 0h-.524v-3.378h.524v2.514l1.7-2.514h.524v3.378h-.523v-2.515l-1.701 2.515zm5.298 0v-2.816h-1.603v2.816h-.523v-3.378h2.649v3.378h-.523z" fill="#440415"/><path d="M86.123 62.387c.451 0 .824-.15 1.105-.443l-.163-.473c-.216.232-.517.353-.903.353-.582 0-.981-.383-1.027-1.014h2.263c.02-.112.033-.247.033-.405 0-.458-.13-.826-.392-1.111a1.254 1.254 0 00-.975-.436c-.471 0-.844.166-1.112.503-.268.33-.406.751-.406 1.262 0 .533.144.96.432 1.283.288.323.667.48 1.145.48zm.765-2.065h-1.786c.06-.533.413-.9.936-.9.503 0 .824.337.85.9zm1.256-1.389v4.88h.523v-1.659c.202.158.484.233.83.233.452 0 .825-.173 1.106-.518.281-.346.425-.781.425-1.299 0-.503-.124-.916-.372-1.231-.242-.323-.576-.48-.988-.48-.4 0-.792.194-1.001.472v-.398h-.523zm.523 2.628v-1.674c.216-.308.503-.466.85-.466.596 0 .955.473.955 1.172 0 .72-.398 1.23-1.02 1.23-.294 0-.556-.09-.785-.262z" fill="#440415" fill-rule="evenodd"/><path d="M91.78 62.312v-3.378h.477l1.132 1.674 1.073-1.674h.464v3.378h-.523v-2.463l-1.02 1.57h-.02l-1.06-1.57v2.463h-.523z" fill="#440415"/><path d="M96.875 58.858c-.367 0-.694.105-.982.308l.138.48c.275-.165.543-.247.811-.247.543 0 .667.345.667 1.066-.176-.143-.419-.218-.732-.218-.654 0-1.112.405-1.112 1.074 0 .638.36 1.043.902 1.043.4 0 .713-.165.942-.488v.436h.497V60.24c0-.924-.32-1.382-1.131-1.382zm.634 2.102v.428c-.216.293-.464.436-.759.436-.333 0-.53-.203-.53-.533 0-.36.282-.556.628-.556.256 0 .478.075.661.225zm1.373-2.027v4.88h.524v-1.659c.202.158.484.233.83.233.452 0 .824-.173 1.106-.518.281-.346.425-.781.425-1.299 0-.503-.124-.916-.373-1.231-.242-.323-.576-.48-.987-.48-.4 0-.792.194-1.001.472v-.398h-.524zm.524 2.628v-1.674c.216-.308.503-.466.85-.466.595 0 .955.473.955 1.172 0 .72-.399 1.23-1.02 1.23-.295 0-.556-.09-.785-.262zm3.636.751h-.523v-3.379h.523v3.379zm.765-1.765l1.289-1.614h-.687l-1.242 1.652 1.327 1.727h.726l-1.413-1.765zm3.192 1.84c.451 0 .824-.15 1.105-.443l-.163-.473c-.216.232-.517.353-.903.353-.582 0-.981-.383-1.027-1.014h2.264c.02-.112.032-.247.032-.405 0-.458-.13-.826-.392-1.111a1.254 1.254 0 00-.975-.436c-.471 0-.844.166-1.112.503-.268.33-.406.751-.406 1.262 0 .533.144.96.432 1.283.288.323.667.48 1.145.48zm.765-2.065h-1.786c.06-.533.413-.9.936-.9.503 0 .824.337.85.9z" fill="#440415" fill-rule="evenodd"/><path d="M108.588 59.534v-.6h2.682v.6h-1.08v2.778h-.523v-2.778h-1.08zM81.172 1.21L62.826 18.83l-1.162-1.21L80.01 0l1.162 1.21z" fill="#440415"/><path d="M54.387 35.725l1.7-3.152h-3.43l1.73 3.152z" fill="red"/><path d="M52.425 32.153h3.888l1.807-3.355h-7.537l1.842 3.355z" fill="#FF7F00"/><path d="M50.39 28.449h7.919l1.807-3.356H48.548l1.843 3.356z" fill="#00A33D"/><path d="M48.317 24.675h12.026l1.808-3.356H46.475l1.842 3.356z" fill="#00A0C6"/><path d="M64.222 17.476h-19.86l1.843 3.354h16.209l1.808-3.354z" fill="#5D10D2"/><path d="M57.856 38.148s-1.79 3.65-1.79 5.747c0 7.363 1.79 7.51 1.79 7.51H50.47s1.96-.147 1.96-7.51c0-2.655-1.96-5.844-1.96-5.844L38.266 16.023l3.82-.086 12.176 22.164L66.13 16.079l3.544-.055-11.818 22.125zM44.752 52.223h18.354v-.818H44.752v.818z"/><path d="M39.653 43.395a2.76 2.76 0 012.76 2.76l-.106 1.206c-.653 2.374-2.912 4.978-8.23 4.978-5.519 0-9.993-4.994-9.993-11.153 0-6.158 4.474-10.912 9.992-10.912 0 0 3.908.024 6.02 1.783 2.432 2.433 2.321 6.067.765 7.623-2.34 2.34-5.531 1.054-8.818 3.636-1.065.837-1.93 2.436-1.93 2.436.457 3.375 1.461 5.486 3.896 5.855 3.985.603 6.003-.92 7.353-3.129.076-.124.054-.11-.06-.043-.267.161-1.047.63-2.264.326-1.733-.433-2.146-1.403-2.146-2.606a2.76 2.76 0 012.761-2.76zm-5.908-12.794c-2.445 0-4.165 4.016-4.165 10.6 0 1.481.119 3.142.334 4.327 0 0 .185-1.609 4.163-3.93 1.386-.81 2.318-1.899 2.479-2.504.962-3.621.566-8.493-2.81-8.493zM7.55 34.031c1.68-2.08 3.99-3.382 6.339-3.382 4.53 0 8.201 4.828 8.201 10.782 0 5.956-3.672 10.783-8.201 10.783-2.35 0-4.659-1.3-6.34-3.382v8.641h1.747v.816l-1.746-.005H2.306l-2.128-.002-.033-.786 2.161-.018V32.166l-2.295.011L0 31.281l2.306.01H7.55v2.74zm0 13.837c1.163 1.89 2.724 3.074 4.127 3.074 2.665 0 4.826-4.272 4.826-9.541 0-5.27-2.16-9.542-4.826-9.542-1.403 0-2.964 1.184-4.127 3.074v12.935z" fill-rule="evenodd"/><path d="M77.226 35.7c1.862-5.765 5.988-5.302 5.988-5.302 5.095 0 4.678 5.088 4.678 5.088a2.617 2.617 0 11-1.293-2.258s.58.148.363-.364c-1.11-2.51-4.016-2.139-4.016-2.139-5.512.268-5.72 7.598-5.72 7.598v12.882h1.925v.877l-1.925.006h-7.192v-.883h1.948V31.73H69.72v-.819l2.26-.037h5.245V35.7zm12.248-1.006s-.233-1.63 1.63-1.63c1.864 0 1.864 1.049 1.864 1.98v11.76s-.059 5.64 5.588 5.64c4.424 0 6.463-3.835 6.463-3.835s.53 4.29 4.075 4.075c4.309-.26 4.367-3.784 4.367-3.784s-.131-.029-.4-.029c0 .648-.677 1.543-1.347 1.543-1.338 0-1.746-.757-1.746-1.455v-18.24h-7.31v.818h2.012v16.548s-1.107 2.97-3.843 2.97c-2.678 0-3.26-1.923-3.26-4.25v-11.76s-.058-4.28-4.279-4.28-4.221 3.93-4.221 3.93h.407zM69.183 49.745a2.777 2.777 0 11-5.554 0 2.777 2.777 0 015.554 0"/></g></svg>