<svg width="426" height="240" xmlns="http://www.w3.org/2000/svg"><path d="M304.396 4.539l-63.62 61.1-6.724 12.474H173.27l-6.911-12.58h65.443L300.039 0l4.357 4.539zm-94.152 160.069c0-7.865 6.716-21.551 6.716-21.551l44.316-82.972-13.289.207-44.506 82.589-45.657-83.115-14.328.32 45.768 82.605s7.351 11.958 7.351 21.917c0 27.61-7.351 28.16-7.351 28.16h27.696s-6.716-.55-6.716-28.16zm16.042-72.078H181.19l-6.91-12.582h58.785l-6.779 12.582zm-37.321 14.153h29.693l6.779-12.582h-43.383l6.911 12.582zm22.208 13.892h-14.578l-6.911-12.582h28.267l-6.778 12.582zm-52.122 52.506c0-5.716-4.634-10.349-10.353-10.349-5.718 0-10.352 4.633-10.352 10.349 0 4.513 1.549 8.151 8.045 9.773 4.565 1.139 7.489-.618 8.494-1.221.424-.256.505-.304.221.161-5.06 8.283-12.627 13.995-27.573 11.731-9.131-1.382-12.896-9.298-14.608-21.955 0 0 3.243-5.996 7.238-9.133 12.323-9.685 24.293-4.865 33.066-13.637 5.835-5.835 6.251-19.462-2.871-28.586-7.92-6.597-22.573-6.688-22.573-6.688-20.692 0-37.47 17.829-37.47 40.922 0 23.098 16.778 41.822 37.47 41.822 19.947 0 28.418-9.762 30.867-18.666l.399-4.523zm153.002-59.089s-15.473-1.734-22.458 19.886v-18.1h-19.664l-8.479.14v3.068h8.479v73.033h-7.305v3.311l7.305.002h19.664l7.221-.023v-3.29h-7.221v-48.308s.783-27.486 21.453-28.491c0 0 10.899-1.391 15.058 8.019.814 1.923-1.362 1.365-1.362 1.365a9.768 9.768 0 00-4.962-1.345c-5.42 0-9.813 4.393-9.813 9.812a9.812 9.812 0 009.813 9.813 9.811 9.811 0 009.813-9.813s1.565-19.079-17.542-19.079zm-201.127 40.51c0-24.688 6.449-39.748 15.619-39.748 12.662 0 14.148 18.269 10.54 31.848-.604 2.27-4.099 6.355-9.297 9.39-14.917 8.707-15.612 14.74-15.612 14.74-.806-4.445-1.25-10.674-1.25-16.23zm-82.614-26.884c6.302-7.803 14.962-12.683 23.77-12.683 16.986 0 30.756 18.104 30.756 40.433 0 22.333-13.77 40.434-30.755 40.434-8.81 0-17.47-4.876-23.771-12.681v32.404l6.547.001v3.059l-6.547-.018H8.648l-7.979-.011-.125-2.947 8.104-.068v-94.917l-8.606.042-.042-3.36 8.648.032h19.664v10.28zm307.217 2.487s-.875-6.113 6.113-6.113c6.987 0 6.987 3.931 6.987 7.424v44.1s-.22 21.146 20.955 21.146c16.592 0 24.237-14.379 24.237-14.379s1.988 16.09 15.282 15.283c16.157-.979 16.375-14.192 16.375-14.192s-.492-.107-1.501-.107c0 2.428-2.537 5.785-5.048 5.785-5.02 0-6.55-2.837-6.55-5.457v-68.398h-27.411v3.066h7.543v62.058s-4.148 11.134-14.408 11.134c-10.044 0-12.227-7.208-12.227-15.939v-44.1s-.217-16.047-16.046-16.047c-15.829 0-15.829 14.736-15.829 14.736h1.528zm-307.217 49.4c4.363 7.087 10.214 11.529 15.475 11.529 9.997 0 18.1-16.019 18.1-35.781 0-19.763-8.103-35.783-18.1-35.783-5.261 0-11.112 4.442-15.475 11.529v48.506zm175.641-45.535l6.371-11.822h-12.863l6.492 11.822zm45.07 62.99c5.751 0 10.414-4.662 10.414-10.414 0-5.751-4.663-10.413-10.414-10.413-5.75 0-10.411 4.662-10.411 10.413 0 5.752 4.661 10.414 10.411 10.414zm-81.203-1.125h68.828v-3.066H167.82v3.066zm12.99 18.691c.098 1.492.736 2.224 1.889 2.224 1.104 0 1.692-.732 1.79-2.224h1.84c0 2.253-1.471 3.941-3.63 3.941-2.355 0-3.728-1.604-3.728-3.941h1.839zm73.061 2.224c-1.152 0-1.79-.732-1.888-2.224h-1.839c0 2.337 1.373 3.941 3.727 3.941 2.16 0 3.631-1.688 3.631-3.941h-1.84c-.098 1.492-.686 2.224-1.791 2.224zm-164.738 5.855c-1.079 1.239-1.62 2.816-1.62 4.729 0 1.915.541 3.492 1.62 4.759q1.656 1.858 4.268 1.858c1.742 0 3.164-.619 4.244-1.858 1.103-1.267 1.643-2.844 1.643-4.759 0-1.913-.54-3.49-1.643-4.729-1.08-1.267-2.502-1.886-4.244-1.886s-3.164.619-4.268 1.886zm22.367 0c-1.079 1.239-1.619 2.816-1.619 4.729 0 1.915.54 3.492 1.619 4.759q1.655 1.858 4.268 1.858c1.742 0 3.164-.619 4.244-1.858 1.103-1.267 1.643-2.844 1.643-4.759 0-1.913-.54-3.49-1.643-4.729-1.08-1.267-2.502-1.886-4.244-1.886s-3.164.619-4.268 1.886zm86.157 0c-1.078 1.239-1.618 2.816-1.618 4.729 0 1.915.54 3.492 1.618 4.759 1.104 1.239 2.528 1.858 4.269 1.858 1.742 0 3.165-.619 4.244-1.858 1.103-1.267 1.642-2.844 1.642-4.759 0-1.913-.539-3.49-1.642-4.729-1.079-1.267-2.502-1.886-4.244-1.886-1.741 0-3.165.619-4.269 1.886zm-145.289-.732a6.247 6.247 0 013.68-1.154c3.041 0 4.244 1.718 4.244 5.181v7.77h-1.865v-1.633c-.858 1.21-2.036 1.828-3.533 1.828-2.035 0-3.384-1.519-3.384-3.912 0-2.506 1.718-4.025 4.17-4.025 1.177 0 2.085.282 2.747.815 0-2.702-.466-3.997-2.502-3.997-1.005 0-2.011.31-3.042.929l-.515-1.802zm184.997 0a6.247 6.247 0 013.68-1.154c3.041 0 4.244 1.718 4.244 5.181v7.77h-1.865v-1.633c-.858 1.21-2.036 1.828-3.532 1.828-2.035 0-3.385-1.519-3.385-3.912 0-2.506 1.717-4.025 4.169-4.025 1.178 0 2.087.282 2.748.815 0-2.702-.466-3.997-2.501-3.997-1.007 0-2.012.31-3.042.929l-.516-1.802zm125.915-1.154a6.247 6.247 0 00-3.68 1.154l.515 1.802c1.031-.619 2.036-.929 3.043-.929 2.036 0 2.501 1.295 2.501 3.997-.661-.533-1.57-.815-2.747-.815-2.453 0-4.17 1.519-4.17 4.025 0 2.393 1.35 3.912 3.385 3.912 1.496 0 2.674-.618 3.532-1.828v1.633h1.865v-7.77c0-3.463-1.203-5.181-4.244-5.181zm-36.174 11.57c-1.055 1.098-2.454 1.662-4.146 1.662-1.79 0-3.212-.592-4.293-1.802-1.078-1.211-1.618-2.815-1.618-4.814 0-1.915.514-3.491 1.52-4.73 1.006-1.266 2.404-1.885 4.17-1.885 1.449 0 2.675.535 3.656 1.633.98 1.068 1.472 2.448 1.472 4.166a8.83 8.83 0 01-.123 1.52h-8.487c.171 2.364 1.668 3.8 3.851 3.8 1.448 0 2.575-.451 3.385-1.324l.613 1.774zm78.285 0c-1.055 1.098-2.452 1.662-4.146 1.662-1.79 0-3.212-.592-4.293-1.802-1.078-1.211-1.618-2.815-1.618-4.814 0-1.915.515-3.491 1.52-4.73 1.006-1.266 2.404-1.885 4.17-1.885 1.449 0 2.675.535 3.656 1.633.98 1.068 1.473 2.448 1.473 4.166a8.82 8.82 0 01-.124 1.52h-8.487c.172 2.364 1.668 3.8 3.851 3.8 1.448 0 2.575-.451 3.385-1.324l.613 1.774zM330.538 221v18.299h1.962v-6.221c.759.591 1.816.873 3.115.873 1.694 0 3.091-.648 4.146-1.943 1.055-1.295 1.594-2.928 1.594-4.87 0-1.886-.465-3.435-1.397-4.617-.908-1.211-2.16-1.801-3.705-1.801-1.496 0-2.968.731-3.753 1.772V221h-1.962zm40.27 18.299V221h1.963v1.492c.785-1.041 2.257-1.772 3.753-1.772 1.545 0 2.797.59 3.705 1.801.932 1.182 1.397 2.731 1.397 4.617 0 1.942-.539 3.575-1.594 4.87-1.056 1.295-2.453 1.943-4.146 1.943-1.299 0-2.356-.282-3.115-.873v6.221h-1.963zm36.397-16.046V221h10.057v2.253h-4.048v10.417h-1.962v-10.417h-4.047zm-227.841 10.415h-1.963v-12.667h1.963v9.431l6.378-9.431h1.961v12.667h-1.961v-9.429l-6.378 9.429zm69.209 0h1.963l6.378-9.429v9.429h1.962v-12.667h-1.962l-6.378 9.431v-9.431h-1.963v12.667zm-171.949.001h1.962v-12.668h-1.962v12.668zm9.664-12.668l-4.832 6.052 5.299 6.616h-2.723l-4.98-6.475 4.66-6.193h2.576zm300.12 12.668h-1.963v-12.668h1.963v12.668zm2.869-6.616l4.833-6.052h-2.576l-4.659 6.193 4.978 6.475h2.723l-5.299-6.616zm-252.196-6.052v12.668h3.727c1.594 0 2.773-.423 3.509-1.295.735-.873 1.103-1.942 1.103-3.209 0-2.562-1.226-4.364-4.366-4.364h-2.012v-3.8h-1.961zm-65.95 12.668v-10.417h-3.876l-.122 2.14c-.515 7.207-2.135 8.446-4.44 8.446l-.147-2.196c.81.084 2.404-.845 2.674-6.7l.195-3.941h7.68v12.668H71.13zm30.975-12.668v12.668h1.962v-10.557h5.029v-2.111h-6.991zm29.481 2.251v10.417h1.963v-12.668h-7.678l-.196 3.941c-.27 5.855-1.864 6.784-2.674 6.7l.148 2.196c2.305 0 3.924-1.239 4.439-8.446l.122-2.14h3.876zm24.55 5.069v5.348h1.963v-12.668h-1.963v5.208h-6.132v-5.208h-1.962v12.668h1.962v-5.348h6.132zm62.59 0v5.348h1.963v-12.668h-1.963v5.208h-6.132v-5.208h-1.963v12.668h1.963v-5.348h6.132zm13.072 5.348v-10.417h-3.876l-.122 2.14c-.515 7.207-2.135 8.446-4.441 8.446l-.146-2.196c.809.084 2.404-.845 2.674-6.7l.195-3.941h7.679v12.668h-1.963zm38.726-5.348v5.348h1.963v-12.668h-1.963v5.208h-6.132v-5.208h-1.963v12.668h1.963v-5.348h6.132zm11.035 5.348v-12.668h6.991v2.111h-5.028v10.557h-1.963zm8.879 0h1.963l6.378-9.431v9.431h1.961v-12.668h-1.961l-6.378 9.43v-9.43h-1.963v12.668zm21.829 0v-10.557h-6.009v10.557h-1.963v-12.668h9.934v12.668h-1.962zm33.696-12.668h-1.79v12.668h1.963v-9.234l3.974 5.883h.072l3.827-5.883v9.234h1.962v-12.668h-1.741l-4.023 6.278-4.244-6.278zm-184.309.001v12.667h3.557c1.594 0 2.772-.422 3.482-1.295.736-.873 1.105-1.943 1.105-3.21 0-2.561-1.227-4.363-4.367-4.363h-1.815v-3.799h-1.962zm12.215 12.667h-1.962v-12.667h1.962v12.667zm145.264-7.46h6.697c-.098-2.112-1.301-3.379-3.19-3.379-1.962 0-3.286 1.38-3.507 3.379zm78.285 0h6.697c-.098-2.112-1.301-3.379-3.19-3.379-1.961 0-3.286 1.38-3.507 3.379zm-64.919 4.645v-6.278c.81-1.154 1.888-1.746 3.189-1.746 2.232 0 3.581 1.774 3.581 4.393 0 2.701-1.495 4.616-3.826 4.616a4.776 4.776 0 01-2.944-.985zm40.271-6.278v6.278c.858.647 1.84.985 2.943.985 2.332 0 3.827-1.915 3.827-4.616 0-2.619-1.349-4.393-3.581-4.393-1.301 0-2.379.592-3.189 1.746zm-279.37 7.263c-1.103 0-2.037-.422-2.747-1.267-.712-.844-1.055-1.914-1.055-3.238 0-1.322.368-2.42 1.079-3.236q1.068-1.267 2.723-1.267 1.655 0 2.723 1.267c.71.844 1.08 1.914 1.08 3.236 0 2.675-1.57 4.505-3.803 4.505zm22.367 0c-1.103 0-2.037-.422-2.747-1.267-.712-.844-1.055-1.914-1.055-3.238 0-1.322.368-2.42 1.079-3.236q1.068-1.267 2.723-1.267 1.655 0 2.723 1.267c.711.844 1.079 1.914 1.079 3.236 0 2.675-1.57 4.505-3.802 4.505zm86.158 0c-1.103 0-2.036-.422-2.747-1.267-.71-.844-1.055-1.914-1.055-3.238 0-1.322.367-2.42 1.081-3.236.71-.845 1.618-1.267 2.721-1.267q1.656 0 2.724 1.267c.71.844 1.079 1.914 1.079 3.236 0 2.675-1.57 4.505-3.803 4.505zm-62.884-.282v-4.644h1.644c1.766 0 2.65.788 2.65 2.337 0 1.547-.884 2.307-2.674 2.307h-1.62zm24.575-4.644v4.645h1.422c1.889 0 2.675-.761 2.675-2.309s-.884-2.336-2.649-2.336h-1.448zm-105.19 3.293v-1.605c-.686-.563-1.52-.844-2.478-.844-1.299 0-2.354.732-2.354 2.083 0 1.239.736 1.999 1.987 1.999 1.103 0 2.035-.534 2.845-1.633zm184.997 0v-1.605c-.687-.563-1.521-.844-2.478-.844-1.299 0-2.354.732-2.354 2.083 0 1.239.736 1.999 1.987 1.999 1.103 0 2.035-.534 2.845-1.633zm122.235-1.605v1.605c-.81 1.099-1.742 1.633-2.845 1.633-1.251 0-1.987-.76-1.987-1.999 0-1.351 1.055-2.083 2.354-2.083.957 0 1.791.281 2.478.844z" fill="#EDEDED" fill-rule="evenodd"/></svg>