<svg width="40" height="40" xmlns="http://www.w3.org/2000/svg"><path d="M13 40h14V0H13v40z" fill="#F0F0F0"/><path d="M1.999 40H13V0H1.999q-.098 0-.196.01T1.61.038q-.096.02-.19.048-.094.029-.185.066-.09.038-.177.084-.087.046-.169.1Q.807.392.731.455.655.516.585.585.516.655.454.731.39.807.337.888.282.97.236 1.057q-.046.086-.084.177-.037.09-.066.185-.028.094-.048.19-.019.096-.028.194Q0 1.901 0 2v36.002q0 .098.01.196t.028.194q.02.096.048.19.029.094.066.185.038.09.084.177.046.087.1.169.055.081.118.157.062.076.131.145.07.07.146.132.076.063.157.117.082.055.169.101.086.046.177.084.09.037.185.066.094.028.19.048.096.019.194.028.098.01.196.01z" fill="#0052B4"/><path d="M27 40h11.001q.098 0 .196-.01t.194-.028q.096-.02.19-.048.094-.029.185-.066.09-.038.177-.084.087-.046.169-.1.081-.056.157-.118.076-.062.146-.132.069-.069.131-.145.062-.076.117-.157.055-.082.101-.169.046-.086.084-.177.037-.09.066-.185.028-.094.048-.19.019-.096.028-.194.01-.098.01-.196V1.999q0-.098-.01-.196t-.028-.194q-.02-.096-.048-.19-.029-.094-.066-.185-.038-.09-.084-.177-.046-.087-.1-.169-.056-.081-.118-.157-.062-.076-.132-.146-.069-.069-.145-.131-.076-.063-.157-.117-.082-.055-.169-.101-.086-.046-.177-.084-.09-.037-.185-.066-.094-.028-.19-.048-.096-.019-.194-.028Q38.099 0 38 0H27v40z" fill="#D80027"/></svg>