<?xml version="1.0" encoding="utf-8"?>
<svg width="40px" height="40px" viewBox="0 0 40 40" version="1.1" xmlns:xlink="http://www.w3.org/1999/xlink" xmlns="http://www.w3.org/2000/svg">
  <desc>Created with Lunacy</desc>
  <g id="flag">
    <g id="france-small">
      <path d="M0 40L14 40L14 0L0 0L0 40Z" transform="translate(13 0)" id="Fill-1" fill="#F0F0F0" stroke="none" />
      <path d="M1.999 40L13 40L13 0L1.999 0Q1.9008 0 1.80306 0.00962573Q1.70533 0.0192515 1.60901 0.0384102Q1.5127 0.057569 1.41872 0.0860763Q1.32474 0.114584 1.23402 0.152165Q1.14329 0.189746 1.05668 0.236039Q0.970069 0.282333 0.888415 0.336892Q0.806761 0.391452 0.730848 0.453752Q0.654935 0.516052 0.585494 0.585494Q0.516052 0.654935 0.453752 0.730848Q0.391452 0.806761 0.336892 0.888415Q0.282333 0.970069 0.236039 1.05668Q0.189746 1.14329 0.152165 1.23402Q0.114584 1.32474 0.0860763 1.41872Q0.057569 1.5127 0.0384102 1.60901Q0.0192515 1.70533 0.00962573 1.80306Q0 1.9008 0 1.999L0 38.001Q0 38.0992 0.00962573 38.1969Q0.0192515 38.2947 0.0384102 38.391Q0.057569 38.4873 0.0860763 38.5813Q0.114584 38.6753 0.152165 38.766Q0.189746 38.8567 0.236039 38.9433Q0.282333 39.0299 0.336892 39.1116Q0.391452 39.1932 0.453752 39.2692Q0.516052 39.3451 0.585494 39.4145Q0.654935 39.4839 0.730848 39.5462Q0.806761 39.6085 0.888415 39.6631Q0.970069 39.7177 1.05668 39.764Q1.14329 39.8102 1.23402 39.8478Q1.32474 39.8854 1.41872 39.9139Q1.5127 39.9424 1.60901 39.9616Q1.70533 39.9807 1.80306 39.9904Q1.9008 40 1.999 40L1.999 40Z" id="Fill-2" fill="#0052B4" stroke="none" />
      <path d="M0 40L11.001 40Q11.0992 40 11.1969 39.9904Q11.2947 39.9807 11.391 39.9616Q11.4873 39.9424 11.5813 39.9139Q11.6753 39.8854 11.766 39.8478Q11.8567 39.8102 11.9433 39.764Q12.0299 39.7177 12.1116 39.6631Q12.1932 39.6085 12.2692 39.5462Q12.3451 39.4839 12.4145 39.4145Q12.4839 39.3451 12.5462 39.2692Q12.6085 39.1932 12.6631 39.1116Q12.7177 39.0299 12.764 38.9433Q12.8103 38.8567 12.8478 38.766Q12.8854 38.6753 12.9139 38.5813Q12.9424 38.4873 12.9616 38.391Q12.9807 38.2947 12.9904 38.1969Q13 38.0992 13 38.001L13 1.999Q13 1.9008 12.9904 1.80306Q12.9807 1.70533 12.9616 1.60901Q12.9424 1.5127 12.9139 1.41872Q12.8854 1.32474 12.8478 1.23402Q12.8103 1.14329 12.764 1.05668Q12.7177 0.970069 12.6631 0.888415Q12.6085 0.806761 12.5462 0.730848Q12.4839 0.654935 12.4145 0.585494Q12.3451 0.516052 12.2692 0.453752Q12.1932 0.391452 12.1116 0.336892Q12.0299 0.282333 11.9433 0.236039Q11.8567 0.189746 11.766 0.152165Q11.6753 0.114584 11.5813 0.0860763Q11.4873 0.057569 11.391 0.0384102Q11.2947 0.0192515 11.1969 0.00962573Q11.0992 0 11.001 0L0 0L0 40Z" transform="translate(27 0)" id="Fill-3" fill="#D80027" stroke="none" />
    </g>
  </g>
</svg>
